SplineFontDB: 3.2
FontName: linja_laso
FullName: linja laso
FamilyName: linja laso
Weight: Regular
Copyright: Copyright (c) 2026, mute ante
Version: 1.1
ItalicAngle: 0
UnderlinePosition: -96.875
UnderlineWidth: 46.875
Ascent: 900
Descent: 100
InvalidEm: 0
sfntRevision: 0x0000e666
LayerCount: 2
Layer: 0 0 "Back" 1
Layer: 1 0 "Fore" 0
XUID: [1021 412 1039766594 11549582]
StyleMap: 0x0040
FSType: 0
OS2Version: 4
OS2_WeightWidthSlopeOnly: 0
OS2_UseTypoMetrics: 1
CreationTime: 1759787008
ModificationTime: 1769012253
PfmFamily: 17
TTFWeight: 400
TTFWidth: 5
LineGap: 92
VLineGap: 0
Panose: 2 0 5 3 0 0 0 0 0 0
OS2TypoAscent: 900
OS2TypoAOffset: 0
OS2TypoDescent: -100
OS2TypoDOffset: 0
OS2TypoLinegap: 92
OS2WinAscent: 862
OS2WinAOffset: 0
OS2WinDescent: 61
OS2WinDOffset: 0
HheadAscent: 862
HheadAOffset: 0
HheadDescent: -61
HheadDOffset: 0
OS2SubXSize: 650
OS2SubYSize: 700
OS2SubXOff: 0
OS2SubYOff: 139
OS2SupXSize: 650
OS2SupYSize: 700
OS2SupXOff: 0
OS2SupYOff: 480
OS2StrikeYSize: 48
OS2StrikeYPos: 258
OS2Vendor: 'PfEd'
OS2CodePages: 00000001.00000000
OS2UnicodeRanges: 00000001.02000000.04000000.00000000
Lookup: 4 0 1 "LIGA basics" { "LIGA basics"  } ['liga' ('DFLT' <'dflt' > 'latn' <'dflt' > ) ]
Lookup: 4 0 1 "LIGA ni directions" { "LIGA ni directions-1"  } ['liga' ('DFLT' <'dflt' > 'latn' <'dflt' > ) ]
Lookup: 4 0 1 "LIGA alternates" { "LIGA alternates"  } ['liga' ('DFLT' <'dflt' > 'latn' <'dflt' > ) ]
Lookup: 1 0 0 "SS01 allow half spaces" { "SS01 allow half spaces"  } ['ss01' ('DFLT' <'dflt' > 'latn' <'dflt' > ) ]
Lookup: 5 0 0 "CALT colon te spacing" { "CALT colon te spacing"  } ['calt' ('DFLT' <'dflt' > 'latn' <'dflt' > ) ]
Lookup: 1 0 0 "SS03 colon te spacing" { "SS03 colon te spacing"  } ['ss03' ('DFLT' <'dflt' > 'latn' <'dflt' > ) ]
Lookup: 6 0 0 "CALT cartouches" { "CALT cartouches"  } ['calt' ('DFLT' <'dflt' > 'latn' <'dflt' > ) ]
Lookup: 2 0 0 "CCMP cartouches" { "CCMP cartouches"  } ['stch' ('DFLT' <'dflt' > 'latn' <'dflt' > ) ]
MarkAttachClasses: 1
DEI: 91125

StartChar: .notdef
Encoding: 272 -1 0
GlifName: _notdef
Width: 1000
GlyphClass: 1
Flags: W
HStem: 0 21G<100 900> 780 20G<100 900>
VStem: 100 800<0 800>
LayerCount: 2
Fore
SplineSet
100 0 m 1
 100 800 l 1
 900 800 l 1
 900 0 l 1
 100 0 l 1
EndSplineSet
EndChar

StartChar: t.a
Encoding: 98 989440 2
GlifName: t.a
Width: 1000
GlyphClass: 1
Flags: W
HStem: -25 100<414.527 536.948> 275 100<414.527 537.484>
VStem: 275 100<114.527 235.473> 425 100<450 825> 681 98<-1.21429 66.3329>
LayerCount: 2
Fore
SplineSet
653 83 m 1
 620 19 552 -25 475 -25 c 0
 365 -25 275 65 275 175 c 0
 275 285 365 375 475 375 c 0
 530 375 581 352 617 316 c 0
 703 230 759 120 779 0 c 1
 681 -17 l 1
 675 17 666 51 653 83 c 1
475 275 m 0
 420 275 375 230 375 175 c 0
 375 120 420 75 475 75 c 0
 530 75 575 120 575 175 c 0
 575 203 564 228 546 246 c 0
 528 264 503 275 475 275 c 0
425 450 m 1
 425 825 l 1
 525 825 l 1
 525 450 l 1
 425 450 l 1
EndSplineSet
MultipleSubs2: "CCMP cartouches" t.a cart.body
Ligature2: "LIGA basics" a
EndChar

StartChar: t.akesi
Encoding: 99 989441 3
GlifName: t.akesi
Width: 1000
GlyphClass: 1
Flags: W
HStem: -25 100<439.527 560.473> 175 100<200 300 400 600 700 800> 375 100<200 300 400 600 700 800> 575 100<439.527 560.473> 700 150<298.417 401.583 598.417 701.583>
VStem: 275 150<723.417 826.583> 300 100<115.696 175 275 375 475 534.304> 575 150<723.417 826.583> 600 100<115.696 175 275 375 475 534.304>
LayerCount: 2
Fore
SplineSet
575 775 m 0xf9
 575 816 609 850 650 850 c 0
 691 850 725 816 725 775 c 0
 725 734 691 700 650 700 c 0
 609 700 575 734 575 775 c 0xf9
275 775 m 0xfc
 275 816 309 850 350 850 c 0
 391 850 425 816 425 775 c 0
 425 734 391 700 350 700 c 0
 309 700 275 734 275 775 c 0xfc
400 175 m 1xfa80
 400 120 445 75 500 75 c 0
 555 75 600 120 600 175 c 1
 400 175 l 1xfa80
400 375 m 1
 400 275 l 1
 600 275 l 1
 600 375 l 1
 400 375 l 1
500 575 m 0
 445 575 400 530 400 475 c 1
 600 475 l 1
 600 530 555 575 500 575 c 0
500 675 m 0
 610 675 700 585 700 475 c 1
 800 475 l 1
 800 375 l 1
 700 375 l 1
 700 275 l 1
 800 275 l 1
 800 175 l 1
 700 175 l 1
 700 65 610 -25 500 -25 c 0
 390 -25 300 65 300 175 c 1
 200 175 l 1
 200 275 l 1
 300 275 l 1
 300 375 l 1
 200 375 l 1
 200 475 l 1
 300 475 l 1
 300 585 390 675 500 675 c 0
EndSplineSet
LCarets2: 4 -75 -75 -75 -75
MultipleSubs2: "CCMP cartouches" t.akesi cart.body
Ligature2: "LIGA basics" a k e s i
EndChar

StartChar: t.ala
Encoding: 100 989442 4
GlifName: t.ala
Width: 1000
GlyphClass: 1
Flags: W
HStem: 0 21G<151 191 809 849> 780 20G<151 191 809 849>
LayerCount: 2
Fore
SplineSet
171 800 m 1
 500 471 l 1
 829 800 l 1
 900 729 l 1
 571 400 l 1
 900 71 l 1
 829 0 l 1
 500 329 l 1
 171 0 l 1
 100 71 l 1
 429 400 l 1
 100 729 l 1
 171 800 l 1
EndSplineSet
LCarets2: 2 -75 -75
MultipleSubs2: "CCMP cartouches" t.ala cart.body
Ligature2: "LIGA basics" a l a
EndChar

StartChar: t.alasa
Encoding: 101 989443 5
GlifName: t.alasa
Width: 1000
GlyphClass: 1
Flags: W
HStem: 0 21G<200 303.5> 353 95<50 200> 358 85<300 497 595.686 678.8>
VStem: 200 100<117 353 448 683> 497 101<285.578 358 443 514.422>
LayerCount: 2
Fore
SplineSet
497 358 m 1xb8
 300 354 l 1
 300 117 l 1
 406 155 481 249 497 358 c 1xb8
300 683 m 1
 300 446 l 1
 497 443 l 1
 481 552 406 645 300 683 c 1
200 800 m 1
 407 800 578 643 598 441 c 1
 800 438 l 1
 637 575 l 1
 713 650 l 1
 962 400 l 1
 713 150 l 1
 637 225 l 1
 800 363 l 1
 598 359 l 1
 578 157 407 0 200 0 c 1
 200 353 l 1
 50 350 l 1
 50 450 l 1
 200 448 l 1xd8
 200 800 l 1
EndSplineSet
LCarets2: 4 -75 -75 -75 -75
MultipleSubs2: "CCMP cartouches" t.alasa cart.body
Ligature2: "LIGA basics" a l a s a
EndChar

StartChar: t.ale
Encoding: 102 989444 6
GlifName: t.ale
Width: 1000
GlyphClass: 1
Flags: W
HStem: 188 100<198.045 328.783 670.876 801.17> 512 100<198.045 328.783 670.876 801.17>
VStem: 50 100<336.045 463.955> 850 100<336.045 463.955>
LayerCount: 2
Fore
SplineSet
737 512 m 0
 708 512 682 502 661 482 c 2
 573 400 l 1
 661 318 l 2
 682 298 708 288 737 288 c 0
 799 288 850 338 850 400 c 0
 850 462 799 512 737 512 c 0
262 512 m 0
 200 512 150 462 150 400 c 0
 150 338 200 288 262 288 c 0
 291 288 318 298 339 318 c 2
 427 400 l 1
 339 482 l 2
 318 502 291 512 262 512 c 0
262 612 m 0
 316 612 369 592 408 555 c 2
 500 469 l 1
 592 555 l 2
 631 592 683 612 737 612 c 0
 854 612 950 517 950 400 c 0
 950 283 854 188 737 188 c 0
 683 188 631 208 592 245 c 2
 500 331 l 1
 408 245 l 2
 369 208 316 188 262 188 c 0
 145 188 50 283 50 400 c 0
 50 517 145 612 262 612 c 0
EndSplineSet
LCarets2: 2 -75 -75
MultipleSubs2: "CCMP cartouches" t.ale cart.body
Ligature2: "LIGA basics" a l e
EndChar

StartChar: t.anpa
Encoding: 103 989445 7
GlifName: t.anpa
Width: 1000
GlyphClass: 1
Flags: W
HStem: 75 150<448.417 551.583> 300 100<200 800>
VStem: 100 100<400 650> 425 150<98.4173 201.583> 800 100<400 650>
CounterMasks: 1 38
LayerCount: 2
Fore
SplineSet
425 150 m 0
 425 191 459 225 500 225 c 0
 541 225 575 191 575 150 c 0
 575 109 541 75 500 75 c 0
 459 75 425 109 425 150 c 0
100 650 m 1
 200 650 l 1
 200 400 l 1
 800 400 l 1
 800 650 l 1
 900 650 l 1
 900 300 l 1
 100 300 l 1
 100 650 l 1
EndSplineSet
LCarets2: 3 -75 -75 -75
MultipleSubs2: "CCMP cartouches" t.anpa cart.body
Ligature2: "LIGA basics" a n p a
EndChar

StartChar: t.ante
Encoding: 104 989446 8
GlifName: t.ante
Width: 1000
GlyphClass: 1
Flags: W
HStem: 0 21G<148.506 191.52 808.48 851.494> 780 20G<148.506 191.52 808.48 851.494>
LayerCount: 2
Fore
SplineSet
500 350 m 1
 894 83 l 1
 838 0 l 1
 500 229 l 1
 162 0 l 1
 106 83 l 1
 500 350 l 1
162 800 m 1
 500 571 l 1
 838 800 l 1
 894 717 l 1
 500 450 l 1
 106 717 l 1
 162 800 l 1
EndSplineSet
MultipleSubs2: "CCMP cartouches" t.ante cart.body
Ligature2: "LIGA basics" a n t e
EndChar

StartChar: t.anu
Encoding: 105 989447 9
GlifName: t.anu
Width: 1000
GlyphClass: 1
Flags: W
VStem: 450 100<25 413>
LayerCount: 2
Fore
SplineSet
217 787 m 1
 500 505 l 1
 783 787 l 1
 854 717 l 1
 550 413 l 1
 550 25 l 1
 450 25 l 1
 450 413 l 1
 146 717 l 1
 217 787 l 1
EndSplineSet
MultipleSubs2: "CCMP cartouches" t.anu cart.body
Ligature2: "LIGA basics" a n u
EndChar

StartChar: t.awen
Encoding: 106 989448 10
GlifName: t.awen
Width: 1000
GlyphClass: 1
Flags: W
HStem: 0 100<75 250 750 925> 780 20G<444.286 555.714>
LayerCount: 2
Fore
SplineSet
450 800 m 1
 550 800 l 1
 750 100 l 1
 925 100 l 1
 925 0 l 1
 675 0 l 1
 500 611 l 1
 325 0 l 1
 75 0 l 1
 75 100 l 1
 250 100 l 1
 450 800 l 1
EndSplineSet
LCarets2: 3 -75 -75 -75
MultipleSubs2: "CCMP cartouches" t.awen cart.body
Ligature2: "LIGA basics" a w e n
EndChar

StartChar: t.e
Encoding: 107 989449 11
GlifName: t.e
Width: 1000
GlyphClass: 1
Flags: W
LayerCount: 2
Fore
SplineSet
137 825 m 1
 562 400 l 1
 137 -25 l 1
 67 46 l 1
 421 400 l 1
 67 754 l 1
 137 825 l 1
500 825 m 1
 925 400 l 1
 500 -25 l 1
 429 46 l 1
 784 400 l 1
 429 754 l 1
 500 825 l 1
EndSplineSet
MultipleSubs2: "CCMP cartouches" t.e cart.body
Ligature2: "LIGA basics" e
EndChar

StartChar: t.en
Encoding: 108 989450 12
GlifName: t.en
Width: 1000
GlyphClass: 1
Flags: W
HStem: 350 100<150 450 550 850>
VStem: 450 100<50 350 450 750>
LayerCount: 2
Fore
SplineSet
450 750 m 1
 550 750 l 1
 550 450 l 1
 850 450 l 1
 850 350 l 1
 550 350 l 1
 550 50 l 1
 450 50 l 1
 450 350 l 1
 150 350 l 1
 150 450 l 1
 450 450 l 1
 450 750 l 1
EndSplineSet
LCarets2: 1 -75
MultipleSubs2: "CCMP cartouches" t.en cart.body
Ligature2: "LIGA basics" e n
EndChar

StartChar: t.esun
Encoding: 109 989451 13
GlifName: t.esun
Width: 1000
GlyphClass: 1
Flags: W
HStem: -25 100<239.527 361.307> 275 100<239.527 419.267> 425 100<580.733 760.473> 725 100<638.693 760.473>
VStem: 100 100<114.527 235.473> 800 100<564.527 685.473>
LayerCount: 2
Fore
SplineSet
538 336 m 1
 681 288 807 198 900 75 c 1
 820 15 l 1
 742 119 636 196 517 238 c 1
 497 141 l 2
 480 45 397 -25 300 -25 c 0
 190 -25 100 65 100 175 c 0
 100 285 190 375 300 375 c 0
 348 375 395 371 441 362 c 1
 462 464 l 1
 319 512 193 602 100 725 c 1
 180 785 l 1
 258 681 364 604 483 562 c 1
 503 659 l 2
 520 755 603 825 700 825 c 0
 810 825 900 735 900 625 c 0
 900 515 810 425 700 425 c 0
 652 425 605 429 559 438 c 1
 538 336 l 1
579 536 m 1
 618 529 659 525 700 525 c 0
 755 525 800 570 800 625 c 0
 800 680 755 725 700 725 c 0
 651 725 609 690 601 642 c 2
 579 536 l 1
421 264 m 1
 382 271 341 275 300 275 c 0
 245 275 200 230 200 175 c 0
 200 120 245 75 300 75 c 0
 349 75 391 110 399 158 c 2
 421 264 l 1
EndSplineSet
LCarets2: 3 -75 -75 -75
MultipleSubs2: "CCMP cartouches" t.esun cart.body
Ligature2: "LIGA basics" e s u n
EndChar

StartChar: t.ijo
Encoding: 110 989452 14
GlifName: t.ijo
Width: 1000
GlyphClass: 1
Flags: W
HStem: -25 100<386.002 613.998> 725 100<386.002 613.998>
VStem: 75 100<286.002 513.998> 825 100<286.002 513.998>
LayerCount: 2
Fore
SplineSet
500 725 m 0
 321 725 175 579 175 400 c 0
 175 221 321 75 500 75 c 0
 679 75 825 221 825 400 c 0
 825 579 679 725 500 725 c 0
500 825 m 0
 735 825 925 635 925 400 c 0
 925 165 735 -25 500 -25 c 0
 265 -25 75 165 75 400 c 0
 75 635 265 825 500 825 c 0
EndSplineSet
LCarets2: 2 -75 -75
MultipleSubs2: "CCMP cartouches" t.ijo cart.body
Ligature2: "LIGA basics" i j o
EndChar

StartChar: t.ike
Encoding: 111 989453 15
GlifName: t.ike
Width: 1000
GlyphClass: 1
Flags: W
HStem: 525 100<390.166 609.834>
VStem: 100 100<225 334.535> 800 100<225 334.535>
LayerCount: 2
Fore
SplineSet
500 625 m 0
 721 625 900 446 900 225 c 1
 800 225 l 1
 800 391 666 525 500 525 c 0
 334 525 200 391 200 225 c 1
 100 225 l 1
 100 446 279 625 500 625 c 0
EndSplineSet
LCarets2: 2 -75 -75
MultipleSubs2: "CCMP cartouches" t.ike cart.body
Ligature2: "LIGA basics" i k e
EndChar

StartChar: t.ilo
Encoding: 112 989454 16
GlifName: t.ilo
Width: 1000
GlyphClass: 1
Flags: W
HStem: -0 21G<450 550> 350 100<200 450 550 800> 700 100<200 450 550 800>
VStem: 100 100<450 700> 450 100<0 350 450 700> 800 100<450 700>
CounterMasks: 1 1c
LayerCount: 2
Fore
SplineSet
550 700 m 1
 550 450 l 1
 800 450 l 1
 800 700 l 1
 550 700 l 1
200 700 m 1
 200 450 l 1
 450 450 l 1
 450 700 l 1
 200 700 l 1
100 800 m 1
 900 800 l 1
 900 350 l 1
 550 350 l 1
 550 -0 l 1
 450 -0 l 1
 450 350 l 1
 100 350 l 1
 100 800 l 1
EndSplineSet
LCarets2: 2 -75 -75
MultipleSubs2: "CCMP cartouches" t.ilo cart.body
Ligature2: "LIGA basics" i l o
EndChar

StartChar: t.insa
Encoding: 113 989455 17
GlifName: t.insa
Width: 1000
GlyphClass: 1
Flags: W
HStem: 200 100<200 800> 400 150<448.417 551.583>
VStem: 100 100<300 600> 425 150<423.417 526.583> 800 100<300 600>
CounterMasks: 1 38
LayerCount: 2
Fore
SplineSet
425 475 m 0
 425 516 459 550 500 550 c 0
 541 550 575 516 575 475 c 0
 575 434 541 400 500 400 c 0
 459 400 425 434 425 475 c 0
100 600 m 1
 200 600 l 1
 200 300 l 1
 800 300 l 1
 800 600 l 1
 900 600 l 1
 900 200 l 1
 100 200 l 1
 100 600 l 1
EndSplineSet
LCarets2: 3 -75 -75 -75
MultipleSubs2: "CCMP cartouches" t.insa cart.body
Ligature2: "LIGA basics" i n s a
EndChar

StartChar: t.jaki
Encoding: 114 989456 18
GlifName: t.jaki
Width: 1000
VWidth: 1300
GlyphClass: 1
Flags: W
HStem: -50 100<559.361 653.88> 100 100<263.348 298 426 638> 312 100<386 539.056> 375 100<75 130.632> 450 100<631.553 766.81> 725 100<340.696 593>
VStem: 150 100<212.686 300.993> 200 100<524.023 685.473> 663 100<58.88 100> 825 100<255.416 393.342>
LayerCount: 2
Fore
SplineSet
700 450 m 0xecc0
 695 450 690 449 687 449 c 2
 386 412 l 1
 450 412 l 1
 581 412 698 331 743 208 c 1
 791 226 825 271 825 325 c 0
 825 394 769 450 700 450 c 0xecc0
538 532 m 1
 677 549 l 2
 682 550 691 550 700 550 c 0
 824 550 925 449 925 325 c 0
 925 222 856 136 762 109 c 0
 762 106 763 103 763 100 c 0
 763 17 695 -50 612 -50 c 0
 572 -50 534 -34 506 -6 c 1
 577 65 l 1
 586 56 600 50 613 50 c 0
 641 50 663 72 663 100 c 1
 426 100 l 1
 450 0 l 1
 353 -24 l 1
 323 100 l 1
 306 100 l 2
 220 100 150 170 150 256 c 0xcec0
 150 311 179 362 226 390 c 1
 177 380 126 375 75 375 c 1
 75 475 l 1
 226 494 l 1
 206 577 l 2
 202 592 200 609 200 625 c 0xd5c0
 200 735 290 825 400 825 c 2
 625 825 l 1
 651 810 l 1
 738 761 l 1
 687 671 618 593 538 532 c 1
400 725 m 2
 345 725 300 680 300 625 c 0xc5c0
 300 617 301 609 303 601 c 2
 322 523 l 1
 428 565 521 635 593 725 c 1
 400 725 l 2
450 312 m 1xe4c0
 374 312 l 1
 401 200 l 1
 638 200 l 1
 601 269 528 312 450 312 c 1xe4c0
273 302 m 1
 258 291 250 274 250 256 c 0xc6c0
 250 228 270 205 298 201 c 1
 273 302 l 1
EndSplineSet
MultipleSubs2: "CCMP cartouches" t.jaki cart.body
Ligature2: "LIGA basics" j a k i
EndChar

StartChar: t.jan
Encoding: 115 989457 19
GlifName: t.jan
Width: 1000
GlyphClass: 1
Flags: W
HStem: 75 100<393.953 606.047> 725 100<395.142 604.858>
VStem: 125 100<343.411 554.858> 775 100<343.411 554.858>
LayerCount: 2
Fore
SplineSet
500 725 m 0
 348 725 225 602 225 450 c 0
 225 298 348 175 500 175 c 0
 652 175 775 298 775 450 c 0
 775 602 652 725 500 725 c 0
500 825 m 0
 707 825 875 657 875 450 c 0
 875 352 837 262 775 195 c 1
 935 35 l 1
 865 -35 l 1
 698 131 l 1
 641 95 573 75 500 75 c 0
 427 75 359 95 302 131 c 1
 135 -35 l 1
 65 35 l 1
 225 195 l 1
 163 262 125 352 125 450 c 0
 125 657 293 825 500 825 c 0
EndSplineSet
LCarets2: 2 -75 -75
MultipleSubs2: "CCMP cartouches" t.jan cart.body
Ligature2: "LIGA basics" j a n
EndChar

StartChar: t.jelo
Encoding: 116 989458 20
GlifName: t.jelo
Width: 1000
GlyphClass: 1
Flags: W
HStem: -0 100<341 659> 450 100<150 312.045 687.955 850> 600 250<450.326 549.674>
VStem: 150 250<450.326 549.674> 450 100<687.955 850> 600 250<450.326 549.674>
CounterMasks: 1 1c
LayerCount: 2
Fore
SplineSet
500 259 m 1
 341 100 l 1
 659 100 l 1
 500 259 l 1
500 600 m 0
 445 600 400 555 400 500 c 0
 400 445 445 400 500 400 c 0
 555 400 600 445 600 500 c 0
 600 555 555 600 500 600 c 0
450 850 m 1
 550 850 l 1
 550 694 l 1
 620 676 676 620 694 550 c 1
 850 550 l 1
 850 450 l 1
 694 450 l 1
 679 391 637 343 582 318 c 1
 900 -0 l 1
 100 -0 l 1
 418 318 l 1
 363 343 321 391 306 450 c 1
 150 450 l 1
 150 550 l 1
 306 550 l 1
 324 620 380 676 450 694 c 1
 450 850 l 1
EndSplineSet
MultipleSubs2: "CCMP cartouches" t.jelo cart.body
Ligature2: "LIGA basics" j e l o
EndChar

StartChar: t.jo
Encoding: 117 989459 21
GlifName: t.jo
Width: 1000
GlyphClass: 1
Flags: W
HStem: -25 100<405.528 596.412> 200 100<500 702> 375 100<430.581 568.342> 725 100<431.658 568.342>
VStem: 175 100<205.528 395.374> 275 100<536.509 668.342> 625 100<531.658 668.342>
LayerCount: 2
Fore
SplineSet
500 200 m 1xfa
 500 300 l 1
 725 300 l 1
 825 300 l 1
 825 121 679 -25 500 -25 c 0
 321 -25 175 121 175 300 c 0xfa
 175 396 217 483 283 542 c 1
 278 561 275 580 275 600 c 0xf6
 275 724 376 825 500 825 c 0
 624 825 725 724 725 600 c 0
 725 476 624 375 500 375 c 0
 433 375 373 404 332 450 c 1
 296 410 275 358 275 300 c 0
 275 176 376 75 500 75 c 0
 588 75 665 126 702 200 c 1
 500 200 l 1xfa
500 725 m 0
 431 725 375 669 375 600 c 0xf6
 375 531 431 475 500 475 c 0
 569 475 625 531 625 600 c 0
 625 669 569 725 500 725 c 0
EndSplineSet
MultipleSubs2: "CCMP cartouches" t.jo cart.body
Ligature2: "LIGA basics" j o
EndChar

StartChar: t.kala
Encoding: 118 989460 22
GlifName: t.kala
Width: 1000
GlyphClass: 1
Flags: W
HStem: 125 100<529.513 752.06> 575 100<529.513 752.06>
VStem: 75 100<124.37 224.593 575.407 675.63> 850 100<317.304 482.696>
LayerCount: 2
Fore
SplineSet
661 575 m 0
 551 575 428 527 336 443 c 0
 321 430 307 415 294 400 c 1
 307 385 321 370 336 357 c 0
 428 273 551 225 661 225 c 0
 771 225 850 303 850 400 c 0
 850 497 771 575 661 575 c 0
175 684 m 1
 181 614 202 546 236 485 c 1
 246 496 257 507 268 517 c 0
 378 618 526 675 676 675 c 0
 826 675 950 552 950 400 c 0
 950 248 826 125 676 125 c 0
 526 125 378 182 268 283 c 0
 257 293 246 304 236 315 c 1
 202 254 181 186 175 116 c 1
 75 125 l 1
 84 223 117 318 170 400 c 1
 117 482 84 577 75 675 c 1
 175 684 l 1
EndSplineSet
MultipleSubs2: "CCMP cartouches" t.kala cart.body
Ligature2: "LIGA basics" k a l a
EndChar

StartChar: t.kalama
Encoding: 119 989461 23
GlifName: t.kalama
Width: 1000
GlyphClass: 1
Flags: W
HStem: 25 100<401.665 598.335> 325 100<255 745>
VStem: 450 100<575 825>
LayerCount: 2
Fore
SplineSet
450 575 m 1
 450 825 l 1
 550 825 l 1
 550 575 l 1
 450 575 l 1
606 559 m 1
 741 769 l 1
 825 715 l 1
 690 505 l 1
 606 559 l 1
394 559 m 1
 310 505 l 1
 175 715 l 1
 259 769 l 1
 394 559 l 1
150 425 m 1
 850 425 l 1
 850 375 l 2
 850 182 693 25 500 25 c 0
 307 25 150 182 150 375 c 2
 150 425 l 1
255 325 m 1
 278 211 379 125 500 125 c 0
 621 125 722 211 745 325 c 1
 255 325 l 1
EndSplineSet
LCarets2: 5 0 0 0 0 0
MultipleSubs2: "CCMP cartouches" t.kalama cart.body
Ligature2: "LIGA basics" k a l a m a
EndChar

StartChar: t.kama
Encoding: 120 989462 24
GlifName: t.kama
Width: 1000
GlyphClass: 1
Flags: W
HStem: -12 21G<323.75 380.64 617.258 676.429> 780 20G<494.374 608.943>
LayerCount: 2
Fore
SplineSet
600 800 m 1
 913 100 l 1
 625 -12 l 1
 589 81 l 1
 778 155 l 1
 560 644 l 1
 375 -12 l 1
 88 100 l 1
 124 193 l 1
 309 121 l 1
 500 800 l 1
 600 800 l 1
EndSplineSet
MultipleSubs2: "CCMP cartouches" t.kama cart.body
Ligature2: "LIGA basics" k a m a
EndChar

StartChar: t.kasi
Encoding: 121 989463 25
GlifName: t.kasi
Width: 1000
GlyphClass: 1
Flags: W
HStem: 0 21G<450 550> 300 100<340.465 450 550 659.535> 700 100<150 258.828 741.172 850>
VStem: 50 100<590.465 700> 450 100<0 300 400 510.132> 850 100<590.465 700>
CounterMasks: 1 1c
LayerCount: 2
Fore
SplineSet
850 700 m 1
 684 700 550 566 550 400 c 1
 716 400 850 534 850 700 c 1
150 700 m 1
 150 534 284 400 450 400 c 1
 450 566 316 700 150 700 c 1
50 800 m 1
 50 800 94 800 124 800 c 0
 139 800 150 800 150 800 c 0
 301 800 432 717 500 594 c 1
 568 717 699 800 850 800 c 2
 950 800 l 1
 950 700 l 2
 950 479 771 300 550 300 c 1
 550 0 l 1
 450 0 l 1
 450 300 l 1
 229 300 50 479 50 700 c 2
 50 800 l 1
EndSplineSet
LCarets2: 3 -75 -75 -75
MultipleSubs2: "CCMP cartouches" t.kasi cart.body
Ligature2: "LIGA basics" k a s i
EndChar

StartChar: t.ken
Encoding: 122 989464 26
GlifName: t.ken
Width: 1000
GlyphClass: 1
Flags: W
HStem: 0 21G<200 300 700 800> 350 100<300 510.132> 780 20G<200 300 700 800>
VStem: 200 100<0 350 450 800> 700 100<0 156.438 639.868 800>
LayerCount: 2
Fore
SplineSet
700 800 m 1
 800 800 l 1
 800 800 800 785 800 770 c 2
 800 750 l 2
 800 604 721 470 594 400 c 1
 721 330 800 196 800 50 c 0
 800 36 800 23 800 9 c 0
 800 6 800 3 800 0 c 1
 700 0 l 2
 700 6 700 11 700 17 c 0
 700 28 700 39 700 50 c 0
 700 215 566 349 401 350 c 2
 300 350 l 1
 300 0 l 1
 200 0 l 1
 200 800 l 1
 300 800 l 1
 300 450 l 1
 400 450 l 2
 566 450 700 584 700 750 c 0
 700 767 700 800 700 800 c 1
EndSplineSet
LCarets2: 2 -75 -75
MultipleSubs2: "CCMP cartouches" t.ken cart.body
Ligature2: "LIGA basics" k e n
EndChar

StartChar: t.kepeken
Encoding: 123 989465 27
GlifName: t.kepeken
Width: 1000
GlyphClass: 1
Flags: W
HStem: 0 21G<255 375 725 825> 450 100<313 488 588 763> 725 100<313 488 588 763>
VStem: 212 101<550 725> 488 100<393.837 450 550 725> 725 100<0 206.121> 763 99<550 725>
LayerCount: 2
Fore
SplineSet
125 150 m 1xfc
 196 221 l 1
 275 141 l 1
 282 264 371 366 488 393 c 1
 488 450 l 1
 212 450 l 1
 212 825 l 1
 862 825 l 1
 862 450 l 1xfa
 588 450 l 1
 588 397 l 1
 722 379 825 264 825 125 c 2
 825 0 l 1
 725 0 l 1
 725 125 l 2
 725 222 647 300 550 300 c 0
 453 300 375 222 375 125 c 2
 375 0 l 1
 275 0 l 1
 125 150 l 1xfc
588 725 m 1
 588 550 l 1
 763 550 l 1
 763 725 l 1
 588 725 l 1
313 725 m 1
 313 550 l 1
 488 550 l 1
 488 725 l 1
 313 725 l 1
EndSplineSet
MultipleSubs2: "CCMP cartouches" t.kepeken cart.body
Ligature2: "LIGA basics" k e p e k e n
EndChar

StartChar: t.kili
Encoding: 124 989466 28
GlifName: t.kili
Width: 1000
GlyphClass: 1
Flags: W
HStem: 25 100<385.258 615.18> 588 100<241.804 385.25 614.347 760.431>
VStem: 75 100<336.03 522.061> 450 100<450 522.785 644 775> 825 100<332.984 522.369>
CounterMasks: 1 38
LayerCount: 2
Fore
SplineSet
450 775 m 1
 550 775 l 1
 550 644 l 1
 590 672 640 688 689 688 c 0
 714 688 740 683 764 675 c 0
 849 647 914 566 923 477 c 0
 924 466 925 456 925 445 c 0
 925 376 907 307 874 247 c 0
 812 132 695 49 565 30 c 0
 544 27 522 25 501 25 c 0
 401 25 302 60 226 125 c 0
 131 204 74 327 75 450 c 0
 75 463 76 476 78 489 c 0
 92 579 162 656 250 679 c 0
 270 685 290 688 311 688 c 0
 360 688 410 672 450 644 c 1
 450 775 l 1
307 588 m 0
 299 588 292 587 285 585 c 0
 223 573 174 513 175 450 c 0
 174 361 213 273 279 212 c 0
 338 156 419 125 501 125 c 0
 528 125 555 128 581 135 c 0
 694 163 787 256 815 369 c 0
 821 393 825 419 825 445 c 0
 825 467 821 489 811 510 c 0
 789 557 739 588 687 588 c 0
 678 588 669 587 660 585 c 0
 599 574 551 517 550 455 c 2
 550 450 l 1
 450 450 l 1
 450 459 l 2
 448 476 444 495 436 510 c 0
 414 557 364 588 312 588 c 0
 310 588 309 588 307 588 c 0
EndSplineSet
MultipleSubs2: "CCMP cartouches" t.kili cart.body
Ligature2: "LIGA basics" k i l i
EndChar

StartChar: t.kiwen
Encoding: 125 989467 29
GlifName: t.kiwen
Width: 1000
GlyphClass: 1
Flags: W
HStem: 0 21G<481.111 518.889> 675 100<352 648>
LayerCount: 2
Fore
SplineSet
352 675 m 1
 203 460 l 1
 500 146 l 1
 797 460 l 1
 648 675 l 1
 352 675 l 1
300 775 m 1
 700 775 l 1
 925 450 l 1
 500 0 l 1
 75 450 l 1
 300 775 l 1
EndSplineSet
MultipleSubs2: "CCMP cartouches" t.kiwen cart.body
Ligature2: "LIGA basics" k i w e n
EndChar

StartChar: t.ko
Encoding: 126 989468 30
GlifName: t.ko
Width: 1000
VWidth: 1300
GlyphClass: 1
Flags: W
HStem: -25 100<504.297 619.093> 50 99<205.453 318.769> 212 100<743 805.597> 488 99<743 805.597> 651 99<205.453 318.769> 726 99<505.547 618.505>
VStem: 75 99<180.168 293.943 505.653 619.378> 651 99<105.668 212.413 587.587 694.093> 838 100<343.122 456.832>
LayerCount: 2
Fore
SplineSet
938 400 m 0x3780
 938 297 853 212 750 212 c 0
 748 212 745 213 743 213 c 1
 747 197 750 179 750 162 c 0
 750 59 665 -25 562 -25 c 0xb780
 481 -25 414 26 387 97 c 1
 354 68 310 50 262 50 c 0
 159 50 75 134 75 237 c 0
 75 307 113 368 169 400 c 1
 113 432 75 492 75 562 c 0
 75 665 159 750 262 750 c 0x7b80
 310 750 354 732 387 703 c 1
 414 774 482 825 563 825 c 0
 666 825 750 740 750 637 c 0
 750 620 747 603 743 587 c 1
 745 587 748 587 750 587 c 0
 853 587 938 503 938 400 c 0x3780
838 400 m 0
 838 450 800 488 750 488 c 0
 750 488 748 488 746 488 c 0
 745 488 744 488 743 488 c 0
 688 488 644 532 644 587 c 0
 644 596 645 606 647 614 c 0
 649 622 651 629 651 637 c 0
 651 687 613 726 563 726 c 2
 562 726 l 2xb780
 525 726 493 703 480 668 c 0
 466 630 430 603 387 603 c 0
 362 603 339 612 321 628 c 0
 305 642 285 651 263 651 c 0
 213 651 174 613 174 563 c 0
 174 531 192 502 219 486 c 0
 249 469 269 437 269 400 c 0
 269 363 249 331 219 314 c 0
 192 298 174 269 174 237 c 0
 174 187 213 149 263 149 c 0x7b80
 285 149 305 158 321 172 c 0
 339 188 362 197 387 197 c 0
 430 197 466 170 480 132 c 0
 493 97 525 75 562 75 c 0
 612 75 651 113 651 163 c 0
 651 171 649 178 647 186 c 0
 645 194 644 204 644 213 c 0
 644 268 688 312 743 312 c 0
 744 312 746 312 747 312 c 0
 748 312 749 312 750 312 c 0
 800 312 838 350 838 400 c 0
EndSplineSet
LCarets2: 1 -75
MultipleSubs2: "CCMP cartouches" t.ko cart.body
Ligature2: "LIGA basics" k o
EndChar

StartChar: t.kon
Encoding: 127 989469 31
GlifName: t.kon
Width: 1000
GlyphClass: 1
Flags: W
HStem: -25 100<228 302.316 578 652.316> 725 100<347.684 422 697.684 772>
VStem: 172 100<496.591 651.083> 378 100<148.917 303.409> 522 100<496.591 651.083> 728 100<148.917 303.409>
LayerCount: 2
Fore
SplineSet
772 725 m 1
 689 725 622 658 622 575 c 0
 622 520 651 470 699 444 c 0
 779 400 828 316 828 225 c 0
 828 87 716 -25 578 -25 c 1
 578 75 l 1
 661 75 728 142 728 225 c 0
 728 280 699 330 651 356 c 0
 571 400 522 484 522 575 c 0
 522 713 634 825 772 825 c 1
 772 725 l 1
228 75 m 1
 311 75 378 142 378 225 c 0
 378 280 349 330 301 356 c 0
 221 400 172 484 172 575 c 0
 172 713 284 825 422 825 c 1
 422 725 l 1
 339 725 272 658 272 575 c 0
 272 520 301 470 349 444 c 0
 429 400 478 316 478 225 c 0
 478 87 366 -25 228 -25 c 1
 228 75 l 1
EndSplineSet
LCarets2: 2 -75 -75
MultipleSubs2: "CCMP cartouches" t.kon cart.body
Ligature2: "LIGA basics" k o n
EndChar

StartChar: t.kule
Encoding: 128 989470 32
GlifName: t.kule
Width: 1000
GlyphClass: 1
Flags: W
HStem: 0 100<237 763> 288 112<100 219 387 613 781 900>
LayerCount: 2
Fore
SplineSet
100 288 m 1
 100 400 l 1
 275 400 l 1
 500 850 l 1
 725 400 l 1
 900 400 l 1
 900 288 l 1
 781 288 l 1
 925 0 l 1
 75 0 l 1
 219 288 l 1
 100 288 l 1
613 400 m 1
 500 626 l 1
 387 400 l 1
 613 400 l 1
669 288 m 1
 331 288 l 1
 237 100 l 1
 763 100 l 1
 669 288 l 1
EndSplineSet
MultipleSubs2: "CCMP cartouches" t.kule cart.body
Ligature2: "LIGA basics" k u l e
EndChar

StartChar: t.kulupu
Encoding: 129 989471 33
GlifName: t.kulupu
Width: 1000
GlyphClass: 1
Flags: W
HStem: -13 100<201.527 322.473 676.527 797.473> 288 100<201.527 322.473 676.527 797.473> 412 101<439.527 560.473> 713 100<439.527 560.473>
VStem: 62 100<127.289 248.473> 300 100<552.481 673.473> 362 100<127.289 248.473> 537 100<127.289 248.473> 600 100<552.481 673.473> 837 100<127.289 248.473>
LayerCount: 2
Fore
SplineSet
737 288 m 0xf940
 682 288 637 243 637 188 c 0
 637 133 682 87 737 87 c 0
 792 87 837 133 837 188 c 0
 837 243 792 288 737 288 c 0xf940
737 388 m 0
 847 388 937 298 937 188 c 0
 937 78 847 -13 737 -13 c 0
 627 -13 537 78 537 188 c 0
 537 298 627 388 737 388 c 0
262 288 m 0
 207 288 162 243 162 188 c 0
 162 133 207 87 262 87 c 0
 317 87 362 133 362 188 c 0xfa40
 362 243 317 288 262 288 c 0
262 388 m 0
 372 388 462 298 462 188 c 0
 462 78 372 -13 262 -13 c 0
 152 -13 62 78 62 188 c 0
 62 298 152 388 262 388 c 0
500 713 m 0
 445 713 400 668 400 613 c 0
 400 558 445 513 500 513 c 0
 555 513 600 558 600 613 c 0xfcc0
 600 668 555 713 500 713 c 0
500 813 m 0
 610 813 700 723 700 613 c 0
 700 503 610 412 500 412 c 0
 390 412 300 503 300 613 c 0
 300 723 390 813 500 813 c 0
EndSplineSet
LCarets2: 5 -75 -75 -75 -75 -75
MultipleSubs2: "CCMP cartouches" t.kulupu cart.body
Ligature2: "LIGA basics" k u l u p u
EndChar

StartChar: t.kute
Encoding: 130 989472 34
GlifName: t.kute
Width: 1000
GlyphClass: 1
Flags: W
HStem: 0 100<275 401.486> 530 20G<450 550> 725 100<409.912 590.088>
VStem: 200 100<525 614.328> 450 100<417.335 550> 700 100<396.146 615.088>
CounterMasks: 1 1c
LayerCount: 2
Fore
SplineSet
450 550 m 1
 450 550 494 550 524 550 c 0
 539 550 550 550 550 550 c 1
 550 455 525 367 481 290 c 1
 394 339 l 1
 429 401 450 473 450 550 c 1
500 825 m 0
 666 825 800 691 800 525 c 0
 800 235 565 0 275 0 c 1
 275 100 l 1
 510 100 700 290 700 525 c 0
 700 635 610 725 500 725 c 0
 390 725 300 635 300 525 c 1
 200 525 l 1
 200 691 334 825 500 825 c 0
EndSplineSet
MultipleSubs2: "CCMP cartouches" t.kute cart.body
Ligature2: "LIGA basics" k u t e
EndChar

StartChar: t.la
Encoding: 131 989473 35
GlifName: t.la
Width: 1000
GlyphClass: 1
Flags: W
VStem: 550 100<270.538 529.462>
LayerCount: 2
Fore
SplineSet
412 826 m 1
 555 738 650 580 650 400 c 0
 650 220 555 62 412 -26 c 1
 360 59 l 1
 474 129 550 256 550 400 c 0
 550 544 474 671 360 741 c 1
 412 826 l 1
EndSplineSet
LCarets2: 1 0
MultipleSubs2: "CCMP cartouches" t.la cart.body
Ligature2: "LIGA basics" l a
EndChar

StartChar: t.lape
Encoding: 132 989474 36
GlifName: t.lape
Width: 1000
GlyphClass: 1
Flags: W
HStem: 200 100<664.893 785.473> 350 100<75 537.179> 500 100<664.893 785.473>
VStem: 825 100<339.527 460.473>
CounterMasks: 1 e0
LayerCount: 2
Fore
SplineSet
725 600 m 0
 835 600 925 510 925 400 c 0
 925 290 835 200 725 200 c 0
 632 200 553 264 531 350 c 1
 75 350 l 1
 75 450 l 1
 531 450 l 1
 553 536 632 600 725 600 c 0
725 500 m 0
 670 500 625 455 625 400 c 0
 625 345 670 300 725 300 c 0
 780 300 825 345 825 400 c 0
 825 455 780 500 725 500 c 0
EndSplineSet
LCarets2: 3 0 0 0
MultipleSubs2: "CCMP cartouches" t.lape cart.body
Ligature2: "LIGA basics" l a p e
EndChar

StartChar: t.laso
Encoding: 133 989475 37
GlifName: t.laso
Width: 1000
GlyphClass: 1
Flags: W
HStem: 0 100<341 659> 400 100<354.289 445 555 645.711> 700 100<205 302.796 697.204 795>
VStem: 450 100<350 400>
LayerCount: 2
Fore
SplineSet
500 259 m 1
 341 100 l 1
 659 100 l 1
 500 259 l 1
795 700 m 1
 678 698 578 615 555 500 c 1
 672 502 772 585 795 700 c 1
205 700 m 1
 228 585 328 502 445 500 c 1
 422 615 322 698 205 700 c 1
200 800 m 2
 327 800 439 732 500 630 c 1
 561 732 673 800 800 800 c 2
 900 800 l 1
 900 750 l 2
 900 557 743 400 550 400 c 1
 550 350 l 1
 900 0 l 1
 100 0 l 1
 450 350 l 1
 450 400 l 1
 257 400 100 557 100 750 c 2
 100 800 l 1
 100 800 111 799 126 799 c 0
 156 799 200 800 200 800 c 2
EndSplineSet
MultipleSubs2: "CCMP cartouches" t.laso cart.body
Ligature2: "LIGA basics" l a s o
EndChar

StartChar: t.lawa
Encoding: 134 989476 38
GlifName: t.lawa
Width: 1000
GlyphClass: 1
Flags: W
HStem: 37 101<317.102 507.024> 475 100<228 597 746 925> 662 100<316.499 511.096>
VStem: 75 100<282.706 467.898> 650 100<282.706 475>
LayerCount: 2
Fore
SplineSet
750 375 m 2
 750 189 598 37 412 37 c 0
 226 37 75 189 75 375 c 2
 75 425 l 2
 75 611 226 762 412 762 c 0
 540 762 658 690 715 575 c 1
 925 575 l 1
 925 475 l 1
 746 475 l 1
 748 458 750 442 750 425 c 2
 750 375 l 2
650 375 m 2
 650 425 l 2
 650 442 649 459 645 475 c 1
 180 475 l 1
 176 459 175 442 175 425 c 2
 175 375 l 2
 175 244 281 138 412 138 c 0
 543 138 650 244 650 375 c 2
412 662 m 0
 341 662 273 630 228 575 c 1
 597 575 l 1
 552 630 483 662 412 662 c 0
EndSplineSet
MultipleSubs2: "CCMP cartouches" t.lawa cart.body
Ligature2: "LIGA basics" l a w a
EndChar

StartChar: t.len
Encoding: 135 989477 39
GlifName: t.len
Width: 1000
GlyphClass: 1
Flags: W
HStem: -0 21G<175 275 450 550 725 825> 200 100<275 450 550 725> 700 100<275 725>
VStem: 175 100<0 200 300 700> 450 100<0 200> 725 100<0 200 300 700>
CounterMasks: 1 1c
LayerCount: 2
Fore
SplineSet
275 700 m 1
 275 300 l 1
 725 300 l 1
 725 700 l 1
 275 700 l 1
175 800 m 1
 825 800 l 1
 825 -0 l 1
 725 -0 l 1
 725 200 l 1
 550 200 l 1
 550 -0 l 1
 450 -0 l 1
 450 200 l 1
 275 200 l 1
 275 -0 l 1
 175 -0 l 1
 175 800 l 1
EndSplineSet
MultipleSubs2: "CCMP cartouches" t.len cart.body
Ligature2: "LIGA basics" l e n
EndChar

StartChar: t.lete
Encoding: 136 989478 40
GlifName: t.lete
Width: 1000
GlyphClass: 1
Flags: W
HStem: 350 100<100 413 587 900>
LayerCount: 2
Fore
SplineSet
657 771 m 1
 743 721 l 1
 587 450 l 1
 900 450 l 1
 900 350 l 1
 587 350 l 1
 743 79 l 1
 657 29 l 1
 500 300 l 1
 343 29 l 1
 257 79 l 1
 413 350 l 1
 100 350 l 1
 100 450 l 1
 413 450 l 1
 257 721 l 1
 343 771 l 1
 500 500 l 1
 657 771 l 1
EndSplineSet
LCarets2: 3 -75 -75 -75
MultipleSubs2: "CCMP cartouches" t.lete cart.body
Ligature2: "LIGA basics" l e t e
EndChar

StartChar: t.li
Encoding: 137 989479 41
GlifName: t.li
Width: 1000
GlyphClass: 1
Flags: W
LayerCount: 2
Fore
SplineSet
269 825 m 1
 800 400 l 1
 269 -25 l 1
 206 53 l 1
 640 400 l 1
 206 747 l 1
 269 825 l 1
EndSplineSet
LCarets2: 1 -75
MultipleSubs2: "CCMP cartouches" t.li cart.body
Ligature2: "LIGA basics" l i
EndChar

StartChar: t.lili
Encoding: 138 989480 42
GlifName: t.lili
Width: 1000
GlyphClass: 1
Flags: W
HStem: 540 20G<328.333 368.81 631.19 671.667>
LayerCount: 2
Fore
SplineSet
355 560 m 1
 500 350 l 1
 645 560 l 1
 725 500 l 1
 500 200 l 1
 275 500 l 1
 355 560 l 1
EndSplineSet
MultipleSubs2: "CCMP cartouches" t.lili cart.body
Ligature2: "LIGA basics" l i l i
EndChar

StartChar: t.linja
Encoding: 139 989481 43
GlifName: t.linja
Width: 1000
GlyphClass: 1
Flags: W
HStem: 200 100<623.873 776.083> 500 100<223.917 376.127>
VStem: 50 100<275 424.316> 850 100<375.684 525>
LayerCount: 2
Fore
SplineSet
300 600 m 0
 392 600 478 549 521 468 c 2
 568 379 l 2
 594 330 645 300 700 300 c 0
 783 300 850 367 850 450 c 2
 850 525 l 1
 950 525 l 1
 950 450 l 2
 950 312 838 200 700 200 c 0
 608 200 522 251 479 332 c 2
 432 421 l 2
 406 470 355 500 300 500 c 0
 217 500 150 433 150 350 c 2
 150 275 l 1
 50 275 l 1
 50 350 l 2
 50 488 162 600 300 600 c 0
EndSplineSet
LCarets2: 4 -75 -75 -75 -75
MultipleSubs2: "CCMP cartouches" t.linja cart.body
Ligature2: "LIGA basics" l i n j a
EndChar

StartChar: t.lipu
Encoding: 140 989482 44
GlifName: t.lipu
Width: 1000
GlyphClass: 1
Flags: W
HStem: -0 100<275 725> 700 100<275 725>
VStem: 175 100<100 700> 725 100<100 700>
LayerCount: 2
Fore
SplineSet
275 700 m 1
 275 100 l 1
 725 100 l 1
 725 700 l 1
 275 700 l 1
175 800 m 1
 825 800 l 1
 825 -0 l 1
 175 -0 l 1
 175 800 l 1
EndSplineSet
LCarets2: 3 -75 -75 -75
MultipleSubs2: "CCMP cartouches" t.lipu cart.body
Ligature2: "LIGA basics" l i p u
EndChar

StartChar: t.loje
Encoding: 141 989483 45
GlifName: t.loje
Width: 1000
GlyphClass: 1
Flags: W
HStem: -0 100<377 623> 700 100<300 700>
VStem: 200 100<614.597 700> 700 100<614.597 700>
LayerCount: 2
Fore
SplineSet
500 306 m 1
 377 100 l 1
 623 100 l 1
 500 306 l 1
300 700 m 1
 300 590 390 500 500 500 c 0
 610 500 700 590 700 700 c 1
 300 700 l 1
200 800 m 1
 800 800 l 1
 800 700 l 2
 800 554 695 432 557 405 c 1
 800 -0 l 1
 200 -0 l 1
 443 405 l 1
 305 432 200 554 200 700 c 2
 200 800 l 1
EndSplineSet
LCarets2: 3 -75 -75 -75
MultipleSubs2: "CCMP cartouches" t.loje cart.body
Ligature2: "LIGA basics" l o j e
EndChar

StartChar: t.lon
Encoding: 142 989484 46
GlifName: t.lon
Width: 1000
GlyphClass: 1
Flags: W
HStem: 200 100<100 900> 425 150<448.417 551.583>
VStem: 425 150<448.417 551.583>
LayerCount: 2
Fore
SplineSet
425 500 m 0
 425 541 459 575 500 575 c 0
 541 575 575 541 575 500 c 0
 575 459 541 425 500 425 c 0
 459 425 425 459 425 500 c 0
100 200 m 1
 100 300 l 1
 900 300 l 1
 900 200 l 1
 100 200 l 1
EndSplineSet
LCarets2: 2 -75 -75
MultipleSubs2: "CCMP cartouches" t.lon cart.body
Ligature2: "LIGA basics" l o n
EndChar

StartChar: t.luka
Encoding: 143 989485 47
GlifName: t.luka
Width: 1000
GlyphClass: 1
Flags: W
HStem: 0 21G<286.154 400 800 900> 725 100<509.912 690.088>
VStem: 300 100<175 614.328> 800 100<0 614.328>
LayerCount: 2
Fore
SplineSet
600 825 m 0
 766 825 900 691 900 525 c 2
 900 0 l 1
 800 0 l 1
 800 525 l 2
 800 635 710 725 600 725 c 0
 490 725 400 635 400 525 c 2
 400 0 l 1
 300 0 l 1
 75 325 l 1
 157 382 l 1
 300 175 l 1
 300 525 l 2
 300 691 434 825 600 825 c 0
EndSplineSet
LCarets2: 3 -75 -75 -75
MultipleSubs2: "CCMP cartouches" t.luka cart.body
Ligature2: "LIGA basics" l u k a
EndChar

StartChar: t.lukin
Encoding: 144 989486 48
GlifName: t.lukin
Width: 1000
GlyphClass: 1
Flags: W
HStem: 150 100<372.42 627.58> 325 150<448.417 551.583> 550 100<372.42 627.58>
VStem: 425 150<348.417 451.583>
CounterMasks: 1 e0
LayerCount: 2
Fore
SplineSet
500 550 m 0
 374 550 261 492 188 400 c 1
 261 308 374 250 500 250 c 0
 626 250 739 308 812 400 c 1
 739 492 626 550 500 550 c 0
500 650 m 0
 685 650 847 550 933 400 c 1
 847 250 685 150 500 150 c 0
 315 150 153 250 67 400 c 1
 153 550 315 650 500 650 c 0
425 400 m 0
 425 441 459 475 500 475 c 0
 541 475 575 441 575 400 c 0
 575 359 541 325 500 325 c 0
 459 325 425 359 425 400 c 0
EndSplineSet
LCarets2: 4 -75 -75 -75 -75
MultipleSubs2: "CCMP cartouches" t.lukin cart.body
Ligature2: "LIGA basics" l u k i n
EndChar

StartChar: t.lupa
Encoding: 145 989487 49
GlifName: t.lupa
Width: 1000
GlyphClass: 1
Flags: W
HStem: -25 100<405.528 594.472> 780 20G<175 275 725 825>
VStem: 175 100<207.518 800> 725 100<207.518 800>
LayerCount: 2
Fore
SplineSet
500 -25 m 0
 321 -25 175 121 175 300 c 2
 175 800 l 1
 275 800 l 1
 275 300 l 2
 275 176 376 75 500 75 c 0
 624 75 725 176 725 300 c 2
 725 800 l 1
 825 800 l 1
 825 300 l 2
 825 121 679 -25 500 -25 c 0
EndSplineSet
LCarets2: 3 -75 -75 -75
MultipleSubs2: "CCMP cartouches" t.lupa cart.body
Ligature2: "LIGA basics" l u p a
EndChar

StartChar: t.ma
Encoding: 146 989488 50
GlifName: t.ma
Width: 1000
GlyphClass: 1
Flags: W
HStem: -25 104<383.552 450 550 616.448> 350 100<179 450 550 821> 721 104<383.552 450 550 616.448>
VStem: 75 104<283.552 350 450 516.448> 450 100<79 350 450 721> 821 104<283.552 350 450 516.448>
CounterMasks: 1 fc
LayerCount: 2
Fore
SplineSet
550 350 m 1
 550 350 550 229 550 149 c 0
 550 109 550 79 550 79 c 1
 689 101 799 211 821 350 c 1
 550 350 l 1
179 350 m 1
 201 211 311 101 450 79 c 1
 450 350 l 1
 179 350 l 1
550 721 m 1
 550 450 l 1
 550 450 671 450 751 450 c 0
 791 450 821 450 821 450 c 1
 799 589 689 699 550 721 c 1
450 721 m 1
 311 699 201 589 179 450 c 1
 450 450 l 1
 450 721 l 1
500 825 m 0
 735 825 925 635 925 400 c 0
 925 165 735 -25 500 -25 c 0
 265 -25 75 165 75 400 c 0
 75 635 265 825 500 825 c 0
EndSplineSet
LCarets2: 1 -75
MultipleSubs2: "CCMP cartouches" t.ma cart.body
Ligature2: "LIGA basics" m a
EndChar

StartChar: t.mama
Encoding: 147 989489 51
GlifName: t.mama
Width: 1000
GlyphClass: 1
Flags: W
HStem: -50 100<458.659 541.341> 150 100<461.944 538.056> 750 100<403.504 596.496>
VStem: 150 100<401.751 596.496> 350 100<58.6588 141.06> 550 100<58.6588 141.06> 750 100<401.751 596.496>
LayerCount: 2
Fore
SplineSet
500 750 m 0
 362 750 250 638 250 500 c 0
 250 362 362 250 500 250 c 0
 638 250 750 362 750 500 c 0
 750 638 638 750 500 750 c 0
500 850 m 0
 693 850 850 693 850 500 c 0
 850 353 759 227 630 175 c 1
 643 153 650 127 650 100 c 0
 650 17 583 -50 500 -50 c 0
 417 -50 350 17 350 100 c 0
 350 127 357 153 370 175 c 1
 241 227 150 353 150 500 c 0
 150 693 307 850 500 850 c 0
500 150 m 0
 472 150 450 128 450 100 c 0
 450 72 472 50 500 50 c 0
 528 50 550 72 550 100 c 0
 550 128 528 150 500 150 c 0
EndSplineSet
LCarets2: 3 0 0 0
MultipleSubs2: "CCMP cartouches" t.mama cart.body
Ligature2: "LIGA basics" m a m a
EndChar

StartChar: t.mani
Encoding: 148 989490 52
GlifName: t.mani
Width: 1000
GlyphClass: 1
Flags: W
HStem: 0 100<403.504 596.496> 600 100<400.05 599.95>
VStem: 50 100<661.228 750> 150 100<253.504 449.213> 750 100<253.504 449.213> 850 100<661.668 750>
LayerCount: 2
Fore
SplineSet
50 750 m 1xe0
 150 750 l 1
 150 681 185 620 239 584 c 1
 303 655 396 700 500 700 c 0
 604 700 697 655 761 583 c 1
 816 619 850 682 850 750 c 1
 950 750 l 1xe4
 950 647 897 554 816 500 c 1
 838 454 850 404 850 350 c 0
 850 157 693 0 500 0 c 0
 307 0 150 157 150 350 c 0xd8
 150 404 162 454 184 500 c 1
 103 554 50 646 50 750 c 1xe0
500 600 m 0
 362 600 250 488 250 350 c 0
 250 212 362 100 500 100 c 0
 638 100 750 212 750 350 c 0xd8
 750 488 638 600 500 600 c 0
EndSplineSet
LCarets2: 3 -75 -75 -75
MultipleSubs2: "CCMP cartouches" t.mani cart.body
Ligature2: "LIGA basics" m a n i
EndChar

StartChar: t.meli
Encoding: 149 989491 53
GlifName: t.meli
Width: 1000
GlyphClass: 1
Flags: W
HStem: 78 100<300 450 550 700> 257 96<411.02 450 550 588.98> 753 100<409.912 590.088>
VStem: 200 100<464.092 643.088> 450 100<-47 78 178 261.02> 700 100<464.092 643.088>
CounterMasks: 1 1c
LayerCount: 2
Fore
SplineSet
500 753 m 0
 390 753 300 663 300 553 c 0
 300 443 390 353 500 353 c 0
 610 353 700 443 700 553 c 0
 700 663 610 753 500 753 c 0
500 853 m 0
 666 853 800 719 800 553 c 0
 800 404 692 281 550 257 c 1
 550 178 l 1
 700 178 l 1
 700 78 l 1
 550 78 l 1
 550 -47 l 1
 450 -47 l 1
 450 78 l 1
 300 78 l 1
 300 178 l 1
 450 178 l 1
 450 257 l 1
 308 281 200 404 200 553 c 0
 200 719 334 853 500 853 c 0
EndSplineSet
LCarets2: 3 -75 -75 -75
MultipleSubs2: "CCMP cartouches" t.meli cart.body
Ligature2: "LIGA basics" m e l i
EndChar

StartChar: t.mi
Encoding: 150 989492 54
GlifName: t.mi
Width: 1000
GlyphClass: 1
Flags: W
HStem: -13 21G<450 550.378> 350 100<430.143 568.342> 700 100<431.658 568.342>
VStem: 275 100<508.845 643.342> 625 100<506.658 643.342>
LayerCount: 2
Fore
SplineSet
625 575 m 0
 625 644 569 700 500 700 c 0
 431 700 375 644 375 575 c 0
 375 506 431 450 500 450 c 0
 569 450 625 506 625 575 c 0
725 575 m 0
 725 451 624 350 500 350 c 0
 466 350 434 358 405 371 c 1
 441 253 508 146 600 61 c 1
 532 -13 l 1
 368 138 275 352 275 575 c 0
 275 699 376 800 500 800 c 0
 624 800 725 699 725 575 c 0
EndSplineSet
MultipleSubs2: "CCMP cartouches" t.mi cart.body
Ligature2: "LIGA basics" m i
EndChar

StartChar: t.mije
Encoding: 151 989493 55
GlifName: t.mije
Width: 1000
GlyphClass: 1
Flags: W
HStem: -22 100<284.912 465.088> 478 100<284.912 465.551> 703 100<550 738>
VStem: 75 100<187.912 368.088> 575 100<187.912 368.551> 800 100<453 641>
LayerCount: 2
Fore
SplineSet
375 478 m 0
 265 478 175 388 175 278 c 0
 175 168 265 78 375 78 c 0
 485 78 575 168 575 278 c 0
 575 388 485 478 375 478 c 0
619 452 m 1
 654 403 675 343 675 278 c 0
 675 112 541 -22 375 -22 c 0
 209 -22 75 112 75 278 c 0
 75 444 209 578 375 578 c 0
 440 578 500 557 549 522 c 1
 738 703 l 1
 550 703 l 1
 550 803 l 1
 900 803 l 1
 900 453 l 1
 800 453 l 1
 800 641 l 1
 619 452 l 1
EndSplineSet
LCarets2: 3 -75 -75 -75
MultipleSubs2: "CCMP cartouches" t.mije cart.body
Ligature2: "LIGA basics" m i j e
EndChar

StartChar: t.moku
Encoding: 152 989494 56
GlifName: t.moku
Width: 1000
GlyphClass: 1
Flags: W
HStem: 0 21G<260 375 725 825> 350 150<467.889 632.111> 700 100<350 750>
VStem: 250 100<611.031 700> 275 100<162 258.571> 725 100<0 258.571> 750 100<611.031 700>
LayerCount: 2
Fore
SplineSet
250 800 m 1xf0
 850 800 l 1
 850 800 850 756 850 726 c 0
 850 711 850 700 850 700 c 0xf2
 850 576 774 470 667 424 c 1
 760 380 825 285 825 175 c 2
 825 0 l 1
 725 0 l 1
 725 175 l 2
 725 272 647 350 550 350 c 0
 453 350 375 272 375 175 c 2
 375 0 l 1
 275 0 l 1
 125 200 l 1
 205 260 l 1
 275 162 l 1
 275 175 l 2xec
 275 285 340 380 433 424 c 1
 326 470 250 576 250 700 c 2
 250 800 l 1xf0
350 700 m 1
 350 590 440 500 550 500 c 0
 660 500 750 590 750 700 c 1
 350 700 l 1
EndSplineSet
LCarets2: 3 -75 -75 -75
MultipleSubs2: "CCMP cartouches" t.moku cart.body
Ligature2: "LIGA basics" m o k u
EndChar

StartChar: t.moli
Encoding: 153 989495 57
GlifName: t.moli
Width: 1000
GlyphClass: 1
Flags: W
HStem: 139 95<241.789 291.317 708.683 758.211> 178 100<307.257 692.743>
LayerCount: 2
Fore
SplineSet
500 278 m 0x40
 600 278 696 263 786 234 c 1
 756 139 l 1x80
 675 165 589 178 500 178 c 0x40
 411 178 325 165 244 139 c 0
 214 234 l 1x80
 304 263 400 278 500 278 c 0x40
573 659 m 1
 644 730 l 1
 750 624 l 1
 856 730 l 1
 927 659 l 1
 821 553 l 1
 927 447 l 1
 856 376 l 1
 750 482 l 1
 644 376 l 1
 573 447 l 1
 679 553 l 1
 573 659 l 1
73 659 m 1
 144 730 l 1
 250 624 l 1
 356 730 l 1
 427 659 l 1
 321 553 l 1
 427 447 l 1
 356 376 l 1
 250 482 l 1
 144 376 l 1
 73 447 l 1
 179 553 l 1
 73 659 l 1
EndSplineSet
LCarets2: 3 -75 -75 -75
MultipleSubs2: "CCMP cartouches" t.moli cart.body
Ligature2: "LIGA basics" m o l i
EndChar

StartChar: t.monsi
Encoding: 154 989496 58
GlifName: t.monsi
Width: 1000
GlyphClass: 1
Flags: W
HStem: 3 100<525 800> 328 150<248.417 351.583> 703 100<525 800>
VStem: 225 150<351.417 454.583> 425 100<103 703>
CounterMasks: 1 e0
LayerCount: 2
Fore
SplineSet
225 403 m 0
 225 444 259 478 300 478 c 0
 341 478 375 444 375 403 c 0
 375 362 341 328 300 328 c 0
 259 328 225 362 225 403 c 0
800 803 m 1
 800 703 l 1
 525 703 l 1
 525 103 l 1
 800 103 l 1
 800 3 l 1
 425 3 l 1
 425 803 l 1
 800 803 l 1
EndSplineSet
LCarets2: 4 -75 -75 -75 -75
MultipleSubs2: "CCMP cartouches" t.monsi cart.body
Ligature2: "LIGA basics" m o n s i
EndChar

StartChar: t.mu
Encoding: 155 989497 59
GlifName: t.mu
Width: 1000
GlyphClass: 1
Flags: W
HStem: -22 100<399.381 600.619> 153 150<448.417 551.583> 603 100<443.29 556.71> 753 100<189.527 310.559 689.441 810.473>
VStem: 50 100<591.876 713.473> 138 100<240.264 444.386> 425 150<176.417 279.583> 762 100<240.264 444.386> 850 100<591.876 713.473>
LayerCount: 2
Fore
SplineSet
500 303 m 0xf2
 541 303 575 269 575 228 c 0
 575 187 541 153 500 153 c 0
 459 153 425 187 425 228 c 0
 425 269 459 303 500 303 c 0xf2
500 603 m 0
 355 603 238 486 238 341 c 0
 238 196 355 78 500 78 c 0
 645 78 762 196 762 341 c 0xf7
 762 486 645 603 500 603 c 0
750 753 m 0
 701 753 659 717 651 670 c 1
 705 645 752 608 788 561 c 1
 824 576 850 611 850 653 c 0xf280
 850 708 805 753 750 753 c 0
250 753 m 0
 195 753 150 708 150 653 c 0xfa
 150 611 176 576 212 561 c 1
 248 608 295 645 349 670 c 1
 341 717 299 753 250 753 c 0
250 853 m 0
 345 853 424 787 445 699 c 1
 463 702 481 703 500 703 c 0
 519 703 537 702 555 699 c 1
 576 787 655 853 750 853 c 0
 860 853 950 763 950 653 c 0xfa80
 950 574 904 505 837 473 c 1
 853 432 862 388 862 341 c 0
 862 141 700 -22 500 -22 c 0
 300 -22 138 141 138 341 c 0xf7
 138 388 147 432 163 473 c 1
 96 505 50 574 50 653 c 0
 50 763 140 853 250 853 c 0
EndSplineSet
LCarets2: 1 -75
MultipleSubs2: "CCMP cartouches" t.mu cart.body
Ligature2: "LIGA basics" m u
EndChar

StartChar: t.mun
Encoding: 156 989498 60
GlifName: t.mun
Width: 1000
GlyphClass: 1
Flags: W
HStem: -25 100<372.844 601.898> 725 100<372.844 601.898>
VStem: 438 100<309.813 490.187> 812 100<286.002 513.998>
LayerCount: 2
Fore
SplineSet
488 725 m 0
 432 725 377 710 331 685 c 1
 451 646 538 533 538 400 c 0
 538 267 451 154 331 115 c 1
 377 90 432 75 488 75 c 0
 667 75 812 221 812 400 c 0
 812 579 667 725 488 725 c 0
488 825 m 0
 723 825 912 635 912 400 c 0
 912 165 723 -25 488 -25 c 0
 368 -25 258 25 181 105 c 0
 135 152 101 211 81 275 c 1
 116 231 170 202 231 200 c 0
 233 200 236 200 238 200 c 0
 348 200 438 290 438 400 c 0
 438 510 348 600 238 600 c 0
 236 600 233 600 231 600 c 0
 170 598 116 569 81 525 c 1
 101 589 135 648 181 695 c 0
 258 775 368 825 488 825 c 0
EndSplineSet
MultipleSubs2: "CCMP cartouches" t.mun cart.body
Ligature2: "LIGA basics" m u n
EndChar

StartChar: t.musi
Encoding: 157 989499 61
GlifName: t.musi
Width: 1000
GlyphClass: 1
Flags: W
HStem: -50 100<395.142 604.858> 450 100<247.429 308.491 691.509 752.571> 750 100<189.527 310.473 689.527 810.473>
VStem: 50 100<588.548 710.473> 125 100<220.142 432.336> 350 100<589.884 710.473> 550 100<589.841 710.473> 775 100<220.142 432.336> 850 100<588.548 710.473>
LayerCount: 2
Fore
SplineSet
750 750 m 0xe680
 695 750 650 705 650 650 c 0
 650 595 695 550 750 550 c 0
 805 550 850 595 850 650 c 0
 850 705 805 750 750 750 c 0xe680
250 750 m 0
 195 750 150 705 150 650 c 0xf6
 150 595 195 550 250 550 c 0
 305 550 350 595 350 650 c 0
 350 705 305 750 250 750 c 0
250 850 m 2
 360 850 450 760 450 650 c 0
 450 541 363 454 255 450 c 1
 236 413 225 370 225 325 c 0
 225 173 348 50 500 50 c 0
 652 50 775 173 775 325 c 0xef
 775 370 764 413 745 450 c 1
 637 453 550 541 550 650 c 0
 550 760 640 850 750 850 c 0
 860 850 950 760 950 650 c 0xe680
 950 574 907 508 844 474 c 1
 864 429 875 378 875 325 c 2
 875 118 707 -50 500 -50 c 0
 293 -50 125 118 125 325 c 0xef
 125 378 136 429 156 474 c 1
 93 508 50 574 50 650 c 0
 50 760 140 850 250 850 c 2
EndSplineSet
MultipleSubs2: "CCMP cartouches" t.musi cart.body
Ligature2: "LIGA basics" m u s i
EndChar

StartChar: t.mute
Encoding: 158 989500 62
GlifName: t.mute
Width: 1000
GlyphClass: 1
Flags: W
HStem: 0 21G<200 300 450 550 700 800> 780 20G<200 300 450 550 700 800>
VStem: 200 100<0 800> 450 100<0 800> 700 100<0 800>
CounterMasks: 1 38
LayerCount: 2
Fore
SplineSet
700 0 m 1
 700 800 l 1
 800 800 l 1
 800 0 l 1
 700 0 l 1
200 0 m 1
 200 800 l 1
 300 800 l 1
 300 0 l 1
 200 0 l 1
450 -0 m 1
 450 800 l 1
 550 800 l 1
 550 -0 l 1
 450 -0 l 1
EndSplineSet
LCarets2: 3 -75 -75 -75
MultipleSubs2: "CCMP cartouches" t.mute cart.body
Ligature2: "LIGA basics" m u t e
EndChar

StartChar: t.nanpa
Encoding: 159 989501 63
GlifName: t.nanpa
Width: 1000
GlyphClass: 1
Flags: W
HStem: 200 100<75 300 400 600 700 925> 500 100<75 300 400 600 700 925>
VStem: 300 100<-25 200 300 500 600 825> 600 100<-25 200 300 500 600 825>
LayerCount: 2
Fore
SplineSet
700 600 m 1
 925 600 l 1
 925 500 l 1
 700 500 l 1
 700 300 l 1
 925 300 l 1
 925 200 l 1
 700 200 l 1
 700 -25 l 1
 600 -25 l 1
 600 200 l 1
 400 200 l 1
 400 -25 l 1
 300 -25 l 1
 300 200 l 1
 75 200 l 1
 75 300 l 1
 300 300 l 1
 300 500 l 1
 75 500 l 1
 75 600 l 1
 300 600 l 1
 300 825 l 1
 400 825 l 1
 400 600 l 1
 600 600 l 1
 600 825 l 1
 700 825 l 1
 700 600 l 1
600 500 m 1
 400 500 l 1
 400 300 l 1
 600 300 l 1
 600 500 l 1
EndSplineSet
LCarets2: 4 -75 -75 -75 -75
MultipleSubs2: "CCMP cartouches" t.nanpa cart.body
Ligature2: "LIGA basics" n a n p a
EndChar

StartChar: t.nasa
Encoding: 160 989502 64
GlifName: t.nasa
Width: 1000
GlyphClass: 1
Flags: W
HStem: -50 100<475.09 600> 150 100<509.912 690.088> 550 100<439.527 560.473> 750 100<390.166 609.834>
VStem: 100 100<323.382 559.834> 300 100<359.912 510.473> 600 100<387.428 510.473> 800 100<359.912 559.834>
LayerCount: 2
Fore
SplineSet
500 850 m 0
 721 850 900 671 900 450 c 0
 900 284 766 150 600 150 c 0
 434 150 300 284 300 450 c 0
 300 560 390 650 500 650 c 0
 610 650 700 560 700 450 c 0
 700 397 679 347 641 309 c 1
 571 379 l 1
 590 398 600 423 600 450 c 0
 600 505 555 550 500 550 c 0
 445 550 400 505 400 450 c 0
 400 340 490 250 600 250 c 0
 710 250 800 340 800 450 c 0
 800 616 666 750 500 750 c 0
 334 750 200 616 200 450 c 0
 200 229 379 50 600 50 c 1
 600 -50 l 1
 324 -50 100 174 100 450 c 0
 100 671 279 850 500 850 c 0
EndSplineSet
LCarets2: 3 -75 -75 -75
MultipleSubs2: "CCMP cartouches" t.nasa cart.body
Ligature2: "LIGA basics" n a s a
EndChar

StartChar: t.nasin
Encoding: 161 989503 65
GlifName: t.nasin
Width: 1000
GlyphClass: 1
Flags: W
HStem: 0 21G<450 550> 780 20G<450 550>
VStem: 450 100<0 463 600 800>
LayerCount: 2
Fore
SplineSet
450 800 m 1
 550 800 l 1
 550 600 l 1
 825 325 l 1
 750 250 l 1
 550 463 l 1
 550 0 l 1
 450 0 l 1
 450 463 l 1
 250 250 l 1
 175 325 l 1
 450 600 l 1
 450 800 l 1
EndSplineSet
MultipleSubs2: "CCMP cartouches" t.nasin cart.body
Ligature2: "LIGA basics" n a s i n
EndChar

StartChar: t.nena
Encoding: 162 989504 66
GlifName: t.nena
Width: 1000
GlyphClass: 1
Flags: W
HStem: 0 21G<175 275 725 825> 725 100<405.528 594.472>
VStem: 175 100<0 592.482> 725 100<0 592.482>
LayerCount: 2
Fore
SplineSet
500 825 m 0
 679 825 825 679 825 500 c 2
 825 0 l 1
 725 0 l 1
 725 500 l 2
 725 624 624 725 500 725 c 0
 376 725 275 624 275 500 c 2
 275 0 l 1
 175 0 l 1
 175 500 l 2
 175 679 321 825 500 825 c 0
EndSplineSet
LCarets2: 3 -75 -75 -75
MultipleSubs2: "CCMP cartouches" t.nena cart.body
Ligature2: "LIGA basics" n e n a
EndChar

StartChar: t.ni
Encoding: 163 989505 67
GlifName: t.ni
Width: 1000
GlyphClass: 1
Flags: W
HStem: -12 21G<480 520> 780 20G<450 550>
VStem: 450 100<175 800>
LayerCount: 2
Fore
SplineSet
450 800 m 1
 550 800 l 1
 550 175 l 1
 750 388 l 1
 825 313 l 1
 500 -12 l 1
 175 313 l 1
 250 388 l 1
 450 175 l 1
 450 800 l 1
EndSplineSet
Ligature2: "LIGA alternates" t.ni zero one
MultipleSubs2: "CCMP cartouches" t.ni cart.body
Ligature2: "LIGA basics" n i
EndChar

StartChar: t.nimi
Encoding: 164 989506 68
GlifName: t.nimi
Width: 1000
GlyphClass: 1
Flags: W
HStem: 188 99<183.88 816.12> 513 100<183.88 816.12>
VStem: 75 100<295.959 504.12> 825 100<295.959 504.12>
LayerCount: 2
Fore
SplineSet
225 513 m 2
 197 513 175 491 175 463 c 2
 175 337 l 2
 175 309 197 287 225 287 c 2
 775 287 l 2
 803 287 825 309 825 337 c 2
 825 463 l 2
 825 491 803 513 775 513 c 2
 225 513 l 2
225 613 m 2
 775 613 l 2
 858 613 925 546 925 463 c 2
 925 337 l 2
 925 254 858 188 775 188 c 2
 225 188 l 2
 142 188 75 254 75 337 c 2
 75 463 l 2
 75 546 142 613 225 613 c 2
EndSplineSet
LCarets2: 3 -75 -75 -75
MultipleSubs2: "CCMP cartouches" t.nimi cart.body
Ligature2: "LIGA basics" n i m i
EndChar

StartChar: t.noka
Encoding: 165 989507 69
GlifName: t.noka
Width: 1000
GlyphClass: 1
Flags: W
HStem: -0 100<275 716.81> 350 100<550 716.81> 780 20G<175 275 450 550>
VStem: 175 100<100 800> 450 100<450 800> 775 100<156.658 293.342>
LayerCount: 2
Fore
SplineSet
175 800 m 1
 275 800 l 1
 275 100 l 1
 650 100 l 2
 719 100 775 156 775 225 c 0
 775 294 719 350 650 350 c 2
 450 350 l 1
 450 800 l 1
 550 800 l 1
 550 450 l 1
 650 450 l 2
 774 450 875 349 875 225 c 0
 875 101 774 -0 650 -0 c 2
 175 -0 l 1
 175 800 l 1
EndSplineSet
LCarets2: 3 -75 -75 -75
MultipleSubs2: "CCMP cartouches" t.noka cart.body
Ligature2: "LIGA basics" n o k a
EndChar

StartChar: t.o
Encoding: 166 989508 70
GlifName: t.o
Width: 1000
GlyphClass: 1
Flags: W
HStem: -25 100<439.527 560.473> 275 100<439.527 560.473>
VStem: 300 100<114.527 235.473> 450 100<450 825> 600 100<114.527 235.473>
CounterMasks: 1 38
LayerCount: 2
Fore
SplineSet
500 275 m 0
 445 275 400 230 400 175 c 0
 400 120 445 75 500 75 c 0
 555 75 600 120 600 175 c 0
 600 230 555 275 500 275 c 0
500 375 m 0
 610 375 700 285 700 175 c 0
 700 65 610 -25 500 -25 c 0
 390 -25 300 65 300 175 c 0
 300 285 390 375 500 375 c 0
450 450 m 1
 450 825 l 1
 550 825 l 1
 550 450 l 1
 450 450 l 1
EndSplineSet
MultipleSubs2: "CCMP cartouches" t.o cart.body
Ligature2: "LIGA basics" o
EndChar

StartChar: t.olin
Encoding: 167 989509 71
GlifName: t.olin
Width: 1000
GlyphClass: 1
Flags: W
HStem: 312 100<337.105 445.594 550.999 659.713> 762 100<337.105 445.594 550.999 659.713>
VStem: 223 100<195.738 298.09 645.738 748.09> 673 100<195.625 298.552 646.917 748.552>
LayerCount: 2
Fore
SplineSet
386 312 m 0
 349 312 323 287 323 250 c 0
 323 241 324 212 355 186 c 2
 498 62 l 1
 641 186 l 2
 660 202 673 224 673 250 c 0
 673 287 649 312 611 312 c 0
 549 312 523 263 498 213 c 1
 473 263 448 312 386 312 c 0
386 412 m 0
 430 412 473 388 498 350 c 1
 523 387 567 412 611 412 c 0
 701 412 773 340 773 250 c 0
 773 199 750 154 713 124 c 2
 498 -50 l 1
 284 124 l 2
 247 154 223 199 223 250 c 0
 223 340 296 412 386 412 c 0
386 762 m 0
 349 762 323 737 323 700 c 0
 323 691 324 662 355 636 c 2
 498 512 l 1
 641 636 l 2
 660 653 673 675 673 700 c 0
 673 737 649 762 611 762 c 0
 549 762 523 713 498 663 c 1
 473 713 448 762 386 762 c 0
386 862 m 0
 430 862 473 837 498 800 c 1
 523 837 567 862 611 862 c 0
 701 862 773 790 773 700 c 0
 773 649 750 604 713 574 c 2
 498 400 l 1
 284 574 l 2
 247 604 223 649 223 700 c 0
 223 790 296 862 386 862 c 0
EndSplineSet
MultipleSubs2: "CCMP cartouches" t.olin cart.body
LCarets2: 3 -73 -73 -73
Ligature2: "LIGA basics" o l i n
EndChar

StartChar: t.ona
Encoding: 168 989510 72
GlifName: t.ona
Width: 1000
GlyphClass: 1
Flags: W
HStem: 175 100<620.857 755.5> 525 100<618.658 755.5>
VStem: 462 100<330.143 468.342> 813 99<331.658 468.342>
LayerCount: 2
Fore
SplineSet
687 525 m 0
 618 525 562 469 562 400 c 0
 562 331 618 275 687 275 c 0
 756 275 813 331 813 400 c 0
 813 469 756 525 687 525 c 0
687 625 m 0
 811 625 912 524 912 400 c 0
 912 276 811 175 687 175 c 0
 464 175 251 268 100 432 c 1
 173 500 l 1
 258 408 365 341 483 305 c 1
 470 334 462 366 462 400 c 0
 462 524 563 625 687 625 c 0
EndSplineSet
MultipleSubs2: "CCMP cartouches" t.ona cart.body
Ligature2: "LIGA basics" o n a
EndChar

StartChar: t.open
Encoding: 169 989511 73
GlifName: t.open
Width: 1000
GlyphClass: 1
Flags: W
HStem: 0 100<275 725> 250 100<275 725> 780 20G<175 275 725 825>
VStem: 175 100<100 250 350 800> 725 100<100 250 350 800>
LayerCount: 2
Fore
SplineSet
175 800 m 1
 275 800 l 1
 275 650 275 500 275 350 c 1
 725 350 l 1
 725 500 725 650 725 800 c 1
 825 800 l 1
 825 0 l 1
 175 0 l 1
 175 800 l 1
275 250 m 1
 275 200 275 150 275 100 c 1
 725 100 l 1
 725 150 725 200 725 250 c 1
 275 250 l 1
EndSplineSet
LCarets2: 3 -75 -75 -75
MultipleSubs2: "CCMP cartouches" t.open cart.body
Ligature2: "LIGA basics" o p e n
EndChar

StartChar: t.pakala
Encoding: 170 989512 74
GlifName: t.pakala
Width: 1000
GlyphClass: 1
Flags: W
HStem: -0 100<250 385 500 750> 350 100<472 528> 700 100<250 500 615 750>
VStem: 150 100<100 700> 750 100<100 700>
CounterMasks: 1 e0
LayerCount: 2
Fore
SplineSet
615 700 m 1
 472 450 l 1
 700 450 l 1
 500 100 l 1
 750 100 l 1
 750 700 l 1
 615 700 l 1
250 700 m 1
 250 100 l 1
 385 100 l 1
 528 350 l 1
 300 350 l 1
 500 700 l 1
 250 700 l 1
150 800 m 1
 850 800 l 1
 850 -0 l 1
 150 -0 l 1
 150 800 l 1
EndSplineSet
LCarets2: 5 -75 -75 -75 -75 -75
MultipleSubs2: "CCMP cartouches" t.pakala cart.body
Ligature2: "LIGA basics" p a k a l a
EndChar

StartChar: t.pali
Encoding: 171 989513 75
GlifName: t.pali
Width: 1000
GlyphClass: 1
Flags: W
HStem: 0 21G<260 375 725 825> 325 125<477.831 622.169> 725 100<477.553 622.447>
VStem: 312 100<514.175 660.254> 688 100<514.175 660.254> 725 100<0 233.571>
LayerCount: 2
Fore
SplineSet
550 725 m 0xf8
 474 725 412 664 412 588 c 0
 412 512 474 450 550 450 c 0
 626 450 688 512 688 588 c 0
 688 664 626 725 550 725 c 0xf8
550 825 m 0
 681 825 788 719 788 588 c 0xf8
 788 506 746 434 683 391 c 1
 768 344 825 254 825 150 c 2
 825 0 l 1
 725 0 l 1
 725 150 l 2xf4
 725 247 647 325 550 325 c 0
 453 325 375 247 375 150 c 2
 375 0 l 1
 275 0 l 1
 125 200 l 1
 205 260 l 1
 275 167 l 1
 275 166 l 1
 281 263 337 347 417 391 c 1
 354 434 312 506 312 588 c 0
 312 719 419 825 550 825 c 0
EndSplineSet
LCarets2: 3 -75 -75 -75
MultipleSubs2: "CCMP cartouches" t.pali cart.body
Ligature2: "LIGA basics" p a l i
EndChar

StartChar: t.palisa
Encoding: 172 989514 76
GlifName: t.palisa
Width: 1000
GlyphClass: 1
Flags: W
HStem: -25 100<448.124 551.876> 725 100<448.124 551.876>
VStem: 325 100<98.4173 701.583> 575 100<98.4173 701.583>
LayerCount: 2
Fore
SplineSet
500 725 m 0
 459 725 425 691 425 650 c 2
 425 150 l 2
 425 109 459 75 500 75 c 0
 541 75 575 109 575 150 c 2
 575 650 l 2
 575 691 541 725 500 725 c 0
500 825 m 0
 597 825 675 747 675 650 c 2
 675 150 l 2
 675 53 597 -25 500 -25 c 0
 403 -25 325 53 325 150 c 2
 325 650 l 2
 325 747 403 825 500 825 c 0
EndSplineSet
LCarets2: 5 -75 -75 -75 -75 -75
MultipleSubs2: "CCMP cartouches" t.palisa cart.body
Ligature2: "LIGA basics" p a l i s a
EndChar

StartChar: t.pan
Encoding: 173 989515 77
GlifName: t.pan
Width: 1000
GlyphClass: 1
Flags: W
LayerCount: 2
Fore
SplineSet
299 580 m 1
 500 338 l 1
 701 580 l 1
 775 512 l 1
 500 212 l 1
 225 512 l 1
 299 580 l 1
299 830 m 1
 500 588 l 1
 701 830 l 1
 775 762 l 1
 500 462 l 1
 225 762 l 1
 299 830 l 1
299 330 m 1
 500 88 l 1
 701 330 l 1
 775 262 l 1
 500 -38 l 1
 225 262 l 1
 299 330 l 1
EndSplineSet
LCarets2: 2 -75 -75
MultipleSubs2: "CCMP cartouches" t.pan cart.body
Ligature2: "LIGA basics" p a n
EndChar

StartChar: t.pana
Encoding: 174 989516 78
GlifName: t.pana
Width: 1000
GlyphClass: 1
Flags: W
HStem: 0 21G<260 375 725 825> 450 100<467.304 632.696> 559 21G<336.8 383.51 716.49 763.2>
VStem: 275 100<167 356.822> 500 100<625 825> 725 100<0 356.822>
CounterMasks: 1 1c
LayerCount: 2
Fore
SplineSet
550 550 m 0
 702 550 825 427 825 275 c 2
 825 0 l 1
 725 0 l 1
 725 275 l 2
 725 372 647 450 550 450 c 0
 453 450 375 372 375 275 c 2
 375 7 l 2
 375 5 375 2 375 0 c 1
 275 0 l 1
 125 200 l 1
 205 260 l 1
 275 167 l 1
 275 275 l 2
 275 427 398 550 550 550 c 0
763 783 m 1
 850 734 l 1
 752 559 l 1
 665 608 l 1
 763 783 l 1
337 783 m 1
 435 608 l 1
 348 559 l 1
 250 734 l 1
 337 783 l 1
500 825 m 1
 600 825 l 1
 600 625 l 1
 500 625 l 1
 500 825 l 1
EndSplineSet
LCarets2: 3 -75 -75 -75
MultipleSubs2: "CCMP cartouches" t.pana cart.body
Ligature2: "LIGA basics" p a n a
EndChar

StartChar: t.pi
Encoding: 175 989517 79
GlifName: t.pi
Width: 1000
GlyphClass: 1
Flags: W
HStem: 0 100<250 900> 780 20G<150 250>
VStem: 150 100<100 800>
LayerCount: 2
Fore
SplineSet
150 800 m 1
 250 800 l 1
 250 100 l 1
 900 100 l 1
 900 0 l 1
 150 0 l 1
 150 800 l 1
EndSplineSet
LCarets2: 1 -75
MultipleSubs2: "CCMP cartouches" t.pi cart.body
Ligature2: "LIGA basics" p i
EndChar

StartChar: t.pilin
Encoding: 176 989518 80
GlifName: t.pilin
Width: 1000
GlyphClass: 1
Flags: W
HStem: 700 100<240.553 374.024 626.783 760.254>
VStem: 75 100<488.484 634.447> 825 100<488.484 634.447>
LayerCount: 2
Fore
SplineSet
313 700 m 0
 237 700 175 638 175 562 c 0
 175 528 188 497 208 473 c 2
 500 129 l 1
 792 473 l 2
 812 497 825 528 825 562 c 0
 825 638 764 700 688 700 c 0
 612 700 550 600 500 525 c 1
 450 600 389 700 313 700 c 0
313 800 m 0
 386 800 462 750 500 675 c 1
 538 750 615 800 688 800 c 0
 819 800 925 693 925 562 c 0
 925 503 903 450 868 409 c 2
 500 -25 l 1
 132 409 l 2
 97 450 75 503 75 562 c 0
 75 693 182 800 313 800 c 0
EndSplineSet
LCarets2: 4 -75 -75 -75 -75
MultipleSubs2: "CCMP cartouches" t.pilin cart.body
Ligature2: "LIGA basics" p i l i n
EndChar

StartChar: t.pimeja
Encoding: 177 989519 81
GlifName: t.pimeja
Width: 1000
GlyphClass: 1
Flags: W
HStem: 0 100<237 254 396 604 746 763>
LayerCount: 2
Fore
SplineSet
500 850 m 1
 925 0 l 1
 75 0 l 1
 500 850 l 1
359 345 m 1
 237 100 l 1
 254 100 l 1
 429 275 l 1
 359 345 l 1
396 100 m 1
 604 100 l 1
 500 204 l 1
 396 100 l 1
746 100 m 1
 763 100 l 1
 641 345 l 1
 571 275 l 1
 746 100 l 1
594 439 m 1
 500 626 l 1
 406 439 l 1
 500 346 l 1
 594 439 l 1
EndSplineSet
LCarets2: 5 -75 -75 -75 -75 -75
MultipleSubs2: "CCMP cartouches" t.pimeja cart.body
Ligature2: "LIGA basics" p i m e j a
EndChar

StartChar: t.pini
Encoding: 178 989520 82
GlifName: t.pini
Width: 1000
GlyphClass: 1
Flags: W
HStem: 0 100<250 450 550 750> 700 100<250 450 550 750>
VStem: 450 100<100 700>
LayerCount: 2
Fore
SplineSet
750 700 m 1
 550 700 l 1
 550 100 l 1
 750 100 l 1
 750 0 l 1
 250 0 l 1
 250 100 l 1
 450 100 l 1
 450 700 l 1
 250 700 l 1
 250 800 l 1
 750 800 l 1
 750 700 l 1
EndSplineSet
MultipleSubs2: "CCMP cartouches" t.pini cart.body
Ligature2: "LIGA basics" p i n i
EndChar

StartChar: t.pipi
Encoding: 179 989521 83
GlifName: t.pipi
Width: 1000
GlyphClass: 1
Flags: W
HStem: 100 100<250 450 550 750> 300 100<250 450 550 750> 500 100<250 450 550 750> 725 125<289.863 384.707 614.863 709.707>
VStem: 275 125<740.293 835.137> 450 100<-25 100 200 300 400 500 600 725> 600 125<740.293 835.137>
CounterMasks: 1 0e
LayerCount: 2
Fore
SplineSet
250 100 m 1
 250 200 l 1
 450 200 l 1
 450 300 l 1
 250 300 l 1
 250 400 l 1
 450 400 l 1
 450 500 l 1
 250 500 l 1
 250 600 l 1
 450 600 l 1
 450 725 l 1
 550 725 l 1
 550 600 l 1
 750 600 l 1
 750 500 l 1
 550 500 l 1
 550 400 l 1
 750 400 l 1
 750 300 l 1
 550 300 l 1
 550 200 l 1
 750 200 l 1
 750 100 l 1
 550 100 l 1
 550 -25 l 1
 450 -25 l 1
 450 100 l 1
 250 100 l 1
600 788 m 0
 600 823 627 850 662 850 c 0
 697 850 725 823 725 788 c 0
 725 753 697 725 662 725 c 0
 627 725 600 753 600 788 c 0
275 788 m 0
 275 823 302 850 337 850 c 0
 372 850 400 823 400 788 c 0
 400 753 372 725 337 725 c 0
 302 725 275 753 275 788 c 0
EndSplineSet
LCarets2: 3 -75 -75 -75
MultipleSubs2: "CCMP cartouches" t.pipi cart.body
Ligature2: "LIGA basics" p i p i
EndChar

StartChar: t.poka
Encoding: 180 989522 84
GlifName: t.poka
Width: 1000
GlyphClass: 1
Flags: W
HStem: 200 100<175 625> 325 150<798.417 901.583>
VStem: 75 100<300 600> 625 100<300 600> 775 150<348.417 451.583>
LayerCount: 2
Fore
SplineSet
775 400 m 0
 775 441 809 475 850 475 c 0
 891 475 925 441 925 400 c 0
 925 359 891 325 850 325 c 0
 809 325 775 359 775 400 c 0
75 600 m 1
 175 600 l 1
 175 300 l 1
 625 300 l 1
 625 600 l 1
 725 600 l 1
 725 200 l 1
 75 200 l 1
 75 600 l 1
EndSplineSet
LCarets2: 3 -75 -75 -75
MultipleSubs2: "CCMP cartouches" t.poka cart.body
Ligature2: "LIGA basics" p o k a
EndChar

StartChar: t.poki
Encoding: 181 989523 85
GlifName: t.poki
Width: 1000
GlyphClass: 1
Flags: W
HStem: 0 100<275 725> 780 20G<175 275 725 825>
VStem: 175 100<100 800> 725 100<100 800>
LayerCount: 2
Fore
SplineSet
175 800 m 1
 275 800 l 1
 275 100 l 1
 725 100 l 1
 725 800 l 1
 825 800 l 1
 825 -0 l 1
 175 0 l 1
 175 800 l 1
EndSplineSet
LCarets2: 3 -75 -75 -75
MultipleSubs2: "CCMP cartouches" t.poki cart.body
Ligature2: "LIGA basics" p o k i
EndChar

StartChar: t.pona
Encoding: 182 989524 86
GlifName: t.pona
Width: 1000
GlyphClass: 1
Flags: W
HStem: 150 100<390.166 609.834> 530 20G<100 200 800 900>
VStem: 100 100<440.465 550> 800 100<440.465 550>
LayerCount: 2
Fore
SplineSet
500 150 m 0
 279 150 100 329 100 550 c 1
 200 550 l 1
 200 384 334 250 500 250 c 0
 666 250 800 384 800 550 c 1
 900 550 l 1
 900 329 721 150 500 150 c 0
EndSplineSet
LCarets2: 3 -75 -75 -75
MultipleSubs2: "CCMP cartouches" t.pona cart.body
Ligature2: "LIGA basics" p o n a
EndChar

StartChar: t.pu
Encoding: 183 989525 87
GlifName: t.pu
Width: 1000
GlyphClass: 1
Flags: W
HStem: -0 100<275 725> 112 76<430.772 569.228> 438 74<430.772 569.228> 550 125<462 538> 700 100<275 725>
VStem: 175 100<100 700> 300 75<242.93 381.387> 462 76<550 675> 625 75<242.93 381.387> 725 100<100 700>
LayerCount: 2
Fore
SplineSet
500 438 m 0
 431 438 375 381 375 312 c 0
 375 243 431 188 500 188 c 0
 569 188 625 243 625 312 c 0
 625 381 569 438 500 438 c 0
500 512 m 0
 610 512 700 422 700 312 c 0
 700 202 610 112 500 112 c 0
 390 112 300 202 300 312 c 0
 300 422 390 512 500 512 c 0
275 700 m 1
 275 100 l 1
 725 100 l 1
 725 700 l 1
 275 700 l 1
175 800 m 1
 825 800 l 1
 825 0 l 1
 175 -0 l 1
 175 800 l 1
416 537 m 1
 352 498 l 1
 288 606 l 1
 352 644 l 1
 416 537 l 1
584 537 m 1
 648 644 l 1
 712 606 l 1
 648 498 l 1
 584 537 l 1
462 550 m 1
 462 675 l 1
 538 675 l 1
 538 550 l 1
 462 550 l 1
EndSplineSet
LCarets2: 1 -75
MultipleSubs2: "CCMP cartouches" t.pu cart.body
Ligature2: "LIGA basics" p u
EndChar

StartChar: t.sama
Encoding: 184 989526 88
GlifName: t.sama
Width: 1000
GlyphClass: 1
Flags: W
HStem: 200 100<150 850> 500 100<150 850>
LayerCount: 2
Fore
SplineSet
150 300 m 1
 850 300 l 1
 850 200 l 1
 150 200 l 1
 150 300 l 1
150 600 m 1
 850 600 l 1
 850 500 l 1
 150 500 l 1
 150 600 l 1
EndSplineSet
LCarets2: 3 -75 -75 -75
MultipleSubs2: "CCMP cartouches" t.sama cart.body
Ligature2: "LIGA basics" s a m a
EndChar

StartChar: t.seli
Encoding: 185 989527 89
GlifName: t.seli
Width: 1000
GlyphClass: 1
Flags: W
HStem: 50 150<448.417 551.583>
VStem: 425 150<73.4173 176.583> 450 100<275 750>
LayerCount: 2
Fore
SplineSet
401 263 m 1x80
 311 219 l 1
 100 645 l 1
 190 689 l 1
 401 263 l 1x80
599 263 m 1
 810 689 l 1
 900 645 l 1
 689 219 l 1
 599 263 l 1
425 125 m 0xc0
 425 166 459 200 500 200 c 0
 541 200 575 166 575 125 c 0
 575 84 541 50 500 50 c 0
 459 50 425 84 425 125 c 0xc0
450 275 m 1xa0
 450 750 l 1
 550 750 l 1
 550 275 l 1
 450 275 l 1xa0
EndSplineSet
LCarets2: 3 -75 -75 -75
MultipleSubs2: "CCMP cartouches" t.seli cart.body
Ligature2: "LIGA basics" s e l i
EndChar

StartChar: t.selo
Encoding: 186 989528 90
GlifName: t.selo
Width: 1000
GlyphClass: 1
Flags: W
HStem: 225 350<100 200 275 375 625 725 800 900> 475 100<200 275 375 625 725 800>
VStem: 100 100<225 475> 275 100<225 475> 625 100<225 475> 800 100<225 475>
LayerCount: 2
Fore
SplineSet
100 575 m 1xbc
 900 575 l 1
 900 225 l 1
 800 225 l 1xbc
 800 475 l 1
 725 475 l 1x7c
 725 225 l 1
 625 225 l 1xbc
 625 475 l 1
 375 475 l 1x7c
 375 225 l 1
 275 225 l 1xbc
 275 475 l 1
 200 475 l 1x7c
 200 225 l 1
 100 225 l 1
 100 575 l 1xbc
EndSplineSet
LCarets2: 3 -75 -75 -75
MultipleSubs2: "CCMP cartouches" t.selo cart.body
Ligature2: "LIGA basics" s e l o
EndChar

StartChar: t.seme
Encoding: 187 989529 91
GlifName: t.seme
Width: 1000
GlyphClass: 1
Flags: W
HStem: -12 150<448.417 551.583> 325 100<551.514 632.609> 700 100<366.126 632.609>
VStem: 201 99<583.939 633.947> 425 150<11.4173 114.583> 450 100<238 323.486> 700 100<491.483 632.609>
LayerCount: 2
Fore
SplineSet
500 138 m 0xfa
 541 138 575 104 575 63 c 0
 575 22 541 -12 500 -12 c 0
 459 -12 425 22 425 63 c 0
 425 104 459 138 500 138 c 0xfa
438 800 m 2
 562 800 l 2
 693 800 800 693 800 562 c 0
 800 431 693 325 562 325 c 0
 555 325 550 319 550 312 c 2
 550 238 l 1
 450 238 l 1
 450 312 l 2xf6
 450 374 501 425 563 425 c 0
 639 425 700 486 700 562 c 2
 700 563 l 2
 700 639 639 700 563 700 c 2
 438 700 l 2
 365 700 304 642 300 570 c 1
 201 585 l 1
 212 705 315 800 438 800 c 2
EndSplineSet
MultipleSubs2: "CCMP cartouches" t.seme cart.body
Ligature2: "LIGA basics" s e m e
EndChar

StartChar: t.sewi
Encoding: 188 989530 92
GlifName: t.sewi
Width: 1000
GlyphClass: 1
Flags: W
HStem: -25 100<75 144.618 308.959 391.392 508.608 591.341> 0 21G<800 900> 780 20G<800 900>
VStem: 200 100<130.127 350> 400 100<83.4375 500> 600 100<83.88 650> 800 100<0 800>
LayerCount: 2
Fore
SplineSet
800 800 m 1x7e
 900 800 l 1
 900 0 l 1
 800 0 l 1
 800 800 l 1x7e
600 650 m 1
 700 650 l 1
 700 125 l 2
 700 42 633 -25 550 -25 c 0
 512 -25 477 -11 450 13 c 1
 423 -11 388 -25 350 -25 c 0
 300 -25 256 -1 229 36 c 1
 189 -2 135 -25 75 -25 c 1
 75 75 l 1
 144 75 200 131 200 200 c 0
 200 204 199 208 199 212 c 1
 200 212 l 1
 200 350 l 1
 300 350 l 1
 300 125 l 2
 300 97 322 75 350 75 c 0
 378 75 400 97 400 125 c 2
 400 500 l 1
 500 500 l 1
 500 125 l 2
 500 97 522 75 550 75 c 0xbe
 578 75 600 97 600 125 c 2
 600 650 l 1
EndSplineSet
Ligature2: "LIGA alternates" t.sewi zero one
LCarets2: 3 -75 -75 -75
MultipleSubs2: "CCMP cartouches" t.sewi cart.body
Ligature2: "LIGA basics" s e w i
EndChar

StartChar: t.sijelo
Encoding: 189 989531 93
GlifName: t.sijelo
Width: 1000
GlyphClass: 1
Flags: W
HStem: 600 100<225 450 550 775>
VStem: 125 100<100 600> 450 100<100 600> 775 100<100 600>
CounterMasks: 1 70
LayerCount: 2
Fore
SplineSet
125 700 m 1
 875 700 l 1
 875 100 l 1
 775 100 l 1
 775 600 l 1
 550 600 l 1
 550 100 l 1
 450 100 l 1
 450 600 l 1
 225 600 l 1
 225 100 l 1
 125 100 l 1
 125 700 l 1
EndSplineSet
LCarets2: 5 -75 -75 -75 -75 -75
MultipleSubs2: "CCMP cartouches" t.sijelo cart.body
Ligature2: "LIGA basics" s i j e l o
EndChar

StartChar: t.sike
Encoding: 190 989532 94
GlifName: t.sike
Width: 1000
GlyphClass: 1
Flags: W
HStem: -25 100<411.002 638.998> 175 100<456.658 593.342> 525 100<456.658 593.342> 725 100<411.002 638.998>
VStem: 100 100<286.002 513.998> 300 100<331.658 468.342> 650 100<331.658 468.342> 850 100<286.002 513.998>
LayerCount: 2
Fore
SplineSet
525 725 m 0
 346 725 200 579 200 400 c 0
 200 221 346 75 525 75 c 0
 704 75 850 221 850 400 c 0
 850 579 704 725 525 725 c 0
525 825 m 0
 760 825 950 635 950 400 c 0
 950 165 760 -25 525 -25 c 0
 290 -25 100 165 100 400 c 0
 100 635 290 825 525 825 c 0
525 525 m 0
 456 525 400 469 400 400 c 0
 400 331 456 275 525 275 c 0
 594 275 650 331 650 400 c 0
 650 469 594 525 525 525 c 0
525 625 m 0
 649 625 750 524 750 400 c 0
 750 276 649 175 525 175 c 0
 401 175 300 276 300 400 c 0
 300 524 401 625 525 625 c 0
EndSplineSet
LCarets2: 3 -75 -75 -75
MultipleSubs2: "CCMP cartouches" t.sike cart.body
Ligature2: "LIGA basics" s i k e
EndChar

StartChar: t.sin
Encoding: 191 989533 95
GlifName: t.sin
Width: 1000
GlyphClass: 1
Flags: W
HStem: 250 100<100 400 600 900>
VStem: 450 100<400 700>
LayerCount: 2
Fore
SplineSet
450 700 m 1
 550 700 l 1
 550 400 l 1
 450 400 l 1
 450 700 l 1
600 250 m 1
 600 350 l 1
 900 350 l 1
 900 250 l 1
 600 250 l 1
100 250 m 1
 100 350 l 1
 400 350 l 1
 400 250 l 1
 100 250 l 1
EndSplineSet
LCarets2: 2 -75 -75
MultipleSubs2: "CCMP cartouches" t.sin cart.body
Ligature2: "LIGA basics" s i n
EndChar

StartChar: t.sina
Encoding: 192 989534 96
GlifName: t.sina
Width: 1000
GlyphClass: 1
Flags: W
HStem: 0 100<431.658 568.342> 350 100<430.143 568.342>
VStem: 275 100<156.658 291.155> 625 100<156.658 293.342>
LayerCount: 2
Fore
SplineSet
625 225 m 0
 625 294 569 350 500 350 c 0
 431 350 375 294 375 225 c 0
 375 156 431 100 500 100 c 0
 569 100 625 156 625 225 c 0
725 225 m 0
 725 101 624 0 500 0 c 0
 376 0 275 101 275 225 c 0
 275 448 368 662 532 813 c 1
 600 739 l 1
 508 654 441 547 405 429 c 1
 434 442 466 450 500 450 c 0
 624 450 725 349 725 225 c 0
EndSplineSet
LCarets2: 3 0 0 0
MultipleSubs2: "CCMP cartouches" t.sina cart.body
Ligature2: "LIGA basics" s i n a
EndChar

StartChar: t.sinpin
Encoding: 193 989535 97
GlifName: t.sinpin
Width: 1000
GlyphClass: 1
Flags: W
HStem: -0 100<225 500> 325 150<673.417 776.583> 700 100<225 500>
VStem: 500 100<100 700> 650 150<348.417 451.583>
CounterMasks: 1 e0
LayerCount: 2
Fore
SplineSet
800 400 m 0
 800 359 766 325 725 325 c 0
 684 325 650 359 650 400 c 0
 650 441 684 475 725 475 c 0
 766 475 800 441 800 400 c 0
225 800 m 1
 600 800 l 1
 600 0 l 1
 225 -0 l 1
 225 100 l 1
 500 100 l 1
 500 700 l 1
 225 700 l 1
 225 800 l 1
EndSplineSet
LCarets2: 5 -75 -75 -75 -75 -75
MultipleSubs2: "CCMP cartouches" t.sinpin cart.body
Ligature2: "LIGA basics" s i n p i n
EndChar

StartChar: t.sitelen
Encoding: 194 989536 98
GlifName: t.sitelen
Width: 1000
GlyphClass: 1
Flags: W
HStem: -0 100<250 750> 337 125<302.293 397.137 452.293 547.137 602.293 697.137> 700 100<250 750>
VStem: 150 100<100 700> 287 125<352.293 447.137> 437 125<352.293 447.137> 587 125<352.293 447.137> 750 100<100 700>
LayerCount: 2
Fore
SplineSet
587 400 m 0
 587 435 615 462 650 462 c 0
 685 462 712 435 712 400 c 0
 712 365 685 337 650 337 c 0
 615 337 587 365 587 400 c 0
437 400 m 0
 437 435 465 462 500 462 c 0
 535 462 562 435 562 400 c 0
 562 365 535 337 500 337 c 0
 465 337 437 365 437 400 c 0
287 400 m 0
 287 435 315 462 350 462 c 0
 385 462 412 435 412 400 c 0
 412 365 385 337 350 337 c 0
 315 337 287 365 287 400 c 0
250 700 m 1
 250 100 l 1
 750 100 l 1
 750 700 l 1
 250 700 l 1
150 800 m 1
 850 800 l 1
 850 -0 l 1
 150 -0 l 1
 150 800 l 1
EndSplineSet
LCarets2: 6 -75 -75 -75 -75 -75 -75
MultipleSubs2: "CCMP cartouches" t.sitelen cart.body
Ligature2: "LIGA basics" s i t e l e n
EndChar

StartChar: t.sona
Encoding: 195 989537 99
GlifName: t.sona
Width: 1000
GlyphClass: 1
Flags: W
HStem: -0 100<350 650> 425 100<350 650> 559 21G<286.8 333.51 666.49 713.2>
VStem: 250 100<100 425> 450 100<625 825> 650 100<100 425>
CounterMasks: 1 1c
LayerCount: 2
Fore
SplineSet
385 608 m 1
 298 559 l 1
 200 734 l 1
 287 783 l 1
 385 608 l 1
615 608 m 1
 713 783 l 1
 800 734 l 1
 702 559 l 1
 615 608 l 1
450 625 m 1
 450 825 l 1
 550 825 l 1
 550 625 l 1
 450 625 l 1
350 425 m 1
 350 100 l 1
 650 100 l 1
 650 425 l 1
 350 425 l 1
250 525 m 1
 750 525 l 1
 750 -0 l 1
 250 -0 l 1
 250 525 l 1
EndSplineSet
LCarets2: 3 -75 -75 -75
MultipleSubs2: "CCMP cartouches" t.sona cart.body
Ligature2: "LIGA basics" s o n a
EndChar

StartChar: t.soweli
Encoding: 196 989538 100
GlifName: t.soweli
Width: 1000
GlyphClass: 1
Flags: W
HStem: -0 300<75 175 250 350 425 525 600 698.147> 400 150<423.417 526.583> 450 150<623.417 726.583> 700 100<75 714.328>
VStem: 75 100<0 300> 250 100<0 300> 400 150<423.417 526.583> 425 100<0 300> 600 150<473.417 576.583> 600 100<0 215.188> 825 100<410.608 590.088>
LayerCount: 2
Fore
SplineSet
600 525 m 0xbca0
 600 566 634 600 675 600 c 0
 716 600 750 566 750 525 c 0
 750 484 716 450 675 450 c 0
 634 450 600 484 600 525 c 0xbca0
400 475 m 0xde20
 400 516 434 550 475 550 c 0
 516 550 550 516 550 475 c 0
 550 434 516 400 475 400 c 0
 434 400 400 434 400 475 c 0xde20
425 300 m 1x9d20
 525 300 l 1
 525 -0 l 1
 425 -0 l 1
 425 300 l 1x9d20
250 300 m 1
 350 300 l 1
 350 -0 l 1
 250 -0 l 1
 250 300 l 1
75 300 m 1
 175 300 l 1
 175 -0 l 1
 75 -0 l 1
 75 300 l 1
75 800 m 1
 625 800 l 2
 791 800 925 666 925 500 c 0
 925 360 829 243 700 210 c 1
 700 -0 l 1
 600 -0 l 1
 600 300 l 1x9c60
 625 300 l 2
 735 300 825 390 825 500 c 0
 825 610 735 700 625 700 c 2
 75 700 l 1
 75 800 l 1
EndSplineSet
LCarets2: 5 -75 -75 -75 -75 -75
MultipleSubs2: "CCMP cartouches" t.soweli cart.body
Ligature2: "LIGA basics" s o w e l i
EndChar

StartChar: t.suli
Encoding: 197 989539 101
GlifName: t.suli
Width: 1000
GlyphClass: 1
Flags: W
HStem: 0 21G<427 573>
VStem: 457 86<0 91.3731>
LayerCount: 2
Fore
SplineSet
191 820 m 1
 326 641 431 439 500 225 c 1
 569 439 674 641 809 820 c 1
 899 774 l 1
 724 547 603 280 543 0 c 1
 457 0 l 1
 397 280 276 547 101 774 c 1
 191 820 l 1
EndSplineSet
LCarets2: 3 0 0 0
MultipleSubs2: "CCMP cartouches" t.suli cart.body
Ligature2: "LIGA basics" s u l i
EndChar

StartChar: t.suno
Encoding: 198 989540 102
GlifName: t.suno
Width: 1000
GlyphClass: 1
Flags: W
HStem: -0 250<451.83 548.17> 350 100<100 260.409 740.591 900> 550 250<451.83 548.17>
VStem: 100 250<351.83 448.17> 450 100<0 160.409 640.591 800> 650 250<351.83 448.17>
CounterMasks: 1 fc
LayerCount: 2
Fore
SplineSet
500 550 m 0
 417 550 350 483 350 400 c 0
 350 317 417 250 500 250 c 0
 583 250 650 317 650 400 c 0
 650 483 583 550 500 550 c 0
450 800 m 1
 550 800 l 1
 550 645 l 1
 648 625 725 548 745 450 c 1
 900 450 l 1
 900 350 l 1
 744 350 l 1
 724 253 647 176 550 156 c 1
 550 -0 l 1
 450 -0 l 1
 450 156 l 1
 353 176 276 253 256 350 c 1
 100 350 l 1
 100 450 l 1
 256 450 l 1
 276 547 353 624 450 644 c 1
 450 800 l 1
EndSplineSet
LCarets2: 3 -75 -75 -75
MultipleSubs2: "CCMP cartouches" t.suno cart.body
Ligature2: "LIGA basics" s u n o
EndChar

StartChar: t.supa
Encoding: 199 989541 103
GlifName: t.supa
Width: 1000
GlyphClass: 1
Flags: W
HStem: 450 100<75 225 325 675 775 925>
VStem: 225 100<200 450> 675 100<200 450>
LayerCount: 2
Fore
SplineSet
75 550 m 1
 925 550 l 1
 925 450 l 1
 775 450 l 1
 775 200 l 1
 675 200 l 1
 675 450 l 1
 325 450 l 1
 325 200 l 1
 225 200 l 1
 225 450 l 1
 75 450 l 1
 75 550 l 1
EndSplineSet
LCarets2: 3 -75 -75 -75
MultipleSubs2: "CCMP cartouches" t.supa cart.body
Ligature2: "LIGA basics" s u p a
EndChar

StartChar: t.suwi
Encoding: 200 989542 104
GlifName: t.suwi
Width: 1000
GlyphClass: 1
Flags: W
HStem: 87 150<448.417 551.583>
VStem: 425 150<110.417 213.583>
LayerCount: 2
Fore
SplineSet
200 650 m 1
 300 650 l 1
 450 350 l 1
 338 350 l 1
 250 526 l 1
 162 350 l 1
 50 350 l 1
 200 650 l 1
700 650 m 1
 800 650 l 1
 950 350 l 1
 838 350 l 1
 750 526 l 1
 662 350 l 1
 550 350 l 1
 700 650 l 1
425 162 m 0
 425 203 459 237 500 237 c 0
 541 237 575 203 575 162 c 0
 575 121 541 87 500 87 c 0
 459 87 425 121 425 162 c 0
EndSplineSet
LCarets2: 3 -75 -75 -75
MultipleSubs2: "CCMP cartouches" t.suwi cart.body
Ligature2: "LIGA basics" s u w i
EndChar

StartChar: t.tan
Encoding: 201 989543 105
GlifName: t.tan
Width: 1000
GlyphClass: 1
Flags: W
HStem: 600 100<478.504 671.496>
VStem: 225 100<300 445.711> 825 100<248.432 446.496>
LayerCount: 2
Fore
SplineSet
575 700 m 0
 768 700 925 543 925 350 c 0
 925 289 909 229 879 176 c 1
 792 226 l 1
 814 264 825 306 825 350 c 0
 825 488 713 600 575 600 c 0
 437 600 325 488 325 350 c 2
 325 300 l 1
 450 450 l 1
 525 375 l 1
 275 125 l 1
 25 375 l 1
 100 450 l 1
 225 300 l 1
 225 350 l 2
 225 543 382 700 575 700 c 0
EndSplineSet
LCarets2: 2 -75 -75
MultipleSubs2: "CCMP cartouches" t.tan cart.body
Ligature2: "LIGA basics" t a n
EndChar

StartChar: t.taso
Encoding: 202 989544 106
GlifName: t.taso
Width: 1000
GlyphClass: 1
Flags: W
HStem: 0 21G<550 650> 350 100<300 550> 780 20G<550 650>
VStem: 550 100<0 350 450 800>
LayerCount: 2
Fore
SplineSet
550 800 m 1
 650 800 l 1
 650 0 l 1
 550 0 l 1
 550 350 l 1
 300 350 l 1
 300 450 l 1
 550 450 l 1
 550 800 l 1
EndSplineSet
LCarets2: 3 -75 -75 -75
MultipleSubs2: "CCMP cartouches" t.taso cart.body
Ligature2: "LIGA basics" t a s o
EndChar

StartChar: t.tawa
Encoding: 203 989545 107
GlifName: t.tawa
Width: 1000
GlyphClass: 1
Flags: W
HStem: -12 21G<323.75 382.742 619.36 676.429> 780 20G<391.086 505.626>
LayerCount: 2
Fore
SplineSet
400 800 m 1
 500 800 l 1
 691 121 l 1
 876 193 l 1
 913 100 l 1
 625 -12 l 1
 440 644 l 1
 222 155 l 1
 411 81 l 1
 375 -12 l 1
 88 100 l 1
 400 800 l 1
EndSplineSet
LCarets2: 3 0 0 0
MultipleSubs2: "CCMP cartouches" t.tawa cart.body
Ligature2: "LIGA basics" t a w a
EndChar

StartChar: t.telo
Encoding: 204 989546 108
GlifName: t.telo
Width: 1000
GlyphClass: 1
Flags: W
HStem: 72 100<248.917 403.409> 278 100<596.591 751.083> 422 100<248.917 403.409> 628 100<596.591 751.083>
VStem: 75 100<247.684 322 597.684 672> 825 100<128 202.316 478 552.316>
LayerCount: 2
Fore
SplineSet
825 128 m 1
 825 211 758 278 675 278 c 0
 620 278 570 249 544 201 c 0
 500 121 416 72 325 72 c 0
 187 72 75 184 75 322 c 1
 175 322 l 1
 175 239 242 172 325 172 c 0
 380 172 430 201 456 249 c 0
 500 329 584 378 675 378 c 0
 813 378 925 266 925 128 c 1
 825 128 l 1
175 672 m 1
 175 589 242 522 325 522 c 0
 380 522 430 551 456 599 c 0
 500 679 584 728 675 728 c 0
 813 728 925 616 925 478 c 1
 825 478 l 1
 825 561 758 628 675 628 c 0
 620 628 570 599 544 551 c 0
 500 471 416 422 325 422 c 0
 187 422 75 534 75 672 c 1
 175 672 l 1
EndSplineSet
LCarets2: 3 -75 -75 -75
MultipleSubs2: "CCMP cartouches" t.telo cart.body
Ligature2: "LIGA basics" t e l o
EndChar

StartChar: t.tenpo
Encoding: 205 989547 109
GlifName: t.tenpo
Width: 1000
GlyphClass: 1
Flags: W
HStem: -25 100<386.002 613.998> 350 100<550 700> 725 100<386.002 613.998>
VStem: 75 100<286.002 513.998> 450 100<450 675> 825 100<286.002 513.998>
CounterMasks: 1 fc
LayerCount: 2
Fore
SplineSet
500 725 m 0
 321 725 175 579 175 400 c 0
 175 221 321 75 500 75 c 0
 679 75 825 221 825 400 c 0
 825 579 679 725 500 725 c 0
500 825 m 0
 735 825 925 635 925 400 c 0
 925 165 735 -25 500 -25 c 0
 265 -25 75 165 75 400 c 0
 75 635 265 825 500 825 c 0
550 450 m 1
 700 450 l 1
 700 350 l 1
 450 350 l 1
 450 450 l 1
 450 675 l 1
 550 675 l 1
 550 450 l 1
EndSplineSet
LCarets2: 4 -75 -75 -75 -75
MultipleSubs2: "CCMP cartouches" t.tenpo cart.body
Ligature2: "LIGA basics" t e n p o
EndChar

StartChar: t.toki
Encoding: 206 989548 110
GlifName: t.toki
Width: 1000
GlyphClass: 1
Flags: W
HStem: -25 100<409.912 590.088> 475 100<409.912 590.088> 559 21G<286.8 333.51 666.49 713.2>
VStem: 200 100<184.912 365.088> 450 100<625 825> 700 100<184.912 365.088>
CounterMasks: 1 1c
LayerCount: 2
Fore
SplineSet
500 475 m 0xdc
 390 475 300 385 300 275 c 0
 300 165 390 75 500 75 c 0
 610 75 700 165 700 275 c 0
 700 385 610 475 500 475 c 0xdc
500 575 m 0
 666 575 800 441 800 275 c 0
 800 109 666 -25 500 -25 c 0
 334 -25 200 109 200 275 c 0
 200 441 334 575 500 575 c 0
385 608 m 1
 298 559 l 1xbc
 200 734 l 1
 287 783 l 1
 385 608 l 1
615 608 m 1
 713 783 l 1
 800 734 l 1
 702 559 l 1
 615 608 l 1
450 625 m 1
 450 825 l 1
 550 825 l 1
 550 625 l 1
 450 625 l 1
EndSplineSet
LCarets2: 3 -75 -75 -75
MultipleSubs2: "CCMP cartouches" t.toki cart.body
Ligature2: "LIGA basics" t o k i
EndChar

StartChar: t.tomo
Encoding: 207 989549 111
GlifName: t.tomo
Width: 1000
GlyphClass: 1
Flags: W
HStem: 0 100<200 800> 780 20G<477.143 522.857>
VStem: 100 100<100 405> 800 100<100 405>
LayerCount: 2
Fore
SplineSet
500 667 m 1
 200 405 l 1
 200 100 l 1
 800 100 l 1
 800 405 l 1
 500 667 l 1
500 800 m 1
 900 450 l 1
 900 0 l 1
 100 0 l 1
 100 450 l 1
 500 800 l 1
EndSplineSet
LCarets2: 3 -75 -75 -75
MultipleSubs2: "CCMP cartouches" t.tomo cart.body
Ligature2: "LIGA basics" t o m o
EndChar

StartChar: t.tu
Encoding: 208 989550 112
GlifName: t.tu
Width: 1000
GlyphClass: 1
Flags: W
HStem: 0 21G<300 400 600 700> 780 20G<300 400 600 700>
VStem: 300 100<0 800> 600 100<0 800>
LayerCount: 2
Fore
SplineSet
600 0 m 1
 600 800 l 1
 700 800 l 1
 700 0 l 1
 600 0 l 1
300 0 m 1
 300 800 l 1
 400 800 l 1
 400 0 l 1
 300 0 l 1
EndSplineSet
LCarets2: 1 -75
MultipleSubs2: "CCMP cartouches" t.tu cart.body
Ligature2: "LIGA basics" t u
EndChar

StartChar: t.unpa
Encoding: 209 989551 113
GlifName: t.unpa
Width: 1000
GlyphClass: 1
Flags: W
HStem: 0 100<431.658 568.342> 300 100<375 625> 700 100<248.917 399.27 600.73 751.083>
VStem: 75 100<473.256 626.083> 275 100<158.19 300 409 509.059> 625 100<158.19 300 409 509.059> 825 100<473.256 626.083>
LayerCount: 2
Fore
SplineSet
375 300 m 1
 375 225 l 2
 375 156 431 100 500 100 c 0
 569 100 625 156 625 225 c 2
 625 300 l 1
 375 300 l 1
500 644 m 1
 424 590 375 500 375 400 c 1
 625 400 l 1
 625 500 576 590 500 644 c 1
675 700 m 0
 649 700 624 696 600 690 c 1
 675 619 723 520 725 409 c 1
 783 430 825 485 825 550 c 0
 825 633 758 700 675 700 c 0
325 700 m 0
 242 700 175 633 175 550 c 0
 175 485 217 430 275 409 c 1
 277 520 325 619 400 690 c 1
 376 696 351 700 325 700 c 0
325 800 m 0
 388 800 447 786 500 760 c 1
 553 786 612 800 675 800 c 0
 813 800 925 688 925 550 c 0
 925 429 839 328 725 305 c 1
 725 225 l 2
 725 101 624 0 500 0 c 0
 376 0 275 101 275 225 c 2
 275 225 275 260 275 284 c 0
 275 296 275 305 275 305 c 1
 161 328 75 429 75 550 c 0
 75 688 187 800 325 800 c 0
EndSplineSet
LCarets2: 3 -75 -75 -75
MultipleSubs2: "CCMP cartouches" t.unpa cart.body
Ligature2: "LIGA basics" u n p a
EndChar

StartChar: t.uta
Encoding: 210 989552 114
GlifName: t.uta
Width: 1000
GlyphClass: 1
Flags: W
HStem: 0 150<448.417 551.583> 200 100<389.516 610.484> 550 100<204 796>
VStem: 425 150<23.4173 126.583>
LayerCount: 2
Fore
SplineSet
204 550 m 1
 228 408 352 300 500 300 c 0
 648 300 772 408 796 550 c 1
 204 550 l 1
100 650 m 1
 900 650 l 1
 900 600 l 2
 900 379 721 200 500 200 c 0
 279 200 100 379 100 600 c 2
 100 650 l 1
425 75 m 0
 425 116 459 150 500 150 c 0
 541 150 575 116 575 75 c 0
 575 34 541 0 500 0 c 0
 459 0 425 34 425 75 c 0
EndSplineSet
LCarets2: 2 -75 -75
MultipleSubs2: "CCMP cartouches" t.uta cart.body
Ligature2: "LIGA basics" u t a
EndChar

StartChar: t.utala
Encoding: 211 989553 115
GlifName: t.utala
Width: 1000
GlyphClass: 1
Flags: W
HStem: 0 21G<286.667 314.652 685.348 713.333>
LayerCount: 2
Fore
SplineSet
769 809 m 1
 850 750 l 1
 562 357 l 1
 696 174 l 1
 817 355 l 1
 900 300 l 1
 700 0 l 1
 500 273 l 1
 300 0 l 1
 100 300 l 1
 183 355 l 1
 304 174 l 1
 438 357 l 1
 150 750 l 1
 231 809 l 1
 500 442 l 1
 769 809 l 1
EndSplineSet
MultipleSubs2: "CCMP cartouches" t.utala cart.body
Ligature2: "LIGA basics" u t a l a
EndChar

StartChar: t.walo
Encoding: 212 989554 116
GlifName: t.walo
Width: 1000
GlyphClass: 1
Flags: W
HStem: 0 100<237 763>
LayerCount: 2
Fore
SplineSet
500 626 m 1
 237 100 l 1
 763 100 l 1
 500 626 l 1
314 478 m 1
 500 850 l 1
 686 478 l 1
 829 621 l 1
 900 550 l 1
 733 383 l 1
 925 0 l 1
 75 0 l 1
 267 383 l 1
 100 550 l 1
 171 621 l 1
 314 478 l 1
EndSplineSet
LCarets2: 3 -75 -75 -75
MultipleSubs2: "CCMP cartouches" t.walo cart.body
Ligature2: "LIGA basics" w a l o
EndChar

StartChar: t.wan
Encoding: 213 989555 117
GlifName: t.wan
Width: 1000
GlyphClass: 1
Flags: W
HStem: 0 21G<500 600> 780 20G<480 600>
VStem: 500 100<0 659>
LayerCount: 2
Fore
SplineSet
500 800 m 1
 600 800 l 1
 600 0 l 1
 500 0 l 1
 500 659 l 1
 321 479 l 1
 250 550 l 1
 500 800 l 1
EndSplineSet
LCarets2: 2 -75 -75
MultipleSubs2: "CCMP cartouches" t.wan cart.body
Ligature2: "LIGA basics" w a n
EndChar

StartChar: t.waso
Encoding: 214 989556 118
GlifName: t.waso
Width: 1000
GlyphClass: 1
Flags: W
HStem: 200 100<425 705> 362 150<173.417 276.583> 412 150<373.417 476.583>
VStem: 150 150<385.941 489.106> 325 100<-25 200> 350 150<435.941 539.106>
LayerCount: 2
Fore
SplineSet
467 837 m 1x98
 825 300 l 1
 825 200 l 1
 425 200 l 1
 425 -25 l 1
 325 -25 l 1
 325 300 l 1
 400 300 l 1
 425 300 l 1
 705 300 l 1
 383 782 l 1
 467 837 l 1x98
150 438 m 0
 150 479 184 512 225 512 c 0
 266 512 300 479 300 438 c 0
 300 397 266 362 225 362 c 0xd0
 184 362 150 397 150 438 c 0
350 488 m 0xb4
 350 529 384 562 425 562 c 0xb8
 466 562 500 529 500 488 c 0xb4
 500 447 466 412 425 412 c 0xb8
 384 412 350 447 350 488 c 0xb4
EndSplineSet
LCarets2: 3 -75 -75 -75
MultipleSubs2: "CCMP cartouches" t.waso cart.body
Ligature2: "LIGA basics" w a s o
EndChar

StartChar: t.wawa
Encoding: 215 989557 119
GlifName: t.wawa
Width: 1000
GlyphClass: 1
Flags: W
HStem: 100 100<423.917 576.083> 500 100<423.917 576.083>
VStem: 250 100<273.917 426.083> 650 100<273.917 426.083>
LayerCount: 2
Fore
SplineSet
500 500 m 0
 417 500 350 433 350 350 c 0
 350 267 417 200 500 200 c 0
 583 200 650 267 650 350 c 0
 650 433 583 500 500 500 c 0
500 600 m 0
 638 600 750 488 750 350 c 0
 750 212 638 100 500 100 c 0
 362 100 250 212 250 350 c 0
 250 488 362 600 500 600 c 0
951 705 m 1
 851 205 l 1
 753 224 l 1
 853 724 l 1
 951 705 l 1
49 705 m 1
 147 724 l 1
 247 224 l 1
 149 205 l 1
 49 705 l 1
EndSplineSet
LCarets2: 3 -75 -75 -75
MultipleSubs2: "CCMP cartouches" t.wawa cart.body
Ligature2: "LIGA basics" w a w a
EndChar

StartChar: t.weka
Encoding: 216 989558 120
GlifName: t.weka
Width: 1000
GlyphClass: 1
Flags: W
HStem: 0 21G<151 191 809 849> 780 20G<151 191 809 849>
LayerCount: 2
Fore
SplineSet
621 350 m 1
 900 71 l 1
 829 0 l 1
 550 279 l 1
 621 350 l 1
379 350 m 1
 450 279 l 1
 171 0 l 1
 100 71 l 1
 379 350 l 1
829 800 m 1
 900 729 l 1
 621 450 l 1
 550 521 l 1
 829 800 l 1
171 800 m 1
 450 521 l 1
 379 450 l 1
 100 729 l 1
 171 800 l 1
EndSplineSet
LCarets2: 3 -75 -75 -75
MultipleSubs2: "CCMP cartouches" t.weka cart.body
Ligature2: "LIGA basics" w e k a
EndChar

StartChar: t.wile
Encoding: 217 989559 121
GlifName: t.wile
Width: 1000
GlyphClass: 1
Flags: W
HStem: 50 100<239.746 385.805 614.195 760.254>
VStem: 75 100<216.483 464.629> 450 100<213.715 325> 825 100<215.099 465.344>
CounterMasks: 1 70
LayerCount: 2
Fore
SplineSet
825 288 m 0
 825 438 781 577 705 694 c 1
 788 750 l 1
 875 617 925 458 925 287 c 0
 925 156 819 50 688 50 c 0
 615 50 545 84 500 142 c 1
 455 84 385 50 312 50 c 0
 181 50 75 156 75 287 c 2
 75 288 l 2
 75 459 125 617 212 750 c 1
 295 694 l 1
 219 577 175 438 175 288 c 2
 175 212 236 150 312 150 c 0
 388 150 450 212 450 288 c 2
 450 325 l 1
 550 325 l 1
 550 288 l 2
 550 212 612 150 688 150 c 0
 764 150 825 212 825 288 c 0
EndSplineSet
LCarets2: 3 -75 -75 -75
MultipleSubs2: "CCMP cartouches" t.wile cart.body
Ligature2: "LIGA basics" w i l e
EndChar

StartChar: i
Encoding: 73 105 122
GlifName: glyph122
Width: 500
VWidth: 900
Flags: W
HStem: 0 21G<200 300> 450 100<87 200> 625 150<198.417 301.583>
VStem: 175 150<648.417 751.583> 200 100<0 450>
LayerCount: 2
Fore
SplineSet
87 550 m 1xe8
 200 550 l 1
 212 550 l 1
 300 550 l 1
 300 0 l 1
 200 0 l 1
 200 450 l 1
 87 450 l 1
 87 550 l 1xe8
250 775 m 0
 291 775 325 741 325 700 c 0
 325 659 291 625 250 625 c 0
 209 625 175 659 175 700 c 0xf0
 175 741 209 775 250 775 c 0
EndSplineSet
EndChar

StartChar: j
Encoding: 74 106 123
GlifName: glyph123
Width: 500
VWidth: -100
Flags: W
HStem: -101 100<157.057 256.019> 450 100<162 275> 625 150<273.417 376.583>
VStem: 250 150<648.417 751.583> 275 100<18.0921 450>
LayerCount: 2
Fore
SplineSet
162 550 m 1xe8
 275 550 l 1
 287 550 l 1
 375 550 l 1
 375 68 l 2
 375 -25 299 -101 206 -101 c 0
 123 -101 54 -41 40 38 c 1
 138 68 l 1
 138 30 168 -1 206 -1 c 0
 244 -1 275 30 275 68 c 2
 275 450 l 1
 162 450 l 1
 162 550 l 1xe8
325 775 m 0
 366 775 400 741 400 700 c 0
 400 659 366 625 325 625 c 0
 284 625 250 659 250 700 c 0xf0
 250 741 284 775 325 775 c 0
EndSplineSet
EndChar

StartChar: o
Encoding: 79 111 124
GlifName: glyph124
Width: 500
VWidth: -100
Flags: W
HStem: -13 100<189.341 310.659> 462 100<189.341 310.659>
VStem: 50 100<127.324 421.676> 350 100<127.324 421.676>
LayerCount: 2
Fore
SplineSet
250 462 m 0
 195 462 150 418 150 363 c 2
 150 187 l 2
 150 132 195 87 250 87 c 0
 305 87 350 132 350 187 c 2
 350 363 l 2
 350 418 305 462 250 462 c 0
250 562 m 0
 361 562 450 473 450 362 c 2
 450 187 l 2
 450 76 361 -13 250 -13 c 0
 139 -13 50 76 50 187 c 2
 50 362 l 2
 50 473 139 562 250 562 c 0
EndSplineSet
EndChar

StartChar: a
Encoding: 65 97 125
GlifName: glyph125
Width: 500
VWidth: -100
Flags: W
HStem: -13 101<156.289 281.361> -0 21G<350 450> 225 100<158.507 350> 462 100<169.285 310.473>
VStem: 38 100<106.242 205.019> 350 100<0 34 156.658 225 325 422.212>
LayerCount: 2
Fore
SplineSet
206 225 m 2xbc
 168 225 138 194 138 156 c 0
 138 118 168 88 206 88 c 0
 283 88 347 149 350 225 c 1
 206 225 l 2xbc
250 562 m 0
 360 562 450 473 450 363 c 2
 450 -0 l 1
 350 -0 l 1x7c
 350 0 350 15 350 25 c 0
 350 30 350 34 350 34 c 1
 310 5 260 -13 206 -13 c 0
 113 -13 38 63 38 156 c 0
 38 245 107 319 194 325 c 1
 350 325 l 1
 350 362 l 2
 350 417 305 462 250 462 c 0
 182 462 124 421 100 362 c 1
 31 445 l 0
 31 447 104 562 250 562 c 0
EndSplineSet
EndChar

StartChar: A
Encoding: 33 65 126
Width: 500
VWidth: 900
Flags: W
HStem: 0 21G<44 150 362.867 469> 150 100<197 316> 780 20G<201.95 310.075>
LayerCount: 2
Fore
SplineSet
256 544 m 1
 197 250 l 1
 316 250 l 1
 256 544 l 1
206 800 m 1
 306 800 l 1
 469 0 l 1
 367 0 l 1
 336 150 l 1
 176 150 l 1
 146 0 l 1
 44 0 l 1
 206 800 l 1
EndSplineSet
EndChar

StartChar: B
Encoding: 34 66 127
Width: 500
VWidth: 900
Flags: W
HStem: 0 100<156 310.81> 350 100<156 312.326> 700 100<156 310.81>
VStem: 56 100<100 350 450 700> 369 100<156.658 293.945 506.407 643.342>
CounterMasks: 1 e0
LayerCount: 2
Fore
SplineSet
469 225 m 0
 469 101 368 0 244 0 c 2
 156 0 l 1
 56 0 l 1
 56 800 l 1
 156 800 l 1
 244 800 l 2
 368 800 469 699 469 575 c 0
 469 507 437 443 384 400 c 1
 437 357 469 293 469 225 c 0
156 100 m 1
 244 100 l 2
 313 100 369 156 369 225 c 0
 369 294 313 350 244 350 c 2
 156 350 l 1
 156 100 l 1
369 575 m 0
 369 644 313 700 244 700 c 2
 156 700 l 1
 156 450 l 1
 246 450 l 2
 314 451 369 507 369 575 c 0
EndSplineSet
EndChar

StartChar: C
Encoding: 35 67 128
Width: 500
VWidth: 912
Flags: W
HStem: -12 100<195.527 316.473> 712 100<195.527 316.473>
VStem: 56 100<127.788 672.212> 356 100<127.788 187 612 671.304>
LayerCount: 2
Fore
SplineSet
156 612 m 1
 156 187 l 2
 156 132 201 88 256 88 c 0
 311 88 356 132 356 187 c 1
 456 187 l 1
 456 77 366 -12 256 -12 c 0
 146 -12 56 77 56 187 c 2
 56 613 l 2
 56 723 146 812 256 812 c 0
 366 812 456 722 456 612 c 1
 356 612 l 1
 356 667 311 712 256 712 c 0
 201 712 156 667 156 612 c 1
EndSplineSet
EndChar

StartChar: D
Encoding: 36 68 129
Width: 500
VWidth: 900
Flags: W
HStem: -0 100<156 310.81> 700 100<156 310.81>
VStem: 56 100<100 700> 369 100<158.19 641.81>
LayerCount: 2
Fore
SplineSet
156 700 m 1
 156 100 l 1
 244 100 l 2
 313 100 369 156 369 225 c 1
 369 575 l 1
 369 644 313 700 244 700 c 2
 156 700 l 1
56 800 m 1
 156 800 l 1
 244 800 l 1
 368 800 469 699 469 575 c 1
 469 225 l 1
 469 101 368 0 244 -0 c 2
 56 -0 l 1
 56 800 l 1
EndSplineSet
EndChar

StartChar: E
Encoding: 37 69 130
Width: 500
VWidth: 900
Flags: W
HStem: 0 100<156 456> 350 100<156 369> 700 100<156 456>
VStem: 56 100<100 350 450 700>
CounterMasks: 1 e0
LayerCount: 2
Fore
SplineSet
56 0 m 1
 56 800 l 1
 456 800 l 1
 456 700 l 1
 156 700 l 1
 156 450 l 1
 369 450 l 1
 369 350 l 1
 156 350 l 1
 156 100 l 1
 456 100 l 1
 456 0 l 1
 156 0 l 1
 56 0 l 1
EndSplineSet
EndChar

StartChar: F
Encoding: 38 70 131
Width: 500
VWidth: 900
Flags: W
HStem: 0 21G<56 156> 350 100<156 369> 700 100<156 456>
VStem: 56 100<0 350 450 700>
LayerCount: 2
Fore
SplineSet
56 800 m 1
 156 800 l 1
 456 800 l 1
 456 700 l 1
 156 700 l 1
 156 450 l 1
 369 450 l 1
 369 350 l 1
 156 350 l 1
 156 0 l 1
 56 0 l 1
 56 800 l 1
EndSplineSet
EndChar

StartChar: G
Encoding: 39 71 132
Width: 500
VWidth: 912
Flags: W
HStem: -12 100<195.527 316.473> 350 100<244 356> 712 100<195.527 316.473>
VStem: 56 100<128.696 672.212> 356 100<128.696 350 613 672.212>
CounterMasks: 1 e0
LayerCount: 2
Fore
SplineSet
256 812 m 0
 366 812 456 723 456 613 c 1
 356 613 l 1
 356 668 311 712 256 712 c 0
 201 712 156 668 156 613 c 2
 156 188 l 2
 156 133 201 88 256 88 c 0
 311 88 356 133 356 188 c 1
 356 350 l 1
 244 350 l 1
 244 450 l 1
 356 450 l 1
 456 450 l 1
 456 188 l 1
 456 78 366 -12 256 -12 c 0
 146 -12 56 78 56 188 c 2
 56 613 l 2
 56 723 146 812 256 812 c 0
EndSplineSet
EndChar

StartChar: H
Encoding: 40 72 133
Width: 500
VWidth: 900
Flags: W
HStem: 0 21G<56 156 356 456> 350 100<156 356> 780 20G<56 156 356 456>
VStem: 56 100<0 350 450 800> 356 100<0 350 450 800>
LayerCount: 2
Fore
SplineSet
56 800 m 1
 156 800 l 1
 156 450 l 1
 356 450 l 1
 356 800 l 1
 456 800 l 1
 456 0 l 1
 356 0 l 1
 356 350 l 1
 156 350 l 1
 156 0 l 1
 56 0 l 1
 56 800 l 1
EndSplineSet
EndChar

StartChar: I
Encoding: 41 73 134
Width: 500
VWidth: 900
Flags: W
HStem: 0 100<100 200 300 400> 700 100<100 200 300 400>
VStem: 100 300<0 100 700 800>
LayerCount: 2
Fore
SplineSet
100 800 m 1
 400 800 l 1
 400 700 l 1
 300 700 l 1
 300 100 l 1
 400 100 l 1
 400 0 l 1
 300 0 l 1
 200 -0 l 1
 100 0 l 1
 100 100 l 1
 200 100 l 1
 200 700 l 1
 100 700 l 1
 100 800 l 1
EndSplineSet
EndChar

StartChar: J
Encoding: 42 74 135
Width: 500
VWidth: 900
Flags: W
HStem: -13 100<195.527 316.473> 700 100<156 356>
VStem: 56 100<127.696 187> 356 100<127.696 700>
LayerCount: 2
Fore
SplineSet
456 800 m 1
 456 187 l 1
 456 77 366 -13 256 -13 c 0
 146 -13 56 77 56 187 c 1
 156 187 l 1
 156 132 201 87 256 87 c 0
 311 87 356 132 356 187 c 1
 356 700 l 1
 156 700 l 1
 156 800 l 1
 456 800 l 1
EndSplineSet
EndChar

StartChar: K
Encoding: 43 75 136
Width: 500
VWidth: 900
Flags: W
HStem: -0 21G<56 156 349.971 469> 350 100<156 201> 780 20G<56 156 349.971 469>
VStem: 56 100<0 350 450 800>
LayerCount: 2
Fore
SplineSet
56 800 m 1
 156 800 l 1
 156 450 l 1
 201 450 l 1
 359 800 l 1
 469 800 l 1
 288 400 l 1
 469 -0 l 1
 359 -0 l 1
 201 350 l 1
 156 350 l 1
 156 0 l 1
 56 0 l 1
 56 800 l 1
EndSplineSet
EndChar

StartChar: L
Encoding: 44 76 137
Width: 500
VWidth: 900
Flags: W
HStem: 0 100<156 456> 780 20G<56 156>
VStem: 56 100<100 800>
LayerCount: 2
Fore
SplineSet
456 -0 m 1
 56 0 l 1
 56 800 l 1
 156 800 l 1
 156 100 l 1
 456 100 l 1
 456 -0 l 1
EndSplineSet
EndChar

StartChar: M
Encoding: 45 77 138
Width: 500
VWidth: 900
Flags: W
HStem: 0 21G<44 144 369 469> 780 20G<44 150.687 362.254 469>
VStem: 44 100<0 486> 369 100<0 486>
LayerCount: 2
Fore
SplineSet
44 800 m 1
 144 800 l 1
 256 465 l 1
 369 800 l 1
 469 800 l 1
 469 0 l 1
 369 0 l 1
 369 486 l 1
 306 300 l 1
 206 300 l 1
 144 486 l 1
 144 0 l 1
 44 0 l 1
 44 800 l 1
EndSplineSet
EndChar

StartChar: N
Encoding: 46 78 139
Width: 500
VWidth: 900
Flags: W
HStem: 0 21G<56 156 348.322 456> 780 20G<56 163.678 356 456>
VStem: 56 100<0 521> 356 100<279 800>
LayerCount: 2
Fore
SplineSet
56 800 m 1
 156 800 l 1
 356 279 l 1
 356 800 l 1
 456 800 l 1
 456 0 l 1
 356 0 l 1
 156 521 l 1
 156 0 l 1
 56 0 l 1
 56 800 l 1
EndSplineSet
EndChar

StartChar: O
Encoding: 47 79 140
Width: 500
VWidth: 900
Flags: W
HStem: -25 100<195.527 316.473> 700 100<195.527 316.473>
VStem: 56 100<115.696 659.304> 356 100<115.696 659.304>
LayerCount: 2
Fore
SplineSet
256 700 m 0
 201 700 156 655 156 600 c 2
 156 175 l 2
 156 120 201 75 256 75 c 0
 311 75 356 120 356 175 c 1
 356 600 l 1
 356 655 311 700 256 700 c 0
256 800 m 0
 366 800 456 710 456 600 c 1
 456 175 l 1
 456 65 366 -25 256 -25 c 0
 146 -25 56 65 56 175 c 2
 56 600 l 2
 56 710 146 800 256 800 c 0
EndSplineSet
EndChar

StartChar: P
Encoding: 48 80 141
Width: 500
VWidth: 900
Flags: W
HStem: 0 21G<56 156> 350 100<156 310.81> 700 100<156 310.81>
VStem: 56 100<0 350 450 700> 369 100<506.658 643.342>
LayerCount: 2
Fore
SplineSet
469 575 m 0
 469 451 368 350 244 350 c 2
 156 350 l 1
 156 0 l 1
 56 0 l 1
 56 800 l 1
 156 800 l 1
 244 800 l 1
 368 800 469 699 469 575 c 0
156 450 m 1
 244 450 l 2
 313 450 369 506 369 575 c 0
 369 644 313 700 244 700 c 1
 156 700 l 1
 156 450 l 1
EndSplineSet
EndChar

StartChar: Q
Encoding: 49 81 142
Width: 500
VWidth: 912
Flags: W
HStem: 63 100<189.527 267.504> 712 100<189.527 310.473>
VStem: 50 100<203.696 671.304> 350 100<236.072 671.304>
LayerCount: 2
Fore
SplineSet
250 712 m 0
 195 712 150 667 150 612 c 2
 150 263 l 2
 150 208 195 163 250 163 c 0
 256 163 262 163 268 164 c 1
 173 375 l 1
 282 375 l 1
 346 234 l 1
 349 243 350 253 350 263 c 1
 350 613 l 1
 350 668 305 712 250 712 c 0
250 812 m 0
 360 812 450 722 450 612 c 2
 450 263 l 2
 450 210 429 161 395 125 c 1
 462 -25 l 1
 353 -25 l 1
 309 72 l 1
 290 66 271 63 250 63 c 0
 140 63 50 153 50 263 c 2
 50 612 l 2
 50 722 140 812 250 812 c 0
EndSplineSet
EndChar

StartChar: R
Encoding: 50 82 143
Width: 500
VWidth: 900
Flags: W
HStem: -0 21G<56 156 349.971 469> 350 100<156 201> 700 100<156 310.81>
VStem: 56 100<0 350 450 700> 369 100<505.73 643.342>
LayerCount: 2
Fore
SplineSet
156 700 m 1
 156 450 l 1
 244 450 l 1
 313 450 369 506 369 575 c 0
 369 644 313 700 244 700 c 2
 156 700 l 1
56 800 m 1
 156 800 l 1
 244 800 l 2
 368 800 469 699 469 575 c 0
 469 473 400 386 307 359 c 1
 469 -0 l 1
 359 -0 l 1
 201 350 l 1
 156 350 l 1
 156 0 l 1
 56 0 l 1
 56 800 l 1
EndSplineSet
EndChar

StartChar: S
Encoding: 51 83 144
Width: 500
VWidth: 900
Flags: W
HStem: -25 100<195.527 316.473> 338 100<196.696 315.304> 700 100<195.527 316.473>
VStem: 56 100<115.696 175 478.696 659.304> 356 100<115.696 297.304 600 659.304>
LayerCount: 2
Fore
SplineSet
256 338 m 0
 146 338 56 428 56 538 c 2
 56 600 l 2
 56 710 146 800 256 800 c 0
 366 800 456 710 456 600 c 1
 356 600 l 1
 356 655 311 700 256 700 c 0
 201 700 156 655 156 600 c 2
 156 538 l 2
 156 483 201 438 256 438 c 0
 366 438 456 348 456 238 c 2
 456 175 l 2
 456 65 366 -25 256 -25 c 0
 146 -25 56 65 56 175 c 1
 156 175 l 1
 156 120 201 75 256 75 c 0
 311 75 356 120 356 175 c 2
 356 237 l 2
 356 292 311 338 256 338 c 0
EndSplineSet
EndChar

StartChar: T
Encoding: 52 84 145
Width: 500
VWidth: 900
Flags: W
HStem: 0 21G<206 306> 700 100<56 206 306 456>
VStem: 206 100<0 700>
LayerCount: 2
Fore
SplineSet
56 800 m 1
 206 800 l 1
 306 800 l 1
 456 800 l 1
 456 700 l 1
 306 700 l 1
 306 0 l 1
 206 0 l 1
 206 700 l 1
 56 700 l 1
 56 800 l 1
EndSplineSet
EndChar

StartChar: U
Encoding: 53 85 146
Width: 500
VWidth: 900
Flags: W
HStem: -0 100<195.527 316.473> 780 20G<56 156 356 456>
VStem: 56 100<140.696 800> 356 100<140.696 800>
LayerCount: 2
Fore
SplineSet
256 100 m 0
 311 100 356 145 356 200 c 2
 356 800 l 1
 456 800 l 1
 456 200 l 2
 456 90 366 0 256 -0 c 0
 146 0 56 90 56 200 c 2
 56 800 l 1
 156 800 l 1
 156 200 l 2
 156 145 201 100 256 100 c 0
EndSplineSet
EndChar

StartChar: V
Encoding: 54 86 147
Width: 500
VWidth: 900
Flags: W
HStem: 0 21G<201.95 310.075> 780 20G<44 150.044 362.919 469>
LayerCount: 2
Fore
SplineSet
206 0 m 1
 44 800 l 1
 146 800 l 1
 256 256 l 1
 367 800 l 1
 469 800 l 1
 306 0 l 1
 206 0 l 1
EndSplineSet
EndChar

StartChar: W
Encoding: 55 87 148
Width: 500
VWidth: 900
Flags: W
HStem: 0 21G<44 150.687 362.254 469> 780 20G<44 144 369 469>
VStem: 44 100<314 800> 369 100<314 800>
LayerCount: 2
Fore
SplineSet
44 0 m 1
 44 800 l 1
 144 800 l 1
 144 314 l 1
 206 500 l 1
 306 500 l 1
 369 314 l 1
 369 800 l 1
 469 800 l 1
 469 0 l 1
 369 0 l 1
 256 335 l 1
 144 0 l 1
 44 0 l 1
EndSplineSet
EndChar

StartChar: X
Encoding: 56 88 149
Width: 500
VWidth: 900
Flags: W
HStem: 0 21G<44 158.955 353.045 469> 780 20G<44 158.955 353.045 469>
LayerCount: 2
Fore
SplineSet
44 800 m 1
 151 800 l 1
 256 536 l 1
 361 800 l 1
 469 800 l 1
 310 400 l 1
 469 0 l 1
 361 0 l 1
 256 264 l 1
 151 0 l 1
 44 0 l 1
 202 400 l 1
 44 800 l 1
EndSplineSet
EndChar

StartChar: Y
Encoding: 57 89 150
Width: 500
VWidth: 900
Flags: W
HStem: 0 21G<206 306> 780 20G<44 158.955 353.045 469>
VStem: 206 100<0 390>
LayerCount: 2
Fore
SplineSet
44 800 m 1
 151 800 l 1
 256 536 l 1
 361 800 l 1
 469 800 l 1
 306 390 l 1
 306 0 l 1
 206 0 l 1
 206 390 l 1
 44 800 l 1
EndSplineSet
EndChar

StartChar: Z
Encoding: 58 90 151
Width: 500
VWidth: 900
Flags: W
HStem: -0 100<167 456> 700 100<56 345>
LayerCount: 2
Fore
SplineSet
56 800 m 1
 456 800 l 1
 456 700 l 1
 167 100 l 1
 456 100 l 1
 456 -0 l 1
 56 -0 l 1
 56 100 l 1
 345 700 l 1
 56 700 l 1
 56 800 l 1
EndSplineSet
EndChar

StartChar: b
Encoding: 66 98 152
Width: 500
VWidth: 900
Flags: W
HStem: -13 100<192.393 311.006> -0 21G<50 150> 462 100<190.48 311.006> 780 20G<50 150>
VStem: 50 100<0 40 125.358 423.642 510 800> 350 100<126.631 422.369>
LayerCount: 2
Fore
SplineSet
250 462 m 0xbc
 195 462 150 417 150 362 c 2
 150 187 l 2
 150 132 195 87 250 87 c 0
 305 87 350 132 350 187 c 2
 350 362 l 2
 350 417 305 462 250 462 c 0xbc
50 800 m 1
 150 800 l 1
 150 510 l 1
 182 542 226 562 275 562 c 0
 372 562 450 484 450 387 c 2
 450 162 l 2
 450 65 372 -13 275 -13 c 0xbc
 226 -13 182 8 150 40 c 1
 150 -0 l 1
 50 -0 l 1x7c
 50 800 l 1
EndSplineSet
EndChar

StartChar: c
Encoding: 67 99 153
Width: 500
VWidth: 912
Flags: W
HStem: -13 100<193.519 319.022> 462 100<193.519 319.022>
VStem: 50 100<132.564 417.343> 362 96<131.855 151.844 398.156 418.134>
LayerCount: 2
Fore
SplineSet
256 562 m 0
 355 562 438 494 458 401 c 1
 362 362 l 1
 359 418 313 462 256 462 c 0
 197 462 150 415 150 356 c 2
 150 275 l 1
 150 194 l 2
 150 135 197 87 256 87 c 0
 313 87 359 132 362 188 c 1
 458 149 l 1
 438 56 355 -13 256 -13 c 0
 142 -13 50 80 50 194 c 2
 50 356 l 2
 50 470 142 562 256 562 c 0
EndSplineSet
EndChar

StartChar: d
Encoding: 68 100 154
Width: 500
VWidth: 900
Flags: W
HStem: -13 100<188.994 307.607> -0 21G<350 450> 462 100<188.994 309.52> 780 20G<350 450>
VStem: 50 100<126.631 422.369> 350 100<0 40 125.358 423.642 510 800>
LayerCount: 2
Fore
SplineSet
250 462 m 0xbc
 195 462 150 417 150 362 c 2
 150 187 l 2
 150 132 195 87 250 87 c 0
 305 87 350 132 350 187 c 2
 350 362 l 2
 350 417 305 462 250 462 c 0xbc
450 800 m 1
 450 -0 l 1
 350 -0 l 1x7c
 350 40 l 1
 318 8 274 -13 225 -13 c 0
 128 -13 50 65 50 162 c 2
 50 387 l 2
 50 484 128 562 225 562 c 0
 274 562 318 542 350 510 c 1
 350 800 l 1
 450 800 l 1
EndSplineSet
EndChar

StartChar: e
Encoding: 69 101 155
Width: 500
VWidth: 900
Flags: W
HStem: -12 100<193.519 319.022> 250 100<150 350> 462 100<189.527 310.473>
VStem: 50 100<132.657 250 350 421.304> 350 100<350 421.304>
LayerCount: 2
Fore
SplineSet
250 462 m 0
 195 462 150 417 150 362 c 2
 150 350 l 1
 350 350 l 1
 350 362 l 1
 350 417 305 462 250 462 c 0
250 562 m 0
 360 562 450 472 450 362 c 2
 450 350 l 1
 450 250 l 1
 150 250 l 1
 150 194 l 2
 150 135 197 88 256 88 c 0
 313 88 359 132 362 188 c 1
 458 149 l 1
 438 56 355 -12 256 -12 c 0
 142 -12 50 80 50 194 c 2
 50 362 l 2
 50 472 140 562 250 562 c 0
EndSplineSet
EndChar

StartChar: f
Encoding: 70 102 156
Width: 500
VWidth: 900
Flags: W
HStem: 0 21G<137 237> 450 100<62 137 237 412> 712 100<255.981 355.205>
VStem: 137 100<0 450 550 690.069>
LayerCount: 2
Fore
SplineSet
306 812 m 0
 389 812 458 753 472 674 c 1
 375 644 l 1
 375 682 344 712 306 712 c 0
 268 712 237 682 237 644 c 2
 237 550 l 1
 412 550 l 1
 412 450 l 1
 237 450 l 1
 237 0 l 1
 137 0 l 1
 137 450 l 1
 62 450 l 1
 62 550 l 1
 137 550 l 1
 137 644 l 2
 137 737 213 812 306 812 c 0
EndSplineSet
EndChar

StartChar: g
Encoding: 71 103 157
Width: 500
VWidth: 912
Flags: W
HStem: -100 100<180.978 306.481> 125 100<188.994 309.52> 462 100<188.994 309.52> 530 20G<350 450>
VStem: 50 100<264.631 423.326> 350 100<44.6567 177 263.358 423.642 510 550>
LayerCount: 2
Fore
SplineSet
250 462 m 0xec
 195 462 150 417 150 362 c 2
 150 325 l 2
 150 270 195 225 250 225 c 0
 305 225 350 270 350 325 c 2
 350 362 l 2
 350 417 305 462 250 462 c 0xec
225 562 m 0
 274 562 318 542 350 510 c 1
 350 550 l 1
 450 550 l 1xdc
 450 275 l 1
 450 106 l 2
 450 -8 358 -100 244 -100 c 0
 145 -100 62 -32 42 61 c 1
 138 100 l 1
 141 44 187 0 244 0 c 0
 303 0 350 47 350 106 c 2
 350 125 l 1
 350 177 l 1
 318 145 274 125 225 125 c 0
 128 125 50 203 50 300 c 2
 50 388 l 2
 50 485 128 562 225 562 c 0
EndSplineSet
EndChar

StartChar: h
Encoding: 72 104 158
Width: 500
VWidth: 900
Flags: W
HStem: -0 21G<50 150 350 450> 462 100<190.48 311.006> 780 20G<50 150>
VStem: 50 100<0 423.642 510 800> 350 100<0 422.369>
LayerCount: 2
Fore
SplineSet
50 800 m 1
 150 800 l 1
 150 510 l 1
 182 542 226 562 275 562 c 0
 372 562 450 484 450 387 c 2
 450 -0 l 1
 350 -0 l 1
 350 362 l 2
 350 417 305 462 250 462 c 0
 195 462 150 417 150 362 c 2
 150 -0 l 1
 50 -0 l 1
 50 800 l 1
EndSplineSet
EndChar

StartChar: k
Encoding: 75 107 159
Width: 500
VWidth: 900
Flags: W
HStem: 0 21G<50 150 311.455 450> 530 20G<311.455 450> 780 20G<50 150>
VStem: 50 100<0 242 308 800>
LayerCount: 2
Fore
SplineSet
50 800 m 1
 150 800 l 1
 150 308 l 1
 326 550 l 1
 450 550 l 1
 250 275 l 1
 450 0 l 1
 326 0 l 1
 150 242 l 1
 150 0 l 1
 50 0 l 1
 50 800 l 1
EndSplineSet
EndChar

StartChar: l
Encoding: 76 108 160
Width: 500
VWidth: 900
Flags: W
HStem: 0 100<283.88 425> 700 100<100 175>
VStem: 100 175<700 800> 175 100<108.88 700>
LayerCount: 2
Fore
SplineSet
100 800 m 1xe0
 275 800 l 1xe0
 275 150 l 2
 275 122 297 100 325 100 c 2
 425 100 l 1
 425 0 l 1
 325 0 l 2
 242 0 175 67 175 150 c 2
 175 700 l 1xd0
 100 700 l 1
 100 800 l 1xe0
EndSplineSet
EndChar

StartChar: m
Encoding: 77 109 161
Width: 500
VWidth: 900
Flags: W
HStem: 0 21G<38 138 200 300 362 462> 462 100<163.278 241.5 325.278 403.5> 530 20G<38 138>
VStem: 38 100<0 460.688 482 550> 200 100<0 460.688> 362 100<0 460.596>
CounterMasks: 1 1c
LayerCount: 2
Fore
SplineSet
219 562 m 0xdc
 264 562 300 527 300 482 c 1
 300 527 336 562 381 562 c 0
 426 562 462 526 462 481 c 2
 462 0 l 1
 362 0 l 1
 362 431 l 2
 362 448 348 462 331 462 c 0
 314 462 300 449 300 432 c 2
 300 0 l 1
 200 0 l 1
 200 432 l 2
 200 449 186 462 169 462 c 0xdc
 152 462 138 449 138 432 c 2
 138 0 l 1
 38 0 l 1
 38 550 l 1
 138 550 l 1xbc
 138 482 l 1
 138 527 174 562 219 562 c 0xdc
EndSplineSet
EndChar

StartChar: n
Encoding: 78 110 162
Width: 500
VWidth: 900
Flags: W
HStem: -0 21G<50 150 350 450> 462 100<190.48 311.006> 530 20G<50 150>
VStem: 50 100<0 423.642 510 550> 350 100<0 422.369>
LayerCount: 2
Fore
SplineSet
50 550 m 1xb8
 150 550 l 1xb8
 150 510 l 1
 182 542 226 562 275 562 c 0
 372 562 450 484 450 387 c 2
 450 -0 l 1
 350 -0 l 1
 350 362 l 2
 350 417 305 462 250 462 c 0xd8
 195 462 150 417 150 362 c 2
 150 -0 l 1
 50 -0 l 1
 50 550 l 1xb8
EndSplineSet
EndChar

StartChar: p
Encoding: 80 112 163
Width: 500
VWidth: 900
Flags: W
HStem: 75 100<190.48 311.006> 462 100<190.48 311.006> 530 20G<50 150>
VStem: 50 100<-100 127 213.358 423.642 510 550> 350 100<214.631 422.369>
LayerCount: 2
Fore
SplineSet
250 175 m 0xd8
 305 175 350 220 350 275 c 2
 350 362 l 2
 350 417 305 462 250 462 c 0
 195 462 150 417 150 362 c 2
 150 275 l 2
 150 220 195 175 250 175 c 0xd8
50 -100 m 1
 50 550 l 1
 150 550 l 1xb8
 150 510 l 1
 182 542 226 562 275 562 c 0
 372 562 450 484 450 387 c 2
 450 250 l 2
 450 153 372 75 275 75 c 0
 226 75 182 95 150 127 c 1
 150 -100 l 1
 50 -100 l 1
EndSplineSet
EndChar

StartChar: q
Encoding: 81 113 164
Width: 500
VWidth: 912
Flags: W
HStem: 75 100<188.994 309.52> 462 100<188.994 309.52> 530 20G<350 450>
VStem: 50 100<214.631 422.369> 350 100<-100 127 213.358 423.642 510 550>
LayerCount: 2
Fore
SplineSet
250 175 m 0xd8
 305 175 350 220 350 275 c 2
 350 362 l 2
 350 417 305 462 250 462 c 0
 195 462 150 417 150 362 c 2
 150 275 l 2
 150 220 195 175 250 175 c 0xd8
450 -100 m 1
 350 -100 l 1
 350 127 l 1
 318 95 274 75 225 75 c 0
 128 75 50 153 50 250 c 2
 50 387 l 2
 50 484 128 562 225 562 c 0xd8
 274 562 318 542 350 510 c 1
 350 550 l 1
 450 550 l 1xb8
 450 -100 l 1
EndSplineSet
EndChar

StartChar: r
Encoding: 82 114 165
Width: 500
VWidth: 900
Flags: W
HStem: 0 21G<50 150> 462 100<194.322 319.909> 530 20G<50 150>
VStem: 50 100<0 419.618 506 550>
LayerCount: 2
Fore
SplineSet
281 562 m 0xd0
 367 562 440 502 458 422 c 1
 362 356 l 1
 362 415 315 462 256 462 c 0xd0
 197 462 150 415 150 356 c 0
 150 256 l 1
 150 0 l 1
 50 0 l 1
 50 550 l 1
 150 550 l 1xb0
 150 506 l 1
 183 541 229 562 281 562 c 0xd0
EndSplineSet
EndChar

StartChar: s
Encoding: 83 115 166
Width: 500
VWidth: 900
Flags: W
HStem: 0 100<152.371 344.537> 225 100<155.385 344.537> 450 100<155.385 347.629>
VStem: 37 100<116.11 139.319 342.514 433.173> 362 100<116.332 207.993>
CounterMasks: 1 e0
LayerCount: 2
Fore
SplineSet
200 550 m 2
 300 550 l 2
 381 550 451 492 466 412 c 1
 369 381 l 1
 369 419 338 450 300 450 c 2
 200 450 l 2
 166 450 137 422 137 388 c 0
 137 354 166 325 200 325 c 2
 300 325 l 2
 390 325 462 252 462 162 c 0
 462 72 390 0 300 0 c 2
 200 0 l 2
 119 0 49 58 34 138 c 1
 131 169 l 1
 131 131 162 100 200 100 c 2
 300 100 l 2
 334 100 362 128 362 162 c 0
 362 196 334 225 300 225 c 2
 200 225 l 2
 110 225 37 298 37 388 c 0
 37 478 110 550 200 550 c 2
EndSplineSet
EndChar

StartChar: t
Encoding: 84 116 167
Width: 500
VWidth: 900
Flags: W
HStem: -12 100<255.981 355.205> 450 100<62 137 237 412>
VStem: 137 100<109.931 450 550 700>
LayerCount: 2
Fore
SplineSet
137 700 m 1
 237 700 l 1
 237 550 l 1
 412 550 l 1
 412 450 l 1
 237 450 l 1
 237 156 l 2
 237 118 268 88 306 88 c 0
 344 88 375 118 375 156 c 1
 472 126 l 1
 458 47 389 -12 306 -12 c 0
 213 -12 137 63 137 156 c 2
 137 450 l 1
 62 450 l 1
 62 550 l 1
 137 550 l 1
 137 700 l 1
EndSplineSet
EndChar

StartChar: u
Encoding: 85 117 168
Width: 500
VWidth: 900
Flags: W
HStem: -12 100<188.994 309.52> 0 21G<350 450> 530 20G<50 150 350 450>
VStem: 50 100<126.674 550> 350 100<0 40 126.358 550>
LayerCount: 2
Fore
SplineSet
450 0 m 1x78
 350 0 l 1x78
 350 40 l 1
 318 8 274 -12 225 -12 c 0
 128 -12 50 65 50 162 c 2
 50 550 l 1
 150 550 l 1
 150 188 l 2
 150 133 195 88 250 88 c 0xb8
 305 88 350 133 350 188 c 2
 350 550 l 1
 450 550 l 1
 450 0 l 1x78
EndSplineSet
EndChar

StartChar: v
Encoding: 86 118 169
Width: 500
VWidth: 900
Flags: W
HStem: 0 21G<194.545 305.455> 530 20G<50 157.85 342.15 450>
LayerCount: 2
Fore
SplineSet
50 550 m 1
 153 550 l 1
 250 150 l 1
 347 550 l 1
 450 550 l 1
 300 0 l 1
 200 0 l 1
 50 550 l 1
EndSplineSet
EndChar

StartChar: w
Encoding: 87 119 170
Width: 500
VWidth: 900
Flags: W
HStem: 0 21G<82.5 204 296 417.5> 531 19G<84 106.5 375 475>
VStem: 25 100<285.129 550> 375 100<286.415 550>
LayerCount: 2
Fore
SplineSet
25 550 m 1
 25 550 69 551 99 551 c 0
 114 551 125 550 125 550 c 0
 125 427 138 308 163 192 c 1
 200 400 l 1
 237 400 l 1
 300 400 l 1
 340 208 l 1
 363 319 375 432 375 550 c 1
 375 550 419 550 449 550 c 0
 464 550 475 550 475 550 c 1
 475 358 445 173 390 0 c 1
 300 0 l 1
 250 250 l 1
 200 0 l 1
 110 0 l 1
 55 173 25 358 25 550 c 1
EndSplineSet
EndChar

StartChar: x
Encoding: 88 120 171
Width: 500
VWidth: 900
Flags: W
HStem: 0 21G<37 163.329 336.671 462> 530 20G<37 163.329 336.671 462>
LayerCount: 2
Fore
SplineSet
37 550 m 1
 152 550 l 1
 250 377 l 1
 348 550 l 1
 462 550 l 1
 307 275 l 1
 462 0 l 1
 348 0 l 1
 250 173 l 1
 152 0 l 1
 37 0 l 1
 193 275 l 1
 37 550 l 1
EndSplineSet
EndChar

StartChar: y
Encoding: 89 121 172
Width: 500
VWidth: 900
Flags: W
HStem: -100 100<56.0504 139.964> 530 20G<38 153.046 346.954 462>
LayerCount: 2
Fore
SplineSet
38 550 m 1
 145 550 l 1
 250 289 l 1
 355 550 l 1
 462 550 l 1
 239 -6 l 2
 216 -63 161 -100 100 -100 c 0
 76 -100 51 -94 30 -83 c 1
 62 18 l 1
 72 7 85 0 100 0 c 0
 120 0 138 12 146 31 c 2
 196 155 l 1
 38 550 l 1
EndSplineSet
EndChar

StartChar: z
Encoding: 90 122 173
Width: 500
VWidth: 900
Flags: W
HStem: 0 100<177 450> 450 100<50 323>
LayerCount: 2
Fore
SplineSet
50 550 m 1
 450 550 l 1
 450 450 l 1
 177 100 l 1
 450 100 l 1
 450 0 l 1
 50 0 l 1
 50 100 l 1
 323 450 l 1
 50 450 l 1
 50 550 l 1
EndSplineSet
EndChar

StartChar: zero
Encoding: 16 48 174
Width: 500
VWidth: 912
Flags: W
HStem: -12 100<189.341 310.659> 712 100<189.341 310.659>
VStem: 50 100<128.324 429 558 671.676> 350 100<128.324 229 371 671.676>
LayerCount: 2
Fore
SplineSet
150 429 m 1
 150 188 l 2
 150 133 195 88 250 88 c 0
 305 88 350 133 350 188 c 2
 350 229 l 1
 215 365 l 1
 150 429 l 1
250 712 m 0
 195 712 150 667 150 612 c 2
 150 558 l 1
 285 435 l 1
 350 371 l 1
 350 612 l 2
 350 667 305 712 250 712 c 0
250 812 m 0
 361 812 450 723 450 612 c 2
 450 188 l 2
 450 77 361 -12 250 -12 c 0
 139 -12 50 77 50 188 c 2
 50 612 l 2
 50 723 139 812 250 812 c 0
EndSplineSet
EndChar

StartChar: one
Encoding: 17 49 175
Width: 500
VWidth: 900
Flags: W
HStem: -0 100<56 206 306 456> 780 20G<186 306>
VStem: 206 100<100 659>
LayerCount: 2
Fore
SplineSet
206 800 m 1
 306 800 l 1
 306 100 l 1
 456 100 l 1
 456 -0 l 1
 306 -0 l 1
 206 -0 l 1
 56 -0 l 1
 56 100 l 1
 206 100 l 1
 206 659 l 1
 56 509 l 1
 56 650 l 1
 206 800 l 1
EndSplineSet
EndChar

StartChar: two
Encoding: 18 50 176
Width: 500
VWidth: 912
Flags: W
HStem: -0 100<172 450> 713 100<189.527 310.473>
VStem: 50 100<575 671.396> 350 100<505.005 671.396>
LayerCount: 2
Fore
SplineSet
350 563 m 2
 350 612 l 2
 350 667 305 713 250 713 c 0
 195 713 150 667 150 612 c 2
 150 575 l 1
 50 575 l 1
 50 612 l 2
 50 722 140 813 250 813 c 0
 360 813 450 722 450 612 c 2
 450 563 l 2
 450 522 437 482 414 448 c 2
 172 100 l 1
 450 100 l 1
 450 -0 l 1
 50 -0 l 1
 50 100 l 1
 332 505 l 2
 344 522 350 543 350 563 c 2
EndSplineSet
EndChar

StartChar: three
Encoding: 19 51 177
Width: 500
VWidth: 912
Flags: W
HStem: -12 100<189.527 310.473> 350 100<212 311.642> 712 100<189.527 310.473>
VStem: 50 100<128.696 225 575 671.304> 350 100<128.696 309.982 490.018 671.304>
CounterMasks: 1 e0
LayerCount: 2
Fore
SplineSet
50 575 m 1
 50 612 l 2
 50 722 140 812 250 812 c 0
 360 812 450 722 450 612 c 2
 450 550 l 2
 450 493 425 438 382 400 c 1
 425 362 450 307 450 250 c 2
 450 188 l 2
 450 78 360 -12 250 -12 c 0
 140 -12 50 78 50 188 c 2
 50 225 l 1
 150 225 l 1
 150 188 l 2
 150 133 195 88 250 88 c 0
 305 88 350 133 350 188 c 1
 350 250 l 1
 350 305 305 350 250 350 c 2
 212 350 l 1
 212 450 l 1
 250 450 l 2
 305 450 350 495 350 550 c 2
 350 612 l 2
 350 667 305 712 250 712 c 0
 195 712 150 667 150 612 c 2
 150 575 l 1
 50 575 l 1
EndSplineSet
EndChar

StartChar: four
Encoding: 20 52 178
Width: 500
VWidth: 900
Flags: W
HStem: -0 21G<356 456> 200 100<158 356> 780 20G<150.08 256 356 456>
VStem: 356 100<0 200 300 800>
LayerCount: 2
Fore
SplineSet
154 800 m 1
 256 800 l 1
 158 300 l 1
 356 300 l 1
 356 800 l 1
 456 800 l 1
 456 300 l 1
 456 200 l 1
 456 -0 l 1
 356 -0 l 1
 356 200 l 1
 56 200 l 1
 56 300 l 1
 154 800 l 1
EndSplineSet
EndChar

StartChar: five
Encoding: 21 53 179
Width: 500
VWidth: 900
Flags: W
HStem: -12 100<189.527 310.473> 400 100<150 309.304> 700 100<150 450>
VStem: 50 100<128.696 188 500 700> 350 100<128.696 359.304>
LayerCount: 2
Fore
SplineSet
450 300 m 2
 450 188 l 2
 450 78 360 -12 250 -12 c 0
 140 -12 50 78 50 188 c 1
 150 188 l 1
 150 133 195 88 250 88 c 0
 305 88 350 133 350 188 c 2
 350 300 l 2
 350 355 305 400 250 400 c 2
 50 400 l 1
 50 800 l 1
 450 800 l 1
 450 700 l 1
 150 700 l 1
 150 500 l 1
 250 500 l 2
 360 500 450 410 450 300 c 2
EndSplineSet
EndChar

StartChar: six
Encoding: 22 54 180
Width: 500
VWidth: 900
Flags: W
HStem: -12 100<189.527 310.659> 400 100<259 311.642> 780 20G<318.277 450>
VStem: 50 100<128.696 362.56> 350 100<128.696 361.642>
LayerCount: 2
Fore
SplineSet
450 300 m 2
 450 188 l 2
 450 78 361 -12 250 -12 c 0
 140 -12 50 78 50 188 c 2
 50 319 l 2
 50 338 61 375 81 407 c 2
 331 800 l 1
 450 800 l 1
 259 500 l 1
 366 495 450 407 450 300 c 2
250 88 m 0
 305 88 350 133 350 188 c 2
 350 300 l 2
 350 355 305 400 250 400 c 0
 216 400 183 383 165 354 c 0
 155 338 150 319 150 309 c 2
 150 188 l 2
 150 133 195 88 250 88 c 0
EndSplineSet
EndChar

StartChar: seven
Encoding: 23 55 181
Width: 500
VWidth: 900
Flags: W
HStem: -0 21G<56 173.314> 700 100<56 348>
LayerCount: 2
Fore
SplineSet
56 800 m 1
 456 800 l 1
 456 700 l 1
 165 -0 l 1
 56 -0 l 1
 348 700 l 1
 56 700 l 1
 56 800 l 1
EndSplineSet
EndChar

StartChar: eight
Encoding: 24 56 182
Width: 500
VWidth: 912
Flags: W
HStem: -12 100<189.527 310.473> 412 100<188.358 311.221> 712 100<189.527 310.473>
VStem: 50 100<128.696 371.982 550.192 672.473> 350 100<128.696 371.982 550.733 672.473>
LayerCount: 2
Fore
SplineSet
250 412 m 0
 195 412 150 367 150 312 c 2
 150 188 l 2
 150 133 195 88 250 88 c 0
 305 88 350 133 350 188 c 2
 350 312 l 2
 350 367 305 412 250 412 c 0
250 712 m 0
 195 712 150 667 150 612 c 0
 150 557 195 512 250 512 c 0
 250 513 l 0
 251 513 252 512 253 512 c 0
 307 514 350 558 350 612 c 0
 350 667 305 712 250 712 c 0
250 812 m 0
 360 812 450 722 450 612 c 0
 450 586 444 516 382 462 c 1
 425 424 450 369 450 312 c 1
 450 188 l 1
 450 78 360 -12 250 -12 c 0
 140 -12 50 78 50 188 c 1
 50 312 l 1
 50 369 75 424 118 462 c 1
 71 503 50 560 50 612 c 0
 50 722 140 812 250 812 c 0
EndSplineSet
EndChar

StartChar: nine
Encoding: 25 57 183
Width: 500
VWidth: 912
Flags: W
HStem: -0 21G<50 181.723> 300 100<188.358 241> 713 100<189.527 310.473>
VStem: 50 100<438.358 671.396> 350 100<438.164 671.396>
LayerCount: 2
Fore
SplineSet
50 500 m 2
 50 612 l 2
 50 722 140 813 250 813 c 0
 360 813 450 722 450 612 c 2
 450 481 l 2
 450 462 439 425 419 393 c 2
 169 -0 l 1
 50 -0 l 1
 241 300 l 1
 134 305 50 393 50 500 c 2
250 713 m 0
 195 713 150 667 150 612 c 2
 150 500 l 2
 150 445 195 400 250 400 c 0
 284 400 316 417 334 446 c 0
 344 462 350 481 350 491 c 2
 350 612 l 2
 350 667 305 713 250 713 c 0
EndSplineSet
EndChar

StartChar: cart.start
Encoding: 239 989584 184
Width: 500
Flags: W
HStem: -250 100<390.465 500> 950 100<390.465 500>
VStem: 100 100<40.4646 759.535>
LayerCount: 2
Fore
SplineSet
500 -100 m 1025
500 1050 m 1
 500 950 l 1
 334 950 200 816 200 650 c 2
 200 150 l 2
 200 -16 334 -150 500 -150 c 1
 500 -150 500 -194 500 -224 c 0
 500 -239 500 -250 500 -250 c 0
 279 -250 100 -71 100 150 c 2
 100 650 l 2
 100 871 279 1050 500 1050 c 1
EndSplineSet
Ligature2: "LIGA basics" bracketleft
EndChar

StartChar: cart.end
Encoding: 240 989585 185
Width: 500
Flags: W
HStem: -250 100<0 109.535> 950 100<0 109.535>
VStem: 300 100<40.4646 759.535>
LayerCount: 2
Fore
SplineSet
0 1050 m 1
 221 1050 400 871 400 650 c 2
 400 150 l 2
 400 -71 221 -250 0 -250 c 1
 -100 -200 l 1
 0 -150 l 1
 166 -150 300 -16 300 150 c 2
 300 650 l 2
 300 816 166 950 0 950 c 1
 -100 1000 l 1
 0 1050 l 1
EndSplineSet
Ligature2: "LIGA basics" bracketright
EndChar

StartChar: cart.body
Encoding: 241 989586 186
Width: 0
Flags: W
HStem: -250 100<-1000 0> 950 100<-1000 0>
LayerCount: 2
Fore
SplineSet
0 1050 m 1
 0 950 l 1
 -1000 950 l 1
 -1100 1000 l 1
 -1000 1050 l 1
 0 1050 l 1
0 -150 m 1
 0 -250 l 1
 -1000 -250 l 1
 -1100 -200 l 1
 -1000 -150 l 1
 0 -150 l 1
EndSplineSet
EndChar

StartChar: morae.dot
Encoding: 242 989596 187
Width: 500
Flags: W
HStem: 300 200<188.358 311.642>
VStem: 150 200<338.358 461.642>
LayerCount: 2
Fore
SplineSet
150 400 m 0
 150 455 195 500 250 500 c 0
 305 500 350 455 350 400 c 0
 350 345 305 300 250 300 c 0
 195 300 150 345 150 400 c 0
EndSplineSet
EndChar

StartChar: morae.colon
Encoding: 243 989597 188
Width: 500
Flags: W
HStem: 125 200<188.358 311.642> 475 200<188.358 311.642>
VStem: 150 200<163.358 286.642 513.358 636.642>
LayerCount: 2
Fore
SplineSet
150 575 m 0
 150 630 195 675 250 675 c 0
 305 675 350 630 350 575 c 0
 350 520 305 475 250 475 c 0
 195 475 150 520 150 575 c 0
150 225 m 0
 150 280 195 325 250 325 c 0
 305 325 350 280 350 225 c 0
 350 170 305 125 250 125 c 0
 195 125 150 170 150 225 c 0
EndSplineSet
EndChar

StartChar: bracketleft
Encoding: 59 91 189
Width: 500
VWidth: 900
Flags: W
HStem: 0 100<150 450> 700 100<150 450>
VStem: 50 100<100 700>
LayerCount: 2
Fore
SplineSet
450 700 m 1
 150 700 l 1
 150 100 l 1
 450 100 l 1
 450 0 l 1
 50 0 l 1
 50 100 l 1
 50 800 l 1
 450 800 l 1
 450 700 l 1
EndSplineSet
EndChar

StartChar: bracketright
Encoding: 61 93 190
Width: 500
VWidth: 900
Flags: W
HStem: 0 100<50 350> 700 100<50 350>
VStem: 350 100<100 700>
LayerCount: 2
Fore
SplineSet
50 700 m 1
 50 800 l 1
 450 800 l 1
 450 100 l 1
 450 0 l 1
 50 0 l 1
 50 100 l 1
 350 100 l 1
 350 700 l 1
 50 700 l 1
EndSplineSet
EndChar

StartChar: glyph192
Encoding: 14 46 192
Width: 500
VWidth: 0
Flags: W
HStem: -12 150<198.417 301.583>
VStem: 175 150<10.8938 114.059>
LayerCount: 2
Fore
SplineSet
175 62 m 0
 175 103 209 138 250 138 c 0
 291 138 325 103 325 62 c 0
 325 21 291 -12 250 -12 c 0
 209 -12 175 21 175 62 c 0
EndSplineSet
EndChar

StartChar: colon
Encoding: 26 58 193
Width: 500
Flags: W
HStem: -12 150<198.417 301.583> 325 150<198.417 301.583>
VStem: 175 150<10.8938 114.059 348.417 451.583>
LayerCount: 2
Fore
SplineSet
175 400 m 0
 175 441 209 475 250 475 c 0
 291 475 325 441 325 400 c 0
 325 359 291 325 250 325 c 0
 209 325 175 359 175 400 c 0
175 62 m 0
 175 103 209 138 250 138 c 0
 291 138 325 103 325 62 c 0
 325 21 291 -12 250 -12 c 0
 209 -12 175 21 175 62 c 0
EndSplineSet
EndChar

StartChar: t.namako
Encoding: 218 989560 194
Width: 1000
Flags: W
HStem: 0 100<302 437.619> 780 20G<475 575>
VStem: 275 100<271.406 450> 475 100<575 800> 675 100<337.381 450>
CounterMasks: 1 38
LayerCount: 2
Fore
SplineSet
475 575 m 1
 475 800 l 1
 575 800 l 1
 575 575 l 1
 475 575 l 1
632 561 m 1
 736 760 l 1
 825 714 l 1
 720 515 l 1
 632 561 l 1
418 560 m 1
 330 513 l 1
 225 713 l 1
 314 759 l 1
 418 560 l 1
275 450 m 1
 375 450 l 1
 375 330 350 210 302 100 c 1
 325 100 l 2
 518 100 675 257 675 450 c 1
 775 450 l 1
 775 201 574 0 325 0 c 2
 250 0 l 1
 225 0 l 1
 131 0 l 1
 225 131 275 289 275 450 c 1
EndSplineSet
LCarets2: 5 0 0 0 0 0
MultipleSubs2: "CCMP cartouches" t.namako cart.body
Ligature2: "LIGA basics" n a m a k o
EndChar

StartChar: t.kin
Encoding: 219 989561 195
Width: 1000
Flags: W
VStem: 450 100<-25 88 262 375 462 825>
LayerCount: 2
Fore
SplineSet
300 233 m 1
 350 319 l 1
 450 262 l 1
 450 375 l 1
 550 375 l 1
 550 262 l 1
 650 319 l 1
 700 233 l 1
 600 175 l 1
 700 117 l 1
 650 31 l 1
 550 88 l 1
 550 -25 l 1
 450 -25 l 1
 450 88 l 1
 350 31 l 1
 300 117 l 1
 400 175 l 1
 300 233 l 1
450 462 m 1
 450 825 l 1
 550 825 l 1
 550 462 l 1
 450 462 l 1
EndSplineSet
LCarets2: 2 -75 -75
MultipleSubs2: "CCMP cartouches" t.kin cart.body
Ligature2: "LIGA basics" k i n
EndChar

StartChar: t.oko
Encoding: 220 989562 196
Width: 1000
Flags: W
HStem: 0 21G<786.25 835.337> 780 20G<786.25 835.337>
VStem: 600 100<336.257 460.039> 800 100<300.603 495.138>
LayerCount: 2
Fore
SplineSet
871 89 m 1
 825 0 l 1
 50 400 l 1
 825 800 l 1
 871 711 l 1
 800 674 l 1
 863 600 900 504 900 400 c 0
 900 296 863 200 800 126 c 1
 871 89 l 1
785 497 m 1
 737 490 700 448 700 398 c 0
 700 348 736 307 784 299 c 1
 794 331 800 365 800 400 c 0
 800 434 795 466 785 497 c 1
738 590 m 1
 729 603 719 616 708 627 c 1
 268 400 l 1
 708 173 l 1
 719 184 729 197 738 210 c 1
 658 236 600 311 600 400 c 0
 600 489 658 564 738 590 c 1
EndSplineSet
MultipleSubs2: "CCMP cartouches" t.oko cart.body
Ligature2: "LIGA basics" o k o
EndChar

StartChar: t.kipisi
Encoding: 221 989563 197
Width: 1000
Flags: W
HStem: 100 150<673.417 776.583> 550 150<223.417 326.583>
VStem: 200 150<573.417 676.583> 650 150<123.417 226.583>
LayerCount: 2
Fore
SplineSet
200 625 m 0
 200 666 234 700 275 700 c 0
 316 700 350 666 350 625 c 0
 350 584 316 550 275 550 c 0
 234 550 200 584 200 625 c 0
650 175 m 0
 650 216 684 250 725 250 c 0
 766 250 800 216 800 175 c 0
 800 134 766 100 725 100 c 0
 684 100 650 134 650 175 c 0
200 171 m 1
 729 700 l 1
 800 629 l 1
 271 100 l 1
 200 171 l 1
EndSplineSet
LCarets2: 5 -75 -75 -75 -75 -75
MultipleSubs2: "CCMP cartouches" t.kipisi cart.body
Ligature2: "LIGA basics" k i p i s i
EndChar

StartChar: t.leko
Encoding: 222 989564 198
Width: 1000
Flags: W
HStem: 0 100<200 800> 200 100<400 600> 500 100<400 600> 700 100<200 800>
VStem: 100 100<100 700> 300 100<300 500> 600 100<300 500> 800 100<100 700>
LayerCount: 2
Fore
SplineSet
400 500 m 1
 400 300 l 1
 600 300 l 1
 600 500 l 1
 400 500 l 1
300 600 m 1
 700 600 l 1
 700 200 l 1
 300 200 l 1
 300 600 l 1
200 700 m 1
 200 100 l 1
 800 100 l 1
 800 700 l 1
 200 700 l 1
100 800 m 1
 900 800 l 1
 900 0 l 1
 100 0 l 1
 100 800 l 1
EndSplineSet
MultipleSubs2: "CCMP cartouches" t.leko cart.body
Ligature2: "LIGA basics" l e k o
EndChar

StartChar: t.monsuta
Encoding: 223 989565 199
Width: 1000
Flags: W
HStem: 530 20G<239.091 262.063 737.937 760.909>
LayerCount: 2
Fore
SplineSet
500 650 m 1
 555 533 l 1
 636 361 l 1
 750 550 l 1
 900 275 l 1
 812 227 l 1
 746 349 l 1
 625 150 l 1
 500 415 l 1
 375 150 l 1
 254 349 l 1
 188 227 l 1
 100 275 l 1
 250 550 l 1
 364 361 l 1
 445 533 l 1
 500 650 l 1
EndSplineSet
MultipleSubs2: "CCMP cartouches" t.monsuta cart.body
Ligature2: "LIGA basics" m o n s u t a
EndChar

StartChar: t.tonsi
Encoding: 224 989566 200
Width: 1000
Flags: W
HStem: 129 96<411.02 450 550 588.98> 625 100<409.836 590.164>
VStem: 200 100<336.286 514.923> 450 100<-50 133.026> 700 100<336.286 514.923>
CounterMasks: 1 38
LayerCount: 2
Fore
SplineSet
500 625 m 0
 390 625 300 535 300 425 c 0
 300 315 390 225 500 225 c 0
 610 225 700 315 700 425 c 0
 700 535 610 625 500 625 c 0
146 825 m 1
 312 659 l 1
 363 700 429 725 500 725 c 0
 571 725 637 700 688 659 c 1
 854 825 l 1
 925 754 l 1
 755 584 l 1
 784 538 800 483 800 425 c 0
 800 277 692 153 550 129 c 1
 550 -50 l 1
 450 -50 l 1
 450 129 l 1
 308 153 200 277 200 425 c 0
 200 483 216 538 245 584 c 1
 75 754 l 1
 146 825 l 1
EndSplineSet
LCarets2: 4 -75 -75 -75 -75
MultipleSubs2: "CCMP cartouches" t.tonsi cart.body
Ligature2: "LIGA basics" t o n s i
EndChar

StartChar: t.jasima
Encoding: 225 989567 201
Width: 1000
Flags: W
HStem: 72 100<597.868 751.083> 278 100<248.917 402.132> 422 100<598.315 751.083> 628 100<248.917 402.132>
VStem: 75 100<128 202.316 478 552.316> 450 100<-25 105 213.962 236.038 345 455 563.962 586.038 695 825> 825 100<247.684 322 597.684 672>
CounterMasks: 1 0e
LayerCount: 2
Fore
SplineSet
175 478 m 1
 75 478 l 1
 75 616 187 728 325 728 c 0
 370 728 413 717 450 695 c 1
 450 825 l 1
 550 825 l 1
 550 589 l 1
 578 547 624 522 675 522 c 0
 758 522 825 589 825 672 c 1
 925 672 l 1
 925 534 813 422 675 422 c 0
 654 422 604 424 550 455 c 1
 550 239 l 1
 578 197 624 172 675 172 c 0
 758 172 825 239 825 322 c 1
 925 322 l 1
 925 184 813 72 675 72 c 0
 630 72 587 83 550 105 c 1
 550 -25 l 1
 450 -25 l 1
 450 211 l 1
 422 253 376 278 325 278 c 0
 242 278 175 211 175 128 c 1
 75 128 l 1
 75 266 187 378 325 378 c 0
 370 378 413 367 450 345 c 1
 450 561 l 1
 422 603 376 628 325 628 c 0
 242 628 175 561 175 478 c 1
EndSplineSet
LCarets2: 5 -75 -75 -75 -75 -75
MultipleSubs2: "CCMP cartouches" t.jasima cart.body
Ligature2: "LIGA basics" j a s i m a
EndChar

StartChar: t.soko
Encoding: 227 989569 202
Width: 1000
Flags: W
HStem: 150 100<300 450 550 700> 400 100<204 450 550 796> 750 100<389.516 610.484>
VStem: 450 100<-25 150 250 400>
LayerCount: 2
Fore
SplineSet
204 500 m 1
 796 500 l 1
 772 642 648 750 500 750 c 0
 352 750 228 642 204 500 c 1
100 400 m 1
 100 450 l 2
 100 671 279 850 500 850 c 0
 721 850 900 671 900 450 c 2
 900 400 l 1
 550 400 l 1
 550 250 l 1
 700 250 l 1
 700 150 l 1
 550 150 l 1
 550 -25 l 1
 450 -25 l 1
 450 150 l 1
 300 150 l 1
 300 250 l 1
 450 250 l 1
 450 400 l 1
 100 400 l 1
EndSplineSet
LCarets2: 3 -75 -75 -75
MultipleSubs2: "CCMP cartouches" t.soko cart.body
Ligature2: "LIGA basics" s o k o
EndChar

StartChar: t.kijetesantakalu
Encoding: 226 989568 203
Width: 1000
Flags: W
HStem: -50 100<190.696 250 350 441> 250 100<190.696 250> 419 112<512.376 563.624> 469 112<649.376 700.624> 750 100<540.465 700>
VStem: 50 100<89.5269 210.473> 250 100<50 250 350 559.535> 482 112<449.376 500.624> 600 100<-50 250> 619 113<499.376 568.841> 700 100<700 750> 750 100<-50 400>
LayerCount: 2
Fore
SplineSet
600 250 m 1xcf80
 700 250 l 1
 700 -50 l 1
 600 -50 l 1
 600 250 l 1xcf80
250 250 m 1
 195 250 150 205 150 150 c 0
 150 95 195 50 250 50 c 1
 250 250 l 1
540 531 m 2xef
 561 530 579 518 588 501 c 0
 592 493 594 484 594 475 c 0
 594 453 582 434 564 425 c 0
 556 421 547 419 538 419 c 0
 516 419 497 431 488 449 c 0
 484 457 482 466 482 475 c 0
 482 497 494 516 512 525 c 0
 520 529 529 531 538 531 c 0
 539 531 539 531 540 531 c 2xef
678 581 m 2xdf40
 699 580 716 568 725 551 c 0
 729 543 732 534 732 525 c 0
 732 503 719 484 701 475 c 0
 693 471 684 469 675 469 c 0
 653 469 634 481 625 499 c 0
 621 507 619 516 619 525 c 0
 619 547 631 566 649 575 c 0
 657 579 666 581 675 581 c 0
 676 581 677 581 678 581 c 2xdf40
650 850 m 2
 700 850 l 1
 800 850 l 1
 800 750 l 1
 800 700 l 1xdf20
 889 581 l 1
 950 500 l 1
 850 400 l 1
 850 -50 l 1
 750 -50 l 1
 750 323 l 1
 750 441 l 1xdf10
 818 509 l 1
 700 667 l 1
 700 750 l 1xdf20
 650 750 l 2
 484 750 350 616 350 450 c 2
 350 50 l 1
 441 50 l 1
 425 250 l 1
 525 250 l 1
 550 -50 l 1
 525 -50 l 1
 350 -50 l 1
 250 -50 l 2
 140 -50 50 40 50 150 c 0
 50 260 140 350 250 350 c 1
 250 450 l 2
 250 671 429 850 650 850 c 2
EndSplineSet
LCarets2: 14 -75 -75 -75 -75 -75 -75 -75 -75 -75 -75 -75 -75 -75 -75
MultipleSubs2: "CCMP cartouches" t.kijetesantakalu cart.body
Ligature2: "LIGA basics" k i j e t e s a n t a k a l u
EndChar

StartChar: t.meso
Encoding: 228 989570 204
Width: 1000
Flags: W
HStem: 0 21G<200 300 700 800> 325 150<448.417 551.583> 780 20G<200 300 700 800>
VStem: 200 100<0 800> 425 150<348.417 451.583> 700 100<0 800>
CounterMasks: 1 1c
LayerCount: 2
Fore
SplineSet
700 0 m 1
 700 800 l 1
 800 800 l 1
 800 0 l 1
 700 0 l 1
200 0 m 1
 200 800 l 1
 300 800 l 1
 300 0 l 1
 200 0 l 1
425 400 m 0
 425 441 459 475 500 475 c 0
 541 475 575 441 575 400 c 0
 575 359 541 325 500 325 c 0
 459 325 425 359 425 400 c 0
EndSplineSet
LCarets2: 3 -75 -75 -75
MultipleSubs2: "CCMP cartouches" t.meso cart.body
Ligature2: "LIGA basics" m e s o
EndChar

StartChar: t.epiku
Encoding: 229 989571 205
Width: 1000
Flags: W
HStem: 25 100<403.504 596.496> 550 21G<450 550>
VStem: 150 100<279.289 375> 450 100<550 775> 750 100<279.289 375>
CounterMasks: 1 38
LayerCount: 2
Fore
SplineSet
500 25 m 0
 307 25 150 182 150 375 c 1
 150 375 161 375 176 375 c 0
 206 375 250 375 250 375 c 1
 250 237 362 125 500 125 c 0
 638 125 750 237 750 375 c 1
 750 375 761 375 776 375 c 0
 806 375 850 375 850 375 c 1
 850 182 693 25 500 25 c 0
390 530 m 1
 310 470 l 1
 175 650 l 1
 255 710 l 1
 390 530 l 1
610 530 m 1
 745 710 l 1
 825 650 l 1
 690 470 l 1
 610 530 l 1
450 550 m 1
 450 775 l 1
 550 775 l 1
 550 550 l 1
 450 550 l 1
EndSplineSet
LCarets2: 4 -75 -75 -75 -75
MultipleSubs2: "CCMP cartouches" t.epiku cart.body
Ligature2: "LIGA basics" e p i k u
EndChar

StartChar: t.kokosila
Encoding: 230 989572 206
Width: 1000
Flags: W
HStem: -25 100<409.045 590.088> 475 100<409.912 589.058> 559 21G<286.8 333.51 666.49 713.2>
VStem: 200 100<232.704 365.088> 450 100<625 825> 700 100<184.912 338.206>
CounterMasks: 1 1c
LayerCount: 2
Fore
SplineSet
500 475 m 0xdc
 390 475 300 385 300 275 c 0
 300 260 302 246 305 232 c 1
 635 423 l 1
 599 455 552 475 500 475 c 0xdc
385 608 m 1
 298 559 l 1xbc
 200 734 l 1
 287 783 l 1
 385 608 l 1
615 608 m 1
 713 783 l 1
 800 734 l 1
 702 559 l 1
 615 608 l 1
450 625 m 1
 450 825 l 1
 550 825 l 1
 550 625 l 1
 450 625 l 1
211 63 m 1
 161 150 l 1
 215 181 l 1
 205 211 200 242 200 275 c 0
 200 441 334 575 500 575 c 0
 589 575 669 537 724 475 c 1xdc
 789 512 l 1
 839 425 l 1
 777 390 l 1
 792 355 800 316 800 275 c 0
 800 109 666 -25 500 -25 c 0
 403 -25 317 21 262 92 c 1
 211 63 l 1
350 143 m 1
 387 101 440 75 500 75 c 0
 610 75 700 165 700 275 c 0
 700 297 696 319 689 339 c 1
 350 143 l 1
EndSplineSet
LCarets2: 7 -75 -75 -75 -75 -75 -75 -75
MultipleSubs2: "CCMP cartouches" t.kokosila cart.body
Ligature2: "LIGA basics" k o k o s i l a
EndChar

StartChar: t.lanpan
Encoding: 231 989573 207
Width: 1000
Flags: W
HStem: -50 100<239.527 360.473> 75 150<596.417 699.583> 300 100<573.917 726.083> 450 100<436.368 559.473> 750 100<438.696 559.304>
VStem: 100 100<89.5269 299.595> 298 100<608.812 710.473> 400 100<90.6958 224.316> 573 150<98.0309 201.583> 598 102<589.527 710.473> 800 100<74.0074 226.083>
LayerCount: 2
Fore
SplineSet
648 225 m 0xffa0
 689 225 723 191 723 150 c 0
 723 109 690 75 648 75 c 0
 607 75 573 108 573 150 c 0
 573 191 607 225 648 225 c 0xffa0
498 750 m 0
 443 750 398 705 398 650 c 0
 398 595 443 550 498 550 c 0
 553 550 598 595 598 650 c 0xff60
 598 705 553 750 498 750 c 0
498 850 m 2
 500 850 l 2
 610 850 700 760 700 650 c 0
 700 540 610 450 500 450 c 0
 438 450 383 479 346 523 c 1
 252 421 200 288 200 150 c 0
 200 95 245 50 300 50 c 0
 355 50 400 95 400 150 c 0
 400 288 512 400 650 400 c 0
 788 400 900 288 900 150 c 0
 900 71 863 -3 800 -50 c 1
 740 30 l 1
 778 58 800 103 800 150 c 0
 800 233 733 300 650 300 c 0
 567 300 500 233 500 150 c 0
 500 40 410 -50 300 -50 c 0
 190 -50 100 40 100 150 c 0
 100 328 173 498 302 621 c 1
 298 630 298 640 298 650 c 0
 298 760 388 850 498 850 c 2
EndSplineSet
LCarets2: 5 -75 -75 -75 -75 -75
MultipleSubs2: "CCMP cartouches" t.lanpan cart.body
Ligature2: "LIGA basics" l a n p a n
EndChar

StartChar: t.n
Encoding: 232 989574 208
Width: 1000
Flags: W
HStem: 262 100<439.527 560.473>
VStem: 300 100<-25 221.304> 450 100<450 825> 600 100<-25 221.304>
CounterMasks: 1 70
LayerCount: 2
Fore
SplineSet
500 362 m 0
 610 362 700 272 700 162 c 2
 700 -25 l 1
 600 -25 l 1
 600 162 l 2
 600 217 555 262 500 262 c 0
 445 262 400 217 400 162 c 2
 400 -25 l 1
 300 -25 l 1
 300 162 l 2
 300 272 390 362 500 362 c 0
450 450 m 1
 450 825 l 1
 550 825 l 1
 550 450 l 1
 450 450 l 1
EndSplineSet
MultipleSubs2: "CCMP cartouches" t.n cart.body
Ligature2: "LIGA basics" n
EndChar

StartChar: t.misikeke
Encoding: 233 989575 209
Width: 1000
Flags: W
HStem: -25 100<431.658 568.342> 350 100<375 625> 725 100<431.658 568.342>
VStem: 275 100<133.19 350 450 666.81> 625 100<133.19 350 450 666.81>
CounterMasks: 1 e0
LayerCount: 2
Fore
SplineSet
375 350 m 1
 375 200 l 2
 375 131 431 75 500 75 c 0
 569 75 625 131 625 200 c 2
 625 350 l 1
 375 350 l 1
500 725 m 0
 431 725 375 669 375 600 c 2
 375 450 l 1
 625 450 l 1
 625 600 l 2
 625 669 569 725 500 725 c 0
500 825 m 0
 624 825 725 724 725 600 c 2
 725 200 l 2
 725 76 624 -25 500 -25 c 0
 376 -25 275 76 275 200 c 2
 275 600 l 2
 275 724 376 825 500 825 c 0
EndSplineSet
LCarets2: 7 -75 -75 -75 -75 -75 -75 -75
MultipleSubs2: "CCMP cartouches" t.misikeke cart.body
Ligature2: "LIGA basics" m i s i k e k e
EndChar

StartChar: t.ku
Encoding: 234 989576 210
Width: 1000
Flags: W
HStem: 0 100<275 450 553 725> 175 150<573.417 676.583> 700 100<275 513>
VStem: 175 100<100 700> 550 150<198.417 301.583> 725 100<100 375 478 700>
LayerCount: 2
Fore
SplineSet
625 325 m 0
 666 325 700 291 700 250 c 0
 700 209 666 175 625 175 c 0
 584 175 550 209 550 250 c 0
 550 291 584 325 625 325 c 0
468 439 m 1
 553 100 l 1
 725 100 l 1
 725 375 l 1
 468 439 l 1
725 700 m 1
 442 549 l 1
 725 478 l 1
 725 700 l 1
275 700 m 1
 275 100 l 1
 450 100 l 1
 325 600 l 1
 513 700 l 1
 275 700 l 1
175 800 m 1
 825 800 l 1
 825 0 l 1
 175 0 l 1
 175 800 l 1
EndSplineSet
LCarets2: 1 -75
MultipleSubs2: "CCMP cartouches" t.ku cart.body
Ligature2: "LIGA basics" k u
EndChar

StartChar: t.pake
Encoding: 245 989600 211
Width: 1000
Flags: W
HStem: 0 21G<450 550> 700 100<150 450 550 850>
VStem: 450 100<0 700>
LayerCount: 2
Fore
SplineSet
150 700 m 1
 150 800 l 1
 850 800 l 1
 850 700 l 1
 550 700 l 1
 550 0 l 1
 450 0 l 1
 450 700 l 1
 150 700 l 1
EndSplineSet
LCarets2: 3 -75 -75 -75
MultipleSubs2: "CCMP cartouches" t.pake cart.body
Ligature2: "LIGA basics" p a k e
EndChar

StartChar: t.apeja
Encoding: 246 989601 212
Width: 1000
Flags: W
HStem: -50 100<448.124 551.876> 200 100<448.124 551.876> 500 100<173.124 276.876 723.124 826.876> 530 20G<470.487 529.513> 750 100<173.124 276.876 723.124 826.876>
VStem: 50 100<623.124 726.876> 300 100<623.124 726.876> 325 100<73.1238 176.876> 575 100<73.1238 176.876> 600 100<623.124 726.876> 850 100<623.124 726.876>
LayerCount: 2
Fore
SplineSet
775 750 m 0xec60
 734 750 700 716 700 675 c 0
 700 634 734 600 775 600 c 0
 816 600 850 634 850 675 c 0
 850 716 816 750 775 750 c 0xec60
775 850 m 0
 872 850 950 772 950 675 c 0
 950 578 872 500 775 500 c 0
 678 500 600 578 600 675 c 0
 600 772 678 850 775 850 c 0
500 200 m 0
 459 200 425 166 425 125 c 0
 425 84 459 50 500 50 c 0
 541 50 575 84 575 125 c 0xcda0
 575 166 541 200 500 200 c 0
500 300 m 0
 597 300 675 222 675 125 c 0
 675 28 597 -50 500 -50 c 0
 403 -50 325 28 325 125 c 0
 325 222 403 300 500 300 c 0
225 750 m 0
 184 750 150 716 150 675 c 0
 150 634 184 600 225 600 c 0
 266 600 300 634 300 675 c 0xee20
 300 716 266 750 225 750 c 0
225 850 m 0
 322 850 400 772 400 675 c 0
 400 578 322 500 225 500 c 0
 128 500 50 578 50 675 c 0
 50 772 128 850 225 850 c 0
500 550 m 1xdc20
 894 283 l 1
 838 200 l 1
 500 429 l 1
 162 200 l 1
 106 283 l 1
 500 550 l 1xdc20
EndSplineSet
MultipleSubs2: "CCMP cartouches" t.apeja cart.body
Ligature2: "LIGA basics" a p e j a
EndChar

StartChar: t.majuna
Encoding: 247 989602 213
Width: 1000
Flags: W
HStem: 200 100<100 350 650 900>
VStem: 450 100<400 650>
LayerCount: 2
Fore
SplineSet
100 200 m 1
 100 300 l 1
 350 300 l 1
 350 200 l 1
 100 200 l 1
450 650 m 1
 550 650 l 1
 550 400 l 1
 450 400 l 1
 450 650 l 1
429 391 m 1
 359 321 l 1
 182 497 l 1
 253 568 l 1
 429 391 l 1
571 391 m 1
 747 568 l 1
 818 497 l 1
 641 321 l 1
 571 391 l 1
650 200 m 1
 650 300 l 1
 900 300 l 1
 900 200 l 1
 650 200 l 1
EndSplineSet
LCarets2: 5 -75 -75 -75 -75 -75
MultipleSubs2: "CCMP cartouches" t.majuna cart.body
Ligature2: "LIGA basics" m a j u n a
EndChar

StartChar: t.powe
Encoding: 248 989603 214
Width: 1000
Flags: W
HStem: 150 100<100 900>
LayerCount: 2
Fore
SplineSet
394 677 m 1
 500 571 l 1
 606 677 l 1
 677 606 l 1
 571 500 l 1
 677 394 l 1
 606 323 l 1
 500 429 l 1
 394 323 l 1
 323 394 l 1
 429 500 l 1
 323 606 l 1
 394 677 l 1
100 150 m 1
 100 250 l 1
 900 250 l 1
 900 150 l 1
 100 150 l 1
EndSplineSet
LCarets2: 3 -75 -75 -75
MultipleSubs2: "CCMP cartouches" t.powe cart.body
Ligature2: "LIGA basics" p o w e
EndChar

StartChar: morae.dotdot
Encoding: 273 -1 215
Width: 1000
Flags: W
HStem: 300 200<263.358 386.642 613.358 736.642>
VStem: 225 200<338.358 461.642> 575 200<338.358 461.642>
LayerCount: 2
Fore
SplineSet
675 500 m 0
 730 500 775 455 775 400 c 0
 775 345 730 300 675 300 c 0
 620 300 575 345 575 400 c 0
 575 455 620 500 675 500 c 0
325 500 m 0
 380 500 425 455 425 400 c 0
 425 345 380 300 325 300 c 0
 270 300 225 345 225 400 c 0
 225 455 270 500 325 500 c 0
EndSplineSet
MultipleSubs2: "CCMP cartouches" morae.dotdot cart.body
Ligature2: "LIGA basics" glyph192 glyph192
EndChar

StartChar: morae.dotdotdot
Encoding: 274 -1 216
Width: 1000
Flags: W
HStem: 300 200<138.358 261.642 438.358 561.642 738.358 861.642>
VStem: 100 200<338.358 461.642> 400 200<338.358 461.642> 700 200<338.358 461.642>
CounterMasks: 1 70
LayerCount: 2
Fore
SplineSet
200 500 m 0
 255 500 300 455 300 400 c 0
 300 345 255 300 200 300 c 0
 145 300 100 345 100 400 c 0
 100 455 145 500 200 500 c 0
800 500 m 0
 855 500 900 455 900 400 c 0
 900 345 855 300 800 300 c 0
 745 300 700 345 700 400 c 0
 700 455 745 500 800 500 c 0
500 500 m 0
 555 500 600 455 600 400 c 0
 600 345 555 300 500 300 c 0
 445 300 400 345 400 400 c 0
 400 455 445 500 500 500 c 0
EndSplineSet
MultipleSubs2: "CCMP cartouches" morae.dotdotdot cart.body
Ligature2: "LIGA basics" glyph192 glyph192 glyph192
EndChar

StartChar: exclam
Encoding: 1 33 217
Width: 500
Flags: W
HStem: 0 150<198.417 301.583>
VStem: 175 150<23.4173 126.583> 200 100<212 812>
LayerCount: 2
Fore
SplineSet
175 75 m 0xc0
 175 116 209 150 250 150 c 0
 291 150 325 116 325 75 c 0
 325 34 291 0 250 0 c 0
 209 0 175 34 175 75 c 0xc0
200 212 m 1xa0
 200 812 l 1
 300 812 l 1
 300 212 l 1
 200 212 l 1xa0
EndSplineSet
EndChar

StartChar: quotedbl
Encoding: 2 34 218
Width: 500
Flags: W
HStem: 612 200<100 200 300 400>
VStem: 100 100<612 812> 300 100<612 812>
LayerCount: 2
Fore
SplineSet
100 612 m 1
 100 812 l 1
 200 812 l 1
 200 612 l 1
 100 612 l 1
300 612 m 1
 300 812 l 1
 400 812 l 1
 400 612 l 1
 300 612 l 1
EndSplineSet
EndChar

StartChar: numbersign
Encoding: 3 35 219
Width: 500
Flags: W
HStem: 212 100<38 100 200 300 400 462> 512 100<38 100 200 300 400 462>
VStem: 100 100<12 212 312 512 612 812> 300 100<12 212 312 512 612 812>
LayerCount: 2
Fore
SplineSet
200 312 m 1
 300 312 l 1
 300 512 l 1
 200 512 l 1
 200 312 l 1
100 212 m 1
 38 212 l 1
 38 312 l 1
 100 312 l 1
 100 512 l 1
 38 512 l 1
 38 612 l 1
 100 612 l 1
 100 812 l 1
 200 812 l 1
 200 612 l 1
 300 612 l 1
 300 812 l 1
 400 812 l 1
 400 612 l 1
 462 612 l 1
 462 512 l 1
 400 512 l 1
 400 312 l 1
 462 312 l 1
 462 212 l 1
 400 212 l 1
 400 12 l 1
 300 12 l 1
 300 212 l 1
 200 212 l 1
 200 12 l 1
 100 12 l 1
 100 212 l 1
EndSplineSet
EndChar

StartChar: dollar
Encoding: 4 36 220
Width: 500
Flags: W
HStem: 0 21G<200 300> 562 21G<350 450>
VStem: 50 100<200.47 263 501.761 624.927> 200 100<0 75.1794 176 349 476 649 749.821 825> 350 100<200.073 323.239 562 624.53>
CounterMasks: 1 38
LayerCount: 2
Fore
SplineSet
200 476 m 1
 200 649 l 1
 170 632 150 600 150 563 c 0
 150 526 170 493 200 476 c 1
300 349 m 1
 300 176 l 1
 330 193 350 225 350 262 c 0
 350 299 330 332 300 349 c 1
200 756 m 1
 200 825 l 1
 300 825 l 1
 300 756 l 1
 386 734 450 655 450 562 c 1
 350 562 l 1
 350 599 330 632 300 649 c 1
 300 456 l 1
 386 434 450 356 450 263 c 0
 450 170 386 91 300 69 c 1
 300 0 l 1
 200 0 l 1
 200 69 l 1
 114 91 50 170 50 263 c 1
 150 263 l 1
 150 226 170 193 200 176 c 1
 200 369 l 1
 114 391 50 469 50 562 c 0
 50 655 114 734 200 756 c 1
EndSplineSet
EndChar

StartChar: percent
Encoding: 5 37 221
Width: 500
Flags: W
HStem: 0 188<309.172 428.421> 638 187<71.5786 190.828>
VStem: 38 187<671.579 790.828> 275 187<34.1719 153.828>
LayerCount: 2
Fore
SplineSet
355 812 m 1
 462 812 l 1
 145 12 l 1
 38 12 l 1
 355 812 l 1
38 731 m 0
 38 783 79 825 131 825 c 0
 183 825 225 783 225 731 c 0
 225 679 183 638 131 638 c 0
 79 638 38 679 38 731 c 0
275 94 m 0
 275 146 317 188 369 188 c 0
 421 188 462 146 462 94 c 0
 462 42 421 0 369 0 c 0
 317 0 275 42 275 94 c 0
EndSplineSet
EndChar

StartChar: ampersand
Encoding: 6 38 222
Width: 500
Flags: W
HStem: 0 100<186.045 291.103> 725 100<150.635 237.365>
VStem: 38 100<148.045 282.773 610.182 712.365> 250 100<615.1 712.365> 363 99<195.778 425>
LayerCount: 2
Fore
SplineSet
194 825 m 0
 280 825 350 755 350 669 c 0
 350 643 344 617 331 594 c 2
 244 436 l 1
 361 195 l 1
 362 201 363 206 363 212 c 2
 363 425 l 1
 462 425 l 1
 462 212 l 2
 462 162 446 117 417 81 c 1
 450 12 l 1
 339 12 l 1
 336 18 l 1
 310 6 281 0 250 0 c 0
 133 0 38 95 38 212 c 0
 38 248 47 284 64 315 c 2
 132 439 l 1
 53 600 l 2
 43 621 38 645 38 669 c 0
 38 755 108 825 194 825 c 0
194 725 m 0
 163 725 138 700 138 669 c 0
 138 660 139 652 143 644 c 2
 191 546 l 1
 243 642 l 2
 248 650 250 660 250 669 c 0
 250 700 225 725 194 725 c 0
185 329 m 1
 151 267 l 2
 142 250 138 231 138 212 c 0
 138 150 188 100 250 100 c 0
 265 100 279 103 292 108 c 1
 185 329 l 1
EndSplineSet
EndChar

StartChar: quotesingle
Encoding: 7 39 223
Width: 500
Flags: W
HStem: 612 200<200 300>
VStem: 200 100<612 812>
LayerCount: 2
Fore
SplineSet
200 612 m 1
 200 812 l 1
 300 812 l 1
 300 612 l 1
 200 612 l 1
EndSplineSet
EndChar

StartChar: parenleft
Encoding: 8 40 224
Width: 500
Flags: W
HStem: -13 21G<266.5 338>
VStem: 100 100<283.647 542.268>
LayerCount: 2
Fore
SplineSet
338 838 m 1
 390 753 l 1
 276 683 200 557 200 413 c 0
 200 174 390 76 390 72 c 0
 390 71 338 -13 338 -13 c 1
 195 75 100 233 100 413 c 0
 100 593 195 750 338 838 c 1
EndSplineSet
EndChar

StartChar: parenright
Encoding: 9 41 225
Width: 500
Flags: W
HStem: -13 21G<162.529 246.5>
VStem: 313 100<283.538 542.268>
LayerCount: 2
Fore
SplineSet
175 838 m 1
 318 750 413 593 413 413 c 0
 413 233 318 75 175 -13 c 1
 122 72 l 1
 236 142 313 269 313 413 c 0
 313 557 236 683 122 753 c 1
 175 838 l 1
EndSplineSet
EndChar

StartChar: asterisk
Encoding: 10 42 226
Width: 500
Flags: W
VStem: 200 100<412 538 688 812>
LayerCount: 2
Fore
SplineSet
200 812 m 1
 300 812 l 1
 300 688 l 1
 398 756 l 1
 448 669 l 1
 338 612 l 1
 448 556 l 1
 398 469 l 1
 300 538 l 1
 300 412 l 1
 200 412 l 1
 200 538 l 1
 102 469 l 1
 52 556 l 1
 163 612 l 1
 52 669 l 1
 102 756 l 1
 200 688 l 1
 200 812 l 1
EndSplineSet
EndChar

StartChar: plus
Encoding: 11 43 227
Width: 500
Flags: W
HStem: 362 101<50 200 300 450>
VStem: 200 100<212 362 463 613>
LayerCount: 2
Fore
SplineSet
200 613 m 1
 300 613 l 1
 300 463 l 1
 450 463 l 1
 450 362 l 1
 300 362 l 1
 300 212 l 1
 200 212 l 1
 200 362 l 1
 50 362 l 1
 50 463 l 1
 200 463 l 1
 200 613 l 1
EndSplineSet
EndChar

StartChar: comma
Encoding: 12 44 228
Width: 500
Flags: W
HStem: -38 176<187 238>
VStem: 187 125<-54.6486 -38>
LayerCount: 2
Fore
SplineSet
187 138 m 1
 312 138 l 1
 238 -38 l 1
 187 -38 l 1
 187 138 l 1
EndSplineSet
EndChar

StartChar: hyphen
Encoding: 13 45 229
Width: 500
Flags: W
HStem: 362 100<50 450>
LayerCount: 2
Fore
SplineSet
50 362 m 1
 50 462 l 1
 450 462 l 1
 450 362 l 1
 50 362 l 1
EndSplineSet
EndChar

StartChar: slash
Encoding: 15 47 230
Width: 500
Flags: W
HStem: 0 21G<38 152.925> 780 20G<347.075 462>
LayerCount: 2
Fore
SplineSet
355 800 m 1
 462 800 l 1
 145 0 l 1
 38 0 l 1
 355 800 l 1
EndSplineSet
EndChar

StartChar: less
Encoding: 28 60 231
Width: 500
Flags: W
LayerCount: 2
Fore
SplineSet
450 616 m 1
 450 510 l 1
 191 412 l 1
 450 315 l 1
 450 209 l 1
 50 359 l 1
 50 466 l 1
 450 616 l 1
EndSplineSet
EndChar

StartChar: equal
Encoding: 29 61 232
Width: 500
VWidth: 900
Flags: W
HStem: 250 100<50 450> 450 100<50 450>
LayerCount: 2
Fore
SplineSet
50 450 m 1
 50 550 l 1
 450 550 l 1
 450 450 l 1
 50 450 l 1
50 250 m 1
 50 350 l 1
 450 350 l 1
 450 250 l 1
 50 250 l 1
EndSplineSet
EndChar

StartChar: greater
Encoding: 30 62 233
Width: 500
VWidth: 900
Flags: W
LayerCount: 2
Fore
SplineSet
50 604 m 1
 450 454 l 1
 450 346 l 1
 50 196 l 1
 50 197 l 1
 50 303 l 1
 309 400 l 1
 50 497 l 1
 50 604 l 1
EndSplineSet
EndChar

StartChar: question
Encoding: 31 63 234
Width: 500
VWidth: 925
Flags: W
HStem: 0 150<185.941 288.583> 725 100<173.83 301.955>
VStem: 25 100<612 675.103> 162 150<23.4173 126.583> 188 100<212 374.287> 350 100<512.031 675.103>
LayerCount: 2
Fore
SplineSet
238 825 m 0xec
 355 825 450 729 450 612 c 2
 450 575 l 2
 450 475 381 390 288 368 c 1
 288 212 l 1
 188 212 l 1
 188 462 l 1
 238 462 l 2
 300 462 350 513 350 575 c 2
 350 612 l 2
 350 674 300 725 238 725 c 0
 176 725 125 674 125 612 c 1
 25 612 l 1
 25 729 121 825 238 825 c 0xec
238 150 m 0
 279 150 312 116 312 75 c 0
 312 34 278 0 237 0 c 0
 196 0 162 33 162 75 c 0xf4
 162 116 197 150 238 150 c 0
EndSplineSet
EndChar

StartChar: at
Encoding: 32 64 235
Width: 500
VWidth: 912
Flags: W
HStem: -12 612<88.3579 211.642> -12 74<258.729 341.238> 712 100<57.815 240.088>
VStem: 50 200<70.4375 561.642> 350 100<72.0297 601.328>
LayerCount: 2
Fore
SplineSet
150 812 m 0x78
 316 812 450 678 450 512 c 2
 450 112 l 2
 450 43 394 -12 325 -12 c 0x78
 288 -12 255 3 232 29 c 1
 214 4 184 -12 150 -12 c 0
 95 -12 50 33 50 88 c 2
 50 500 l 2
 50 555 95 600 150 600 c 0xb8
 205 600 250 555 250 500 c 2
 250 112 l 2
 250 84 272 62 300 62 c 0
 328 62 350 84 350 112 c 2
 350 112 350 290 350 409 c 0
 350 468 350 512 350 512 c 1
 350 622 260 712 150 712 c 0
 114 712 79 703 50 686 c 1
 50 795 l 1
 81 806 115 812 150 812 c 0x78
EndSplineSet
EndChar

StartChar: semicolon
Encoding: 27 59 236
Width: 500
VWidth: 900
Flags: W
HStem: 325 150<198.417 301.583>
VStem: 175 150<348.417 451.583>
LayerCount: 2
Fore
SplineSet
175 400 m 0
 175 441 209 475 250 475 c 0
 291 475 325 441 325 400 c 0
 325 359 291 325 250 325 c 0
 209 325 175 359 175 400 c 0
187 125 m 1
 312 125 l 1
 238 -50 l 1
 187 -50 l 1
 187 125 l 1
EndSplineSet
EndChar

StartChar: backslash
Encoding: 60 92 237
Width: 500
Flags: W
HStem: 0 21G<347.075 462> 780 20G<38 152.925>
LayerCount: 2
Fore
SplineSet
145 800 m 1
 462 0 l 1
 355 0 l 1
 38 800 l 1
 145 800 l 1
EndSplineSet
EndChar

StartChar: asciicircum
Encoding: 62 94 238
Width: 500
VWidth: 900
Flags: W
HStem: 780 20G<192.5 315.5>
LayerCount: 2
Fore
SplineSet
458 400 m 1
 351 400 l 1
 254 659 l 1
 157 400 l 1
 51 400 l 1
 50 400 l 1
 200 800 l 1
 308 800 l 1
 458 400 l 1
EndSplineSet
EndChar

StartChar: underscore
Encoding: 63 95 239
Width: 500
VWidth: 900
Flags: W
HStem: 0 100<50 450>
LayerCount: 2
Fore
SplineSet
50 0 m 1
 50 100 l 1
 450 100 l 1
 450 0 l 1
 50 0 l 1
EndSplineSet
EndChar

StartChar: grave
Encoding: 64 96 240
Width: 500
VWidth: 912
Flags: W
HStem: 530 282
VStem: 109 282
LayerCount: 2
Fore
SplineSet
391 600 m 1
 321 530 l 1
 109 742 l 1
 179 812 l 1
 391 600 l 1
EndSplineSet
EndChar

StartChar: braceleft
Encoding: 91 123 241
Width: 500
VWidth: 900
Flags: W
HStem: 0 100<283.88 450> 350 100<50 216.562> 700 100<283.88 450>
VStem: 175 100<108.659 207.402 592.598 691.341> 225 100<242.598 341.392 458.608 557.402>
CounterMasks: 1 e0
LayerCount: 2
Fore
SplineSet
325 800 m 2xe8
 450 800 l 1
 450 700 l 1
 325 700 l 2xe8
 297 700 275 678 275 650 c 0xf0
 275 643 277 635 280 628 c 2
 310 565 l 2
 320 545 325 522 325 500 c 0
 325 462 311 427 287 400 c 1
 311 373 325 338 325 300 c 0xe8
 325 278 320 255 310 235 c 2
 280 172 l 2
 277 165 275 157 275 150 c 0xf0
 275 122 297 100 325 100 c 2
 450 100 l 1
 450 0 l 1
 325 0 l 2xe8
 242 0 175 67 175 150 c 0xf0
 175 172 180 195 190 215 c 2
 220 278 l 2
 223 285 225 293 225 300 c 0xe8
 225 328 203 350 175 350 c 0
 50 350 l 1
 50 450 l 1
 175 450 l 2xf0
 203 450 225 472 225 500 c 0xe8
 225 507 223 515 220 522 c 2
 190 585 l 2
 180 605 175 628 175 650 c 0xf0
 175 733 242 800 325 800 c 2xe8
EndSplineSet
EndChar

StartChar: bar
Encoding: 92 124 242
Width: 500
VWidth: 900
Flags: W
HStem: 0 21G<200 300> 780 20G<200 300>
VStem: 200 100<0 800>
LayerCount: 2
Fore
SplineSet
200 0 m 1
 200 800 l 1
 300 800 l 1
 300 0 l 1
 200 0 l 1
EndSplineSet
EndChar

StartChar: braceright
Encoding: 93 125 243
Width: 500
VWidth: 900
Flags: W
HStem: 0 100<50 216.12> 350 100<283.438 450> 700 100<50 216.12>
VStem: 175 100<242.598 341.392 458.608 557.402> 225 100<108.659 207.402 592.598 691.341>
CounterMasks: 1 e0
LayerCount: 2
Fore
SplineSet
175 800 m 2xf0
 258 800 325 733 325 650 c 0xe8
 325 628 320 605 310 585 c 2
 280 522 l 2
 277 515 275 507 275 500 c 0xf0
 275 472 297 450 325 450 c 2
 450 450 l 1
 450 350 l 1
 325 350 l 2xe8
 297 350 275 328 275 300 c 0xf0
 275 293 277 285 280 278 c 2
 310 215 l 2
 320 195 325 172 325 150 c 0xe8
 325 67 258 0 175 0 c 2
 50 0 l 1
 50 100 l 1
 175 100 l 2xf0
 203 100 225 122 225 150 c 0xe8
 225 157 223 165 220 172 c 2
 190 235 l 2
 180 255 175 278 175 300 c 0
 175 338 189 373 213 400 c 1
 189 427 175 462 175 500 c 0xf0
 175 522 180 545 190 565 c 2
 220 628 l 2
 223 635 225 643 225 650 c 0xe8
 225 678 203 700 175 700 c 2
 50 700 l 1
 50 800 l 1
 175 800 l 2xf0
EndSplineSet
EndChar

StartChar: asciitilde
Encoding: 94 126 244
Width: 500
VWidth: 900
Flags: W
HStem: 278 100<313.887 373.536> 397 100<151.464 211.113>
VStem: 50 100<303 395.476> 375 100<379.524 466>
LayerCount: 2
Fore
SplineSet
181 497 m 0
 224 497 266 475 290 439 c 2
 318 392 l 2
 324 383 334 378 344 378 c 0
 361 378 375 392 375 409 c 2
 375 466 l 1
 475 466 l 1
 475 409 l 2
 475 337 416 278 344 278 c 0
 301 278 259 300 235 336 c 2
 207 383 l 2
 201 392 191 397 181 397 c 0
 164 397 150 383 150 366 c 2
 150 303 l 1
 50 303 l 1
 50 366 l 2
 50 438 109 497 181 497 c 0
EndSplineSet
EndChar

StartChar: font.version
Encoding: 275 -1 245
Width: 1000
Flags: W
HStem: 0 21G<100 900> 750 50<150 200 350 400>
VStem: 100 50<500 750> 200 50<500 550> 300 50<500 550>
CounterMasks: 1 38
LayerCount: 2
Fore
SplineSet
250 550 m 1
 250 500 l 1
 300 500 l 1
 300 550 l 1
 250 550 l 1
350 750 m 1
 350 500 l 1
 400 500 l 1
 400 750 l 1
 350 750 l 1
150 750 m 1
 150 500 l 1
 200 500 l 1
 200 750 l 1
 150 750 l 1
100 800 m 1
 900 800 l 1
 900 0 l 1
 100 0 l 1
 100 800 l 1
EndSplineSet
LCarets2: 10 100 100 100 100 100 100 100 100 100 100
Ligature2: "LIGA basics" f o n t v e r s i o n
EndChar

StartChar: cart.hwbody
Encoding: 277 -1 248
Width: 0
Flags: W
HStem: -250 100<-500 0> 950 100<-500 0>
LayerCount: 2
Fore
SplineSet
-500 -150 m 1
 0 -150 l 1
 0 -250 l 1
 -500 -250 l 1
 -600 -200 l 1
 -500 -150 l 1
-500 1050 m 1
 -0 1050 l 1
 -0 950 l 1
 -500 950 l 1
 -600 1000 l 1
 -500 1050 l 1
EndSplineSet
EndChar

StartChar: cart.1tick
Encoding: 244 989598 249
Width: 0
Flags: W
HStem: -448 250<-550 -450>
VStem: -550 100<-448 -198>
LayerCount: 2
Fore
SplineSet
-550 -448 m 1
 -550 -198 l 1
 -450 -198 l 1
 -450 -448 l 1
 -550 -448 l 1
EndSplineSet
Ligature2: "LIGA basics" comma
EndChar

StartChar: cart.4ticks
Encoding: 278 -1 250
Width: 0
Flags: W
HStem: -450 250<-887 -787 -662 -562 -437 -337 -212 -112>
VStem: -887 100<-450 -200> -662 100<-450 -200> -437 100<-450 -200> -212 100<-450 -200>
LayerCount: 2
Fore
SplineSet
-212 -200 m 1
 -112 -200 l 1
 -112 -450 l 1
 -212 -450 l 1
 -212 -200 l 1
-437 -200 m 1
 -337 -200 l 1
 -337 -450 l 1
 -437 -450 l 1
 -437 -200 l 1
-662 -200 m 1
 -562 -200 l 1
 -562 -450 l 1
 -662 -450 l 1
 -662 -200 l 1
-887 -200 m 1
 -787 -200 l 1
 -787 -450 l 1
 -887 -450 l 1
 -887 -200 l 1
EndSplineSet
Ligature2: "LIGA basics" comma comma comma comma
EndChar

StartChar: cart.3ticks
Encoding: 279 -1 251
Width: 0
Flags: W
HStem: -450 250<-775 -675 -550 -450 -325 -225>
VStem: -775 100<-450 -200> -550 100<-450 -200> -325 100<-450 -200>
CounterMasks: 1 70
LayerCount: 2
Fore
SplineSet
-325 -200 m 1
 -225 -200 l 1
 -225 -450 l 1
 -325 -450 l 1
 -325 -200 l 1
-550 -200 m 1
 -450 -200 l 1
 -450 -450 l 1
 -550 -450 l 1
 -550 -200 l 1
-775 -200 m 1
 -675 -200 l 1
 -675 -450 l 1
 -775 -450 l 1
 -775 -200 l 1
EndSplineSet
Ligature2: "LIGA basics" comma comma comma
EndChar

StartChar: cart.2ticks
Encoding: 280 -1 252
Width: 0
Flags: W
HStem: -450 250<-675 -575 -425 -325>
VStem: -675 100<-450 -200> -425 100<-450 -200>
LayerCount: 2
Fore
SplineSet
-425 -450 m 1
 -425 -200 l 1
 -325 -200 l 1
 -325 -450 l 1
 -425 -450 l 1
-675 -450 m 1
 -675 -200 l 1
 -575 -200 l 1
 -575 -450 l 1
 -675 -450 l 1
EndSplineSet
LCarets2: 1 0
Ligature2: "LIGA basics" comma comma
EndChar

StartChar: periodcentered
Encoding: 95 183 253
Width: 1000
Flags: W
HStem: 300 200<438.358 561.642>
VStem: 400 200<338.358 461.642>
LayerCount: 2
Fore
SplineSet
500 500 m 0
 555 500 600 455 600 400 c 0
 600 345 555 300 500 300 c 0
 445 300 400 345 400 400 c 0
 400 455 445 500 500 500 c 0
EndSplineSet
MultipleSubs2: "CCMP cartouches" morae.dot cart.hwbody
Ligature2: "LIGA basics" glyph192
EndChar

StartChar: cart.5ticks
Encoding: 281 -1 254
Width: 0
Flags: W
HStem: -450 250<-900 -800 -725 -625 -550 -450 -375 -275 -200 -100>
VStem: -900 100<-450 -200> -725 100<-450 -200> -550 100<-450 -200> -375 100<-450 -200> -200 100<-450 -200>
LayerCount: 2
Fore
SplineSet
-200 -450 m 1
 -200 -200 l 1
 -100 -200 l 1
 -100 -450 l 1
 -200 -450 l 1
-900 -450 m 1
 -900 -200 l 1
 -800 -200 l 1
 -800 -450 l 1
 -900 -450 l 1
-725 -450 m 1
 -725 -200 l 1
 -625 -200 l 1
 -625 -450 l 1
 -725 -450 l 1
-375 -450 m 1
 -375 -200 l 1
 -275 -200 l 1
 -275 -450 l 1
 -375 -450 l 1
-550 -450 m 1
 -550 -200 l 1
 -450 -200 l 1
 -450 -450 l 1
 -550 -450 l 1
EndSplineSet
Ligature2: "LIGA basics" comma comma comma comma comma
EndChar

StartChar: t.ni.left
Encoding: 235 989577 255
Width: 1000
Flags: W
HStem: 350 100<275 900>
LayerCount: 2
Fore
SplineSet
900 450 m 1
 900 350 l 1
 275 350 l 1
 488 150 l 1
 412 75 l 1
 87 400 l 1
 412 725 l 1
 488 650 l 1
 275 450 l 1
 900 450 l 1
EndSplineSet
MultipleSubs2: "CCMP cartouches" t.ni.left cart.body
Ligature2: "LIGA alternates" t.ni zero four
Ligature2: "LIGA ni directions-1" t.ni less
EndChar

StartChar: t.ni.up
Encoding: 236 989578 256
Width: 1000
Flags: W
HStem: 0 21G<450 550>
VStem: 450 100<0 625>
LayerCount: 2
Fore
SplineSet
550 0 m 1
 450 0 l 1
 450 625 l 1
 250 412 l 1
 175 488 l 1
 500 813 l 1
 825 488 l 1
 750 412 l 1
 550 625 l 1
 550 0 l 1
EndSplineSet
MultipleSubs2: "CCMP cartouches" t.ni.up cart.body
Ligature2: "LIGA alternates" t.ni zero three
Ligature2: "LIGA ni directions-1" t.ni asciicircum
EndChar

StartChar: t.ni.right
Encoding: 237 989579 257
Width: 1000
Flags: W
HStem: 350 100<100 725>
LayerCount: 2
Fore
SplineSet
100 350 m 1
 100 450 l 1
 725 450 l 1
 512 650 l 1
 588 725 l 1
 913 400 l 1
 588 75 l 1
 512 150 l 1
 725 350 l 1
 100 350 l 1
EndSplineSet
MultipleSubs2: "CCMP cartouches" t.ni.right cart.body
Ligature2: "LIGA alternates" t.ni zero two
Ligature2: "LIGA ni directions-1" t.ni greater
EndChar

StartChar: t.sewi.secular
Encoding: 238 989580 258
Width: 1000
Flags: W
HStem: 400 100<200 800> 575 150<448.417 551.583>
VStem: 100 100<150 400> 425 150<598.417 701.583> 800 100<150 400>
CounterMasks: 1 38
LayerCount: 2
Fore
SplineSet
425 650 m 0
 425 691 459 725 500 725 c 0
 541 725 575 691 575 650 c 0
 575 609 541 575 500 575 c 0
 459 575 425 609 425 650 c 0
100 150 m 1
 100 500 l 1
 900 500 l 1
 900 150 l 1
 800 150 l 1
 800 400 l 1
 200 400 l 1
 200 150 l 1
 100 150 l 1
EndSplineSet
MultipleSubs2: "CCMP cartouches" t.sewi.secular cart.body
Ligature2: "LIGA alternates" t.sewi zero two
EndChar

StartChar: t.linluwi
Encoding: 249 989604 259
Width: 1000
Flags: W
HStem: -25 100<173.124 275.679 724.321 826.876> 100 100<385.653 614.347> 225 100<173.124 268.349 731.651 826.876> 475 100<456.651 543.349> 725 100<448.124 551.876>
VStem: 50 100<98.1238 201.876> 300 400<101.089 198.911> 325 100<598.422 701.876> 575 100<598.422 701.876> 850 100<98.1238 201.876>
LayerCount: 2
Fore
SplineSet
775 225 m 0xfe40
 734 225 700 191 700 150 c 0
 700 109 734 75 775 75 c 0
 816 75 850 109 850 150 c 0
 850 191 816 225 775 225 c 0xfe40
225 225 m 0
 184 225 150 191 150 150 c 0
 150 109 184 75 225 75 c 0
 266 75 300 109 300 150 c 0
 300 191 266 225 225 225 c 0
463 479 m 1
 350 273 l 1
 370 253 385 228 393 200 c 1
 393 200 488 200 552 200 c 0
 584 200 607 200 607 200 c 1
 615 228 630 253 650 273 c 1
 537 479 l 1
 525 476 513 475 500 475 c 0
 487 475 475 476 463 479 c 1
500 725 m 0
 459 725 425 691 425 650 c 0
 425 609 459 575 500 575 c 0
 541 575 575 609 575 650 c 0xfdc0
 575 691 541 725 500 725 c 0
500 825 m 0
 597 825 675 747 675 650 c 0
 675 602 656 559 625 527 c 1
 738 321 l 0
 750 324 762 325 775 325 c 0
 872 325 950 247 950 150 c 0
 950 53 872 -25 775 -25 c 0
 696 -25 629 28 607 100 c 1
 607 100 512 100 448 100 c 0
 416 100 393 100 393 100 c 1
 371 28 304 -25 225 -25 c 0
 128 -25 50 53 50 150 c 0
 50 247 128 325 225 325 c 0
 238 325 250 324 262 321 c 1
 375 527 l 1
 344 559 325 602 325 650 c 0
 325 747 403 825 500 825 c 0
EndSplineSet
MultipleSubs2: "CCMP cartouches" t.linluwi cart.body
Ligature2: "LIGA basics" l i n l u w i
EndChar

StartChar: t.kiki
Encoding: 250 989605 260
Width: 1000
Flags: W
HStem: 0 100<216 784> 150 75<437 563>
LayerCount: 2
Fore
SplineSet
500 344 m 1
 437 225 l 1
 563 225 l 1
 500 344 l 1
312 150 m 1
 500 504 l 1
 688 150 l 1
 312 150 l 1
500 636 m 1
 216 100 l 1
 784 100 l 1
 500 636 l 1
500 850 m 1
 950 0 l 1
 50 0 l 1
 500 850 l 1
EndSplineSet
MultipleSubs2: "CCMP cartouches" t.kiki cart.body
Ligature2: "LIGA basics" k i k i
EndChar

StartChar: t.su
Encoding: 251 989606 261
Width: 1000
Flags: W
HStem: -0 100<275 571 671.573 725> 500 100<369.776 630.811> 700 100<275 725>
VStem: 175 100<100 343 547 700> 725 100<100 444.748 546 700>
LayerCount: 2
Fore
SplineSet
175 800 m 1
 825 800 l 1
 825 -0 l 1
 175 -0 l 1
 175 800 l 1
292 442 m 1
 474 408 622 274 677 100 c 1
 725 100 l 1
 725 431 l 1
 661 475 583 500 500 500 c 0
 424 500 353 479 292 442 c 1
725 546 m 1
 725 700 l 1
 275 700 l 1
 275 547 l 1
 343 581 419 600 500 600 c 0
 581 600 657 580 725 546 c 1
571 100 m 1
 521 224 409 317 275 343 c 1
 275 100 l 1
 571 100 l 1
EndSplineSet
MultipleSubs2: "CCMP cartouches" t.su cart.body
Ligature2: "LIGA basics" s u
EndChar

StartChar: t.isipin
Encoding: 252 989607 262
Width: 1000
Flags: W
HStem: -25 100<384.912 565.088> 300 100<319 631 774 900> 475 100<385.224 563.659>
VStem: 175 100<184.912 298.873> 425 100<650 850> 675 100<184.912 300>
CounterMasks: 1 1c
LayerCount: 2
Fore
SplineSet
360 633 m 1
 273 584 l 1
 175 759 l 1
 262 808 l 1
 360 633 l 1
590 633 m 1
 688 808 l 1
 775 759 l 1
 677 584 l 1
 590 633 l 1
425 650 m 1
 425 850 l 1
 525 850 l 1
 525 650 l 1
 425 650 l 1
631 400 m 1
 594 446 538 475 475 475 c 0
 412 475 356 446 319 400 c 1
 631 400 l 1
673 300 m 1
 277 300 l 1
 276 292 275 283 275 275 c 0
 275 165 365 75 475 75 c 0
 585 75 675 165 675 275 c 0
 675 283 674 292 673 300 c 1
748 400 m 1
 900 400 l 1
 900 300 l 1
 774 300 l 1
 775 292 775 283 775 275 c 0
 775 109 641 -25 475 -25 c 0
 309 -25 175 109 175 275 c 0
 175 441 309 575 475 575 c 0
 596 575 701 503 748 400 c 1
EndSplineSet
MultipleSubs2: "CCMP cartouches" t.isipin cart.body
Ligature2: "LIGA basics" i s i p i n
EndChar

StartChar: t.kamalawala
Encoding: 253 989608 263
Width: 1000
Flags: W
HStem: -25 100<388.311 611.689> 300 100<50 102.555 209 306 447 553 694 791 897.445 950>
VStem: 101 100<400 481.758> 799 100<400 481.758>
LayerCount: 2
Fore
SplineSet
50 300 m 1
 50 400 l 1
 101 400 l 1
 113 600 273 761 473 774 c 1
 500 850 l 1
 527 774 l 1
 727 761 887 600 899 400 c 1
 950 400 l 1
 950 300 l 1
 893 300 l 1
 877 214 833 138 771 81 c 1
 800 0 l 1
 706 -33 l 1
 687 21 l 1
 631 -8 567 -25 500 -25 c 0
 433 -25 369 -8 313 21 c 1
 294 -33 l 1
 200 0 l 1
 229 81 l 1
 167 138 123 214 107 300 c 1
 50 300 l 1
209 300 m 1
 220 258 240 220 266 187 c 1
 306 300 l 1
 209 300 l 1
791 300 m 1
 694 300 l 1
 734 187 l 1
 760 220 780 258 791 300 c 1
201 400 m 1
 341 400 l 1
 436 668 l 1
 309 640 212 532 201 400 c 1
799 400 m 1
 788 532 691 640 564 668 c 1
 659 400 l 1
 799 400 l 1
447 400 m 1
 553 400 l 1
 500 550 l 1
 447 400 l 1
412 300 m 1
 347 117 l 1
 392 90 444 75 500 75 c 0
 556 75 608 90 653 117 c 1
 588 300 l 1
 412 300 l 1
EndSplineSet
MultipleSubs2: "CCMP cartouches" t.kamalawala cart.body
Ligature2: "LIGA basics" k a m a l a w a l a
EndChar

StartChar: t.kapesi
Encoding: 254 989609 264
Width: 1000
Flags: W
HStem: 0 100<377 623> 500 100<332 450 550 668>
VStem: 450 100<382 500 600 718>
LayerCount: 2
Fore
SplineSet
500 825 m 0
 652 825 775 702 775 550 c 0
 775 441 711 346 619 302 c 1
 800 0 l 1
 200 0 l 1
 381 302 l 1
 289 346 225 441 225 550 c 0
 225 702 348 825 500 825 c 0
450 500 m 1
 332 500 l 1
 349 444 394 399 450 382 c 1
 450 500 l 1
550 500 m 1
 550 382 l 1
 606 399 651 444 668 500 c 1
 550 500 l 1
450 600 m 1
 450 718 l 1
 394 701 349 656 332 600 c 1
 450 600 l 1
550 600 m 1
 668 600 l 1
 651 656 606 701 550 718 c 1
 550 600 l 1
482 276 m 2
 377 100 l 1
 623 100 l 1
 518 276 l 2
 512 276 506 275 500 275 c 0
 494 275 488 276 482 276 c 2
EndSplineSet
MultipleSubs2: "CCMP cartouches" t.kapesi cart.body
Ligature2: "LIGA basics" k a p e s i
EndChar

StartChar: t.melome
Encoding: 255 989610 265
Width: 1000
Flags: W
HStem: 313 100<344.114 447.594 552.406 656.054> 525 100<339.578 447.594 552.679 661.044> 750 100<386.002 613.998>
VStem: 75 100<-50 536.549> 225 100<195.738 298.017 409.627 510.422> 675 100<196.917 299.353 409.533 510.895> 825 100<-50 536.549>
LayerCount: 2
Fore
SplineSet
388 313 m 0
 351 313 325 287 325 250 c 0
 325 241 326 212 357 186 c 2
 500 62 l 1
 643 186 l 2
 662 203 675 225 675 250 c 0
 675 287 650 313 612 313 c 0
 550 313 525 263 500 213 c 1
 475 263 450 313 388 313 c 0
388 525 m 0
 351 525 325 499 325 462 c 0
 325 451 327 430 348 408 c 1
 361 411 374 413 388 413 c 0
 432 413 475 388 500 350 c 1
 525 388 568 413 612 413 c 0
 626 413 639 411 652 408 c 1
 670 428 675 447 675 462 c 0
 675 499 650 525 612 525 c 0
 550 525 525 475 500 425 c 1
 475 475 450 525 388 525 c 0
388 625 m 0
 432 625 475 600 500 562 c 1
 525 600 569 625 613 625 c 0
 703 625 775 552 775 462 c 0
 775 421 760 384 735 356 c 1
 760 328 775 291 775 250 c 0
 775 199 752 154 715 124 c 2
 500 -50 l 1
 285 124 l 2
 248 154 225 199 225 250 c 0
 225 291 240 328 265 356 c 1
 240 384 225 421 225 462 c 0
 225 552 298 625 388 625 c 0
500 850 m 0
 735 850 925 660 925 425 c 2
 925 -50 l 1
 825 -50 l 1
 825 425 l 2
 825 604 679 750 500 750 c 0
 321 750 175 604 175 425 c 2
 175 -50 l 1
 75 -50 l 1
 75 425 l 2
 75 660 265 850 500 850 c 0
EndSplineSet
MultipleSubs2: "CCMP cartouches" t.melome cart.body
Ligature2: "LIGA basics" m e l o m e
EndChar

StartChar: t.mijomi
Encoding: 256 989611 266
Width: 1000
Flags: W
HStem: 0 250<100 200 800 900> 150 100<200 376 624 800> 513 100<344.114 447.594 552.406 656.054> 725 100<339.105 447.594 552.406 661.056>
VStem: 100 100<0 150> 225 100<395.738 498.017 609.672 710.637> 675 100<396.917 499.353 609.306 711.098> 800 100<0 150>
LayerCount: 2
Fore
SplineSet
388 513 m 0x3f
 351 513 325 487 325 450 c 0
 325 441 326 412 357 386 c 2
 500 263 l 1
 643 386 l 2
 662 403 675 425 675 450 c 0
 675 487 650 513 612 513 c 0
 550 513 525 463 500 413 c 1
 475 463 450 513 388 513 c 0x3f
388 725 m 0
 351 725 325 700 325 663 c 0
 325 652 327 631 348 608 c 1
 361 611 374 613 388 613 c 0
 432 613 475 588 500 550 c 1
 525 588 568 613 612 613 c 0
 626 613 639 611 652 608 c 1
 666 623 675 642 675 663 c 0
 675 700 650 725 612 725 c 0
 550 725 525 675 500 625 c 1
 475 675 450 725 388 725 c 0
388 825 m 0
 432 825 475 800 500 762 c 1
 525 800 568 825 612 825 c 0
 702 825 775 752 775 662 c 0
 775 621 760 584 735 556 c 1
 760 528 775 491 775 450 c 0
 775 399 752 354 715 324 c 2
 624 250 l 1x7f
 900 250 l 1
 900 200 l 1
 900 0 l 1
 800 0 l 1xbf
 800 150 l 1
 200 150 l 1x7f
 200 0 l 1
 100 0 l 1xbf
 100 150 l 1x7f
 100 250 l 1xbf
 376 250 l 1x7f
 285 324 l 2
 248 354 225 399 225 450 c 0
 225 491 240 528 265 556 c 1
 240 584 225 621 225 662 c 0
 225 752 298 825 388 825 c 0
EndSplineSet
MultipleSubs2: "CCMP cartouches" t.mijomi cart.body
Ligature2: "LIGA basics" m i j o m i
EndChar

StartChar: t.misa
Encoding: 257 989612 267
Width: 1000
Flags: W
HStem: 0 100<248.917 413.625> 200 100<384.439 564.962> 462 126<428.644 521.356> 512 126<578.644 671.356> 700 100<385.672 784.304>
VStem: 75 100<173.917 326.332> 175 100<444.867 590.088> 412 126<478.644 571.356> 562 126<528.644 621.356> 825 100<538.748 660.473>
LayerCount: 2
Fore
SplineSet
475 588 m 0xe9c0
 509 588 538 559 538 525 c 0
 538 491 509 462 475 462 c 0
 441 462 412 491 412 525 c 0
 412 559 441 588 475 588 c 0xe9c0
625 638 m 0xd9c0
 659 638 688 609 688 575 c 0
 688 541 659 512 625 512 c 0
 591 512 562 541 562 575 c 0
 562 609 591 638 625 638 c 0xd9c0
475 700 m 2
 365 700 275 610 275 500 c 0xcbc0
 275 390 365 300 475 300 c 0
 530 300 582 322 620 362 c 2
 797 531 l 2
 815 550 825 574 825 600 c 0
 825 655 780 700 725 700 c 2
 475 700 l 2
475 800 m 2
 725 800 l 2
 835 800 925 710 925 600 c 0
 925 549 905 499 870 462 c 2
 692 293 l 2
 635 234 557 200 475 200 c 0
 363 200 266 261 214 351 c 1
 190 324 175 289 175 250 c 0
 175 167 242 100 325 100 c 0
 353 100 379 107 402 121 c 1
 454 36 l 1
 416 13 372 0 325 0 c 0
 187 0 75 112 75 250 c 0xedc0
 75 333 116 408 179 453 c 1
 177 468 175 484 175 500 c 0
 175 666 309 800 475 800 c 2
EndSplineSet
MultipleSubs2: "CCMP cartouches" t.misa cart.body
Ligature2: "LIGA basics" m i s a
EndChar

StartChar: t.nimisin
Encoding: 258 989613 268
Width: 1000
Flags: W
HStem: 200 100<327.882 672.118> 300 100<50 175 825 950> 400 100<327.882 672.118> 550 150<450 550>
VStem: 50 125<300 400> 225 100<302.882 397.118> 450 100<550 700> 675 100<302.882 397.118> 825 125<300 400>
LayerCount: 2
Fore
SplineSet
450 550 m 1x1f80
 450 700 l 1
 550 700 l 1
 550 550 l 1
 450 550 l 1x1f80
825 300 m 1x5f80
 825 400 l 1
 950 400 l 1
 950 300 l 1
 825 300 l 1x5f80
50 300 m 1
 50 400 l 1
 175 400 l 1
 175 300 l 1
 50 300 l 1
350 400 m 2xbf80
 336 400 325 389 325 375 c 2
 325 325 l 2
 325 311 336 300 350 300 c 2
 650 300 l 2
 664 300 675 311 675 325 c 2
 675 375 l 2
 675 389 664 400 650 400 c 2
 350 400 l 2xbf80
350 500 m 2
 650 500 l 2
 719 500 775 444 775 375 c 2
 775 325 l 2
 775 256 719 200 650 200 c 2
 350 200 l 2
 281 200 225 256 225 325 c 2
 225 375 l 2
 225 444 281 500 350 500 c 2
EndSplineSet
MultipleSubs2: "CCMP cartouches" t.nimisin cart.body
Ligature2: "LIGA basics" n i m i s i n
EndChar

StartChar: t.nja
Encoding: 259 989614 269
Width: 1000
Flags: W
HStem: -38 101<405.528 594.472> 138 75<391.365 458.738 541.262 608.635> 513 99<405.528 594.472>
VStem: 100 75<538 697> 175 100<193.482 382.426> 312 76<216.411 275.105> 462 76<216.181 263> 612 76<216.411 275.105> 725 100<193.482 382.426> 825 75<538 697>
LayerCount: 2
Fore
SplineSet
327 305 m 1xe7
 392 268 l 2
 389 263 388 257 388 250 c 0
 388 229 404 213 425 213 c 0
 446 213 462 229 462 250 c 2
 462 263 l 1
 538 263 l 1
 538 250 l 2
 538 229 554 213 575 213 c 0
 596 213 612 229 612 250 c 0
 612 257 611 263 608 268 c 2
 673 305 l 1
 682 289 688 270 688 250 c 0
 688 188 637 138 575 138 c 0
 546 138 520 148 500 166 c 1
 480 148 454 138 425 138 c 0
 363 138 312 188 312 250 c 0
 312 270 318 289 327 305 c 1xe7
500 513 m 0
 376 513 275 412 275 288 c 0
 275 164 376 63 500 63 c 0
 624 63 725 164 725 288 c 0xef80
 725 412 624 513 500 513 c 0
500 612 m 0
 679 612 825 467 825 288 c 0
 825 109 679 -38 500 -38 c 0
 321 -38 175 109 175 288 c 0
 175 467 321 612 500 612 c 0
900 838 m 1xe740
 900 538 l 1
 825 538 l 1
 825 697 l 1
 679 600 l 1
 638 663 l 1
 900 838 l 1xe740
100 838 m 1xf7
 362 663 l 1
 321 600 l 1
 175 697 l 1
 175 538 l 1
 100 538 l 1
 100 838 l 1xf7
EndSplineSet
MultipleSubs2: "CCMP cartouches" t.nja cart.body
Ligature2: "LIGA basics" n j a
EndChar

StartChar: t.oke
Encoding: 260 989615 270
Width: 1000
Flags: W
LayerCount: 2
Fore
SplineSet
848 689 m 1
 912 612 l 1
 300 100 l 1
 88 400 l 1
 169 458 l 1
 319 246 l 1
 848 689 l 1
EndSplineSet
MultipleSubs2: "CCMP cartouches" t.oke cart.body
Ligature2: "LIGA basics" o k e
EndChar

StartChar: t.omekapo
Encoding: 261 989616 271
Width: 1000
Flags: W
HStem: -25 100<504.156 727.06> 425 100<504.513 727.06>
VStem: 50 100<-25.63 74.5928 425.407 525.63> 575 100<600 825> 825 100<167.304 332.696>
LayerCount: 2
Fore
SplineSet
518 585 m 1
 430 538 l 1
 325 738 l 1
 414 784 l 1
 518 585 l 1
732 586 m 1
 836 785 l 1
 925 739 l 1
 820 539 l 1
 732 586 l 1
575 600 m 1
 575 825 l 1
 675 825 l 1
 675 600 l 1
 575 600 l 1
636 425 m 0
 526 425 403 377 311 293 c 0
 296 280 282 265 269 250 c 1
 282 235 296 220 311 207 c 0
 402 123 525 75 636 75 c 0
 746 75 825 153 825 250 c 0
 825 347 746 425 636 425 c 0
150 534 m 1
 156 464 177 396 211 335 c 1
 221 346 232 357 243 367 c 0
 353 468 501 525 651 525 c 0
 801 525 925 402 925 250 c 0
 925 98 801 -25 651 -25 c 0
 501 -25 353 32 243 133 c 0
 232 143 221 154 211 165 c 1
 177 104 156 36 150 -34 c 1
 50 -25 l 1
 59 73 92 168 145 250 c 1
 92 332 59 427 50 525 c 1
 150 534 l 1
EndSplineSet
MultipleSubs2: "CCMP cartouches" t.omekapo cart.body
Ligature2: "LIGA basics" o m e k a p o
EndChar

StartChar: t.puwa
Encoding: 262 989617 272
Width: 1000
Flags: W
HStem: 50 100<233.19 775.103> 700 100<423.917 576.083>
VStem: 75 100<206.658 344.138> 250 100<494.344 626.083> 650 100<473.209 626.083> 825 100<198.045 326.357>
LayerCount: 2
Fore
SplineSet
500 700 m 0
 417 700 350 633 350 550 c 0
 350 529 354 509 362 491 c 1
 399 480 432 461 459 434 c 1
 388 363 l 1
 365 386 334 400 300 400 c 0
 231 400 175 344 175 275 c 0
 175 206 231 150 300 150 c 2
 712 150 l 2
 774 150 825 200 825 262 c 0
 825 324 774 375 712 375 c 2
 712 375 697 375 687 375 c 0
 682 375 679 375 679 375 c 0
 678 374 678 374 677 373 c 1
 675 375 l 1
 606 444 l 1
 633 471 650 509 650 550 c 0
 650 633 583 700 500 700 c 0
500 800 m 0
 638 800 750 688 750 550 c 0
 750 523 746 497 738 473 c 1
 843 460 925 371 925 262 c 0
 925 145 829 50 712 50 c 2
 300 50 l 2
 176 50 75 151 75 275 c 0
 75 384 153 475 256 496 c 1
 252 514 250 531 250 550 c 0
 250 688 362 800 500 800 c 0
EndSplineSet
MultipleSubs2: "CCMP cartouches" t.puwa cart.body
Ligature2: "LIGA basics" p u w a
EndChar

StartChar: t.san
Encoding: 263 989618 273
Width: 1000
Flags: W
HStem: 100 100<100 900> 350 100<100 900> 600 100<100 900>
CounterMasks: 1 e0
LayerCount: 2
Fore
SplineSet
100 350 m 1
 100 450 l 1
 900 450 l 1
 900 350 l 1
 100 350 l 1
100 100 m 1
 100 200 l 1
 900 200 l 1
 900 100 l 1
 100 100 l 1
100 600 m 1
 100 700 l 1
 900 700 l 1
 900 600 l 1
 100 600 l 1
EndSplineSet
MultipleSubs2: "CCMP cartouches" t.san cart.body
Ligature2: "LIGA basics" s a n
EndChar

StartChar: t.taki
Encoding: 264 989619 274
Width: 1000
Flags: W
HStem: -25 100<386.002 568.869> 350 100<429.391 570.609> 725 100<428.32 611.549>
VStem: 75 100<286.002 513.706> 262 100<515.553 623.601> 638 100<176.399 284.447> 825 100<283.684 513.998>
CounterMasks: 1 e0
LayerCount: 2
Fore
SplineSet
266 625 m 1
 210 567 175 487 175 400 c 0
 175 221 321 75 500 75 c 0
 506 75 512 75 518 76 c 0
 585 85 638 142 638 212 c 0
 638 288 576 350 500 350 c 0
 369 350 262 457 262 588 c 0
 262 601 264 613 266 625 c 1
500 725 m 0
 494 725 488 725 482 724 c 0
 415 715 362 658 362 588 c 0
 362 512 424 450 500 450 c 0
 631 450 738 343 738 212 c 0
 738 199 737 187 735 175 c 1
 791 233 825 313 825 400 c 0
 825 579 679 725 500 725 c 0
500 825 m 0
 735 825 925 635 925 400 c 0
 925 165 735 -25 500 -25 c 0
 265 -25 75 165 75 400 c 0
 75 624 249 807 469 823 c 0
 479 824 489 825 500 825 c 0
EndSplineSet
MultipleSubs2: "CCMP cartouches" t.taki cart.body
Ligature2: "LIGA basics" t a k i
EndChar

StartChar: t.te
Encoding: 265 989620 275
Width: 1000
Flags: W
HStem: 800 100<600 1000>
VStem: 500 100<200 800>
LayerCount: 2
Fore
SplineSet
500 900 m 1
 1000 900 l 1
 1000 800 l 1
 600 800 l 1
 600 200 l 1
 500 200 l 1
 500 900 l 1
EndSplineSet
LCarets2: 1 0
MultipleSubs2: "CCMP cartouches" t.te.fw cart.body
Ligature2: "LIGA basics" t e
EndChar

StartChar: t.to
Encoding: 266 989621 276
Width: 1000
Flags: W
HStem: -100 100<0 400>
VStem: 400 100<0 600>
LayerCount: 2
Fore
SplineSet
500 -100 m 1
 0 -100 l 1
 0 0 l 1
 400 0 l 1
 400 600 l 1
 500 600 l 1
 500 -100 l 1
EndSplineSet
LCarets2: 1 0
MultipleSubs2: "CCMP cartouches" t.to.fw cart.body
Ligature2: "LIGA basics" t o
EndChar

StartChar: t.unu
Encoding: 267 989622 277
Width: 1000
Flags: W
HStem: 0 100<377 623> 750 100<425.064 582.696>
VStem: 400 100<513.897 636.103> 675 100<490.67 657.696>
LayerCount: 2
Fore
SplineSet
497 300 m 2
 377 100 l 1
 623 100 l 1
 503 300 l 2
 502 300 501 300 500 300 c 0
 499 300 498 300 497 300 c 2
500 750 m 0
 473 750 447 744 423 732 c 1
 471 694 500 636 500 575 c 0
 500 514 471 456 423 418 c 1
 447 406 473 400 500 400 c 0
 597 400 675 478 675 575 c 0
 675 672 597 750 500 750 c 0
500 850 m 0
 652 850 775 727 775 575 c 0
 775 464 709 365 607 322 c 1
 800 0 l 1
 200 0 l 1
 393 322 l 1
 363 335 335 352 311 375 c 0
 276 409 250 451 236 498 c 1
 254 483 277 475 300 475 c 0
 317 475 333 480 348 488 c 0
 380 506 400 539 400 575 c 0
 400 611 380 644 348 662 c 0
 333 670 317 675 300 675 c 0
 277 675 254 667 236 652 c 1
 250 699 276 741 311 775 c 0
 362 823 430 850 500 850 c 0
EndSplineSet
MultipleSubs2: "CCMP cartouches" t.unu cart.body
Ligature2: "LIGA basics" u n u
EndChar

StartChar: t.usawi
Encoding: 268 989623 278
Width: 1000
Flags: W
HStem: 38 100<339.746 484.447> 325 100<458.659 541.341> 500 100<405.528 594.472>
VStem: 175 100<202.746 369.472> 350 100<246.664 316.341> 450 100<650 850> 550 100<202.746 316.341> 725 100<160.652 369.472>
LayerCount: 2
Fore
SplineSet
500 600 m 0xfb
 679 600 825 454 825 275 c 0
 825 143 763 24 666 -51 c 1
 604 28 l 1
 678 85 725 175 725 275 c 0
 725 399 624 500 500 500 c 0
 376 500 275 399 275 275 c 0
 275 199 336 138 412 138 c 0
 488 138 550 199 550 275 c 0
 550 303 528 325 500 325 c 0
 472 325 450 303 450 275 c 0
 450 267 452 260 455 253 c 1
 366 208 l 1
 356 228 350 251 350 275 c 0
 350 358 417 425 500 425 c 0
 583 425 650 358 650 275 c 0
 650 144 543 38 412 38 c 0
 281 38 175 144 175 275 c 0
 175 454 321 600 500 600 c 0xfb
385 633 m 1
 298 584 l 1
 200 759 l 1
 287 808 l 1
 385 633 l 1
615 633 m 1
 713 808 l 1
 800 759 l 1
 702 584 l 1
 615 633 l 1
450 650 m 1xf5
 450 850 l 1
 550 850 l 1
 550 650 l 1
 450 650 l 1xf5
EndSplineSet
MultipleSubs2: "CCMP cartouches" t.usawi cart.body
Ligature2: "LIGA basics" u s a w i
EndChar

StartChar: t.wa
Encoding: 269 989624 279
Width: 1000
Flags: W
HStem: -25 87<358.865 441.469 559.156 640.656>
VStem: 250 100<71.1353 250> 450 100<70.4375 225 325 825> 650 100<71.1353 250>
CounterMasks: 1 70
LayerCount: 2
Fore
SplineSet
250 250 m 1
 350 250 l 1
 350 112 l 2
 350 84 372 62 400 62 c 0
 428 62 450 84 450 112 c 2
 450 225 l 1
 550 225 l 1
 550 112 l 2
 550 84 572 62 600 62 c 0
 628 62 650 84 650 112 c 2
 650 250 l 1
 750 250 l 1
 750 112 l 2
 750 36 688 -25 612 -25 c 0
 567 -25 526 -4 500 33 c 1
 474 -4 432 -25 387 -25 c 0
 311 -25 250 36 250 112 c 2
 250 250 l 1
450 325 m 1
 450 825 l 1
 550 825 l 1
 550 325 l 1
 450 325 l 1
EndSplineSet
MultipleSubs2: "CCMP cartouches" t.wa cart.body
Ligature2: "LIGA basics" w a
EndChar

StartChar: t.wuwojiti
Encoding: 270 989625 280
Width: 1000
Flags: W
HStem: 0 21G<151 190.895 809.105 849> 780 20G<151 190.895 809.105 849>
LayerCount: 2
Fore
SplineSet
500 609 m 1
 291 400 l 1
 500 191 l 1
 709 400 l 1
 500 609 l 1
171 800 m 1
 360 610 l 1
 500 750 l 1
 640 610 l 1
 829 800 l 1
 900 729 l 1
 710 540 l 1
 850 400 l 1
 710 260 l 1
 900 71 l 1
 829 0 l 1
 640 190 l 1
 500 50 l 1
 360 190 l 1
 171 0 l 1
 100 71 l 1
 290 260 l 1
 150 400 l 1
 290 540 l 1
 100 729 l 1
 171 800 l 1
EndSplineSet
MultipleSubs2: "CCMP cartouches" t.wuwojiti cart.body
Ligature2: "LIGA basics" w u w o j i t i
EndChar

StartChar: t.yupekosi
Encoding: 271 989626 281
Width: 1000
Flags: W
HStem: -6 96<539.938 584.001> 308 100<447.001 458 472.001 489.999 490.001 531 531.062 569.984> 779 20G<699 799>
VStem: 191 100<658 673.996 683.004 684.997 685.001 703 714.003 719.999 720 777.634 778.002 784> 199 100<534.048 580 580.004 588.996 588.999 619 619.001 641.997 642.003 642.998 643 673.996> 204 100<534 580 580.004 588.996 588.999 619> 694 100<216 394> 699 100<651 670.996 671 708.582 755 764.006 764.094 799>
LayerCount: 2
Fore
SplineSet
427 93 m 1xe0
 427 93 l 1xe0
210 108 m 0
 209 108 209 109 208 109 c 0
 207 110 l 0
 206 110 207 111 206 111 c 0
 205 111 l 0
 204 111 203 112 201 114 c 0
 194 120 193 120 191 122 c 2xf0
 262 193 l 1
 264 191 264 193 264 193 c 1
 264 192 l 2
 267 190 268 190 269 189 c 0
 270 189 271 188 274 186 c 0
 281 182 282 180 282 180 c 0
 282 180 284 180 289 176 c 0
 294 172 294 172 294 172 c 1
 294 172 298 169 303 164 c 0
 308 159 308 159 308 159 c 1
 308 159 309 158 315 154 c 0
 316 153 316 152 317 152 c 0
 318 152 321 151 327 148 c 0
 335 144 336 143 336 143 c 0
 336 143 337 143 342 141 c 0
 349 138 350 137 350 137 c 1
 350 137 351 137 359 134 c 0
 367 131 372 128 377 125 c 0
 382 122 383 120 383 120 c 1
 383 120 385 119 390 115 c 0
 394 111 395 111 395 111 c 0
 395 111 397 109 401 107 c 0
 405 105 408 103 411 100 c 0
 412 100 411 99 415 98 c 0
 420 96 424 95 429 93 c 0
 429 93 429 92 430 92 c 0
 438 89 438 89 438 89 c 1
 438 89 439 89 446 86 c 0
 453 83 455 82 455 82 c 0
 455 82 459 80 464 78 c 0
 466 77 465 77 466 76 c 2
 466 76 467 77 474 76 c 0
 481 75 478 75 479 75 c 0
 480 75 484 75 486 75 c 0
 487 75 489 76 491 76 c 0
 494 76 490 76 492 76 c 0
 492 76 493 77 500 79 c 0
 506 81 507 80 507 80 c 0
 508 80 509 81 512 82 c 0
 519 84 519 83 521 84 c 0
 523 85 531 87 540 89 c 0
 547 90 551 90 552 90 c 0
 553 90 553 91 554 91 c 0
 562 93 562 92 565 93 c 0
 568 94 573 95 579 96 c 0
 585 97 584 97 584 97 c 1
 584 97 586 98 593 100 c 0
 598 101 600 101 601 101 c 0
 601 101 602 102 604 102 c 0
 608 103 612 104 612 104 c 1
 612 104 613 105 619 107 c 0
 625 109 629 110 629 110 c 1
 629 110 631 112 644 115 c 0
 647 116 645 116 647 116 c 1
 647 116 648 119 653 125 c 0
 658 131 662 135 662 135 c 0
 665 139 l 2
 668 144 669 144 669 144 c 1
 669 144 669 145 673 150 c 0
 675 153 675 151 675 151 c 0
 677 156 678 158 678 158 c 1
 678 158 677 156 681 166 c 0
 682 167 681 167 682 168 c 0
 683 172 683 172 683 172 c 1
 683 172 683 171 684 179 c 0
 685 185 686 188 686 189 c 0
 686 189 687 191 687 192 c 2
 688 196 688 197 688 197 c 0
 688 197 687 198 688 204 c 0
 688 207 689 209 689 209 c 0
 689 210 689 212 691 221 c 2
 692 224 693 226 693 227 c 0
 693 228 693 228 693 229 c 0
 694 235 694 234 694 233 c 1
 694 234 694 238 694 243 c 2
 694 272 l 1
 694 315 l 2
 694 327 694 335 694 338 c 0
 694 341 693 343 693 350 c 0
 693 357 692 364 692 371 c 2
 692 391 l 2
 692 392 692 393 692 394 c 1
 690 391 690 390 686 385 c 0
 682 380 684 382 682 380 c 0
 682 380 679 378 676 374 c 0
 673 371 672 368 671 367 c 0
 669 365 671 367 669 365 c 0
 662 357 659 355 657 354 c 0
 655 353 649 346 641 341 c 0
 633 336 627 333 624 332 c 0
 621 331 621 330 613 327 c 0
 610 326 609 325 608 325 c 0
 608 325 605 324 600 322 c 0
 589 318 588 319 588 319 c 1
 588 319 585 318 580 317 c 0
 575 316 570 315 565 314 c 2
 563 314 l 2
 562 314 558 311 549 309 c 0
 538 307 531 308 524 308 c 0
 517 308 508 308 500 308 c 0
 492 308 490 309 490 309 c 1
 490 309 488 309 481 310 c 0
 474 311 472 311 472 311 c 1
 472 311 473 311 464 312 c 0
 460 313 458 313 458 313 c 0
 457 313 457 313 456 313 c 0
 449 314 447 315 444 316 c 0
 441 317 435 319 430 320 c 0
 425 321 419 322 411 325 c 0
 404 328 401 330 400 331 c 0
 399 331 396 332 391 334 c 0
 389 334 386 334 379 335 c 0
 370 337 371 337 371 337 c 0
 371 337 363 338 355 338 c 0
 347 338 342 339 342 339 c 1
 342 339 338 338 323 344 c 0
 309 350 304 357 301 360 c 2
 287 374 l 2
 281 380 272 388 265 396 c 0
 258 404 253 414 253 414 c 1
 253 414 252 415 250 418 c 0
 248 421 248 421 246 423 c 0
 244 425 238 432 232 440 c 0
 226 448 221 456 218 464 c 0
 217 466 219 465 218 467 c 0
 218 467 217 469 215 474 c 0
 212 482 213 482 213 481 c 1
 213 482 212 484 212 486 c 0
 211 491 211 492 211 492 c 0
 211 493 210 494 210 496 c 0
 210 497 210 497 210 498 c 1
 210 498 209 500 207 507 c 0
 205 515 204 519 204 520 c 0xe6
 204 521 201 531 200 543 c 0
 199 550 199 557 199 563 c 0
 199 567 199 571 199 574 c 0xe8
 199 583 201 589 201 589 c 1
 201 589 200 588 201 593 c 0
 202 598 201 597 201 598 c 0
 201 599 202 606 202 611 c 0
 202 616 202 619 202 619 c 1
 202 619 201 620 200 629 c 0
 199 638 198 642 198 642 c 1
 198 642 197 646 197 653 c 0
 197 660 197 667 197 668 c 0
 197 669 196 674 196 674 c 2
 195 682 195 683 195 683 c 0
 195 683 194 688 194 694 c 0
 194 700 194 702 194 703 c 1
 194 703 194 702 193 708 c 0
 192 715 193 714 193 714 c 1
 193 714 191 718 191 726 c 0
 191 734 191 742 191 751 c 0
 191 760 191 769 191 777 c 0xf0
 191 785 192 788 192 788 c 1
 192 788 192 791 193 801 c 0
 194 811 198 819 199 822 c 1xe8
 292 784 l 2
 291 781 292 778 292 778 c 2
 291 770 291 774 291 772 c 0
 291 770 291 759 291 750 c 0
 291 742 291 735 291 732 c 0xf0
 291 731 292 730 292 728 c 0
 293 720 292 720 292 720 c 1
 292 720 293 719 294 712 c 0
 295 705 294 701 294 700 c 0
 294 699 294 698 295 692 c 0
 296 686 296 685 296 685 c 1
 296 685 297 681 297 674 c 0
 297 667 297 659 297 658 c 0
 297 657 297 657 298 650 c 0
 299 643 299 643 299 643 c 1
 299 643 300 640 301 631 c 0
 302 622 302 615 302 610 c 0
 302 605 301 599 301 592 c 0
 301 585 300 580 300 580 c 1
 300 580 300 580 299 573 c 0
 299 572 299 570 299 569 c 1
 299 570 l 0
 299 567 299 556 299 553 c 0xe8
 299 550 299 550 301 543 c 0
 303 537 304 535 304 534 c 1
 304 534 305 531 307 524 c 0
 309 517 309 513 309 513 c 1
 309 513 310 514 310 508 c 0
 310 507 311 506 311 505 c 0
 311 505 311 505 311 504 c 0
 312 502 312 501 312 500 c 2
 312 500 312 502 313 499 c 2
 314 497 318 492 322 487 c 0
 326 482 329 479 330 478 c 0
 331 477 333 473 337 467 c 0
 341 461 339 463 341 461 c 0
 343 459 351 450 357 444 c 2
 365 437 l 2
 369 437 373 437 381 436 c 0
 391 435 397 434 397 434 c 0
 397 434 402 433 409 432 c 0
 413 431 418 430 421 429 c 0
 421 429 421 429 422 429 c 0
 423 429 424 429 424 429 c 2
 423 429 l 1
 425 428 428 427 432 425 c 0
 436 424 439 423 443 421 c 2
 447 418 l 1
 447 418 449 418 454 417 c 0
 459 416 465 414 470 413 c 0
 471 413 472 412 472 412 c 0
 472 412 474 412 478 411 c 0
 479 411 481 410 482 410 c 0
 483 410 483 410 484 410 c 0
 488 409 490 409 490 409 c 0
 491 409 494 409 501 408 c 0
 510 407 504 408 506 408 c 0
 508 408 517 408 524 408 c 2
 531 407 l 2
 531 407 533 408 535 409 c 0
 542 411 547 412 548 412 c 0
 549 412 553 413 556 414 c 0
 559 415 563 416 569 417 c 0
 570 417 569 417 570 417 c 2
 572 418 574 419 575 419 c 0
 576 419 577 420 579 421 c 0
 583 423 588 425 589 426 c 0
 589 426 590 427 591 428 c 2
 591 428 592 429 593 429 c 0
 594 430 593 429 595 432 c 0
 598 437 599 438 600 439 c 0
 601 440 603 442 607 446 c 0
 609 448 609 448 610 449 c 0
 610 449 610 450 613 455 c 0
 617 461 621 467 624 471 c 0
 627 475 629 479 633 484 c 0
 637 489 639 492 639 492 c 1
 639 492 636 490 645 499 c 0
 649 503 645 499 646 500 c 0
 648 502 649 503 649 503 c 1
 649 503 649 503 651 506 c 0
 651 507 653 509 656 513 c 0
 661 519 661 520 661 520 c 2
 662 522 664 524 665 526 c 0
 665 527 664 525 665 527 c 0
 667 533 668 534 668 534 c 1
 670 539 l 2
 672 545 671 545 672 548 c 0
 673 551 675 558 677 567 c 0
 679 576 682 587 684 596 c 0
 686 605 687 612 689 619 c 0
 690 624 691 627 692 629 c 0
 692 630 692 634 695 642 c 0
 698 650 699 651 699 651 c 0
 699 652 699 654 700 659 c 0
 702 666 703 671 703 671 c 0
 703 671 704 671 704 674 c 0
 704 675 704 675 704 676 c 0
 704 684 703 695 703 700 c 0
 703 705 702 709 702 718 c 0
 702 727 702 737 702 745 c 0
 702 753 701 757 701 759 c 0
 701 760 701 762 701 762 c 2
 700 772 701 764 701 764 c 0
 701 766 700 768 700 772 c 0
 700 774 699 773 699 776 c 0
 698 783 699 788 699 791 c 0
 699 792 l 2
 699 793 l 1
 699 798 l 1
 699 799 l 1
 799 799 l 1
 799 798 l 1
 799 793 l 1
 799 791 l 2
 799 788 799 786 799 784 c 0
 799 785 799 784 799 782 c 0
 801 771 800 779 800 779 c 0
 800 778 800 776 800 775 c 2
 800 775 800 777 801 772 c 0
 801 769 801 768 801 767 c 0
 801 766 802 766 802 763 c 0
 802 762 803 761 803 760 c 0
 803 760 803 760 803 759 c 0
 805 750 804 756 804 756 c 1
 804 755 l 1
 804 755 804 753 805 749 c 0
 806 745 806 741 806 737 c 0
 806 728 806 718 806 709 c 0
 806 700 805 696 805 694 c 0
 805 692 804 684 804 676 c 0
 804 674 804 675 804 673 c 0
 804 672 804 673 804 671 c 0
 805 664 805 659 805 653 c 2
 805 626 l 1
 805 571 l 2
 805 567 805 564 805 561 c 0
 805 549 804 540 804 533 c 0
 804 525 803 519 803 518 c 1
 803 518 804 515 803 510 c 0
 802 504 802 502 802 502 c 1
 802 502 802 501 801 496 c 0
 800 491 800 490 800 488 c 0
 800 486 800 480 799 471 c 0xe5
 798 464 797 459 797 457 c 0
 797 457 796 456 796 454 c 0
 795 449 795 445 794 441 c 0
 794 436 794 423 794 414 c 0
 794 405 792 400 792 399 c 0
 792 399 792 395 792 390 c 2
 792 371 l 2
 792 364 792 358 792 356 c 0
 792 354 793 351 793 343 c 0
 793 335 794 327 794 314 c 2
 794 272 l 1
 794 243 l 2
 794 236 794 232 793 224 c 0
 792 216 792 216 792 216 c 1
 792 216 794 215 791 204 c 0
 789 197 789 199 789 199 c 2
 789 198 788 198 788 196 c 1
 787 191 787 189 787 189 c 0
 787 189 787 188 787 184 c 0
 786 178 786 177 786 177 c 1
 786 177 786 175 784 168 c 2
 783 162 783 161 783 161 c 1
 783 161 783 160 781 152 c 0
 779 143 779 143 779 143 c 1
 779 143 782 145 776 131 c 0
 774 125 772 123 772 123 c 0
 772 122 771 121 770 119 c 0
 767 111 764 107 764 107 c 0
 764 107 762 102 757 94 c 0
 753 89 752 87 751 86 c 0
 751 86 750 85 749 84 c 0
 746 80 747 81 747 81 c 1
 746 80 743 75 739 70 c 0
 734 64 731 61 731 61 c 1
 731 61 732 62 727 56 c 0
 722 50 720 47 720 47 c 1
 720 47 719 45 714 40 c 0
 708 34 706 34 706 34 c 1
 706 34 706 32 696 26 c 0
 685 19 679 20 679 20 c 1
 679 20 676 19 668 18 c 0
 667 18 668 17 667 17 c 0
 659 14 654 12 653 12 c 0
 652 12 649 10 642 8 c 0
 635 6 630 5 628 5 c 0
 626 5 625 3 618 2 c 0
 616 2 614 2 614 2 c 0
 613 2 612 1 609 0 c 2
 603 -1 602 -1 601 -1 c 0
 600 -1 594 -4 587 -5 c 0
 582 -6 579 -6 578 -6 c 0
 575 -7 571 -9 567 -9 c 0
 558 -10 560 -10 559 -10 c 0
 558 -10 551 -11 545 -13 c 0
 539 -15 540 -14 540 -14 c 1
 540 -14 540 -15 532 -17 c 2
 531 -17 l 2
 527 -18 529 -17 529 -17 c 1
 529 -17 528 -18 527 -18 c 2
 528 -17 l 2
 529 -17 l 0
 530 -16 l 1
 526 -18 518 -22 512 -23 c 0
 502 -25 505 -23 505 -23 c 1
 505 -23 502 -24 494 -25 c 0
 486 -25 481 -25 473 -25 c 0
 465 -25 463 -23 463 -23 c 1
 463 -23 462 -24 455 -23 c 0
 448 -22 445 -21 445 -21 c 1
 445 -21 449 -22 440 -20 c 0
 432 -18 433 -18 433 -18 c 1
 433 -18 431 -18 424 -15 c 0
 417 -12 419 -12 419 -12 c 0
 419 -12 415 -10 410 -8 c 0
 408 -7 407 -6 407 -6 c 0
 407 -6 405 -5 403 -4 c 0
 402 -4 402 -4 401 -4 c 0
 400 -4 398 -3 395 -2 c 0
 382 2 386 3 386 3 c 1
 386 3 384 3 382 4 c 0
 380 5 378 5 369 9 c 0
 360 13 353 18 353 18 c 0
 353 18 351 20 349 21 c 0
 347 22 342 25 335 30 c 0
 330 34 326 37 325 38 c 0
 325 38 324 39 323 40 c 0
 321 41 320 42 320 42 c 0
 320 42 319 42 313 45 c 0
 305 48 304 49 304 49 c 1xe6
 304 49 301 49 291 54 c 0xf0
 284 57 285 58 285 58 c 1
 284 58 279 59 271 63 c 0
 261 68 256 74 256 74 c 1
 256 74 252 76 244 82 c 0
 238 87 234 92 233 93 c 0
 233 93 233 94 232 94 c 2
 230 95 l 0
 228 96 225 98 222 100 c 0
 215 103 214 105 214 105 c 1
 214 105 214 105 209 109 c 0
 210 109 211 108 212 107 c 0
 219 104 212 107 210 108 c 0
661 520 m 1
 661 520 l 1
210 108 m 1
 211 108 l 2
 210 108 l 1
687 190 m 1
 687 190 l 1
269 189 m 1
 267 190 268 190 269 189 c 1
270 189 m 2
 270 189 l 2
206 111 m 0
 205 111 l 0
 201 113 203 112 209 109 c 1
 208 109 l 0
 207 109 207 111 206 111 c 0
580 -6 m 1
 580 -6 l 1
615 2 m 1
 615 2 l 1
653 509 m 1
 654 510 654 510 653 509 c 1
EndSplineSet
MultipleSubs2: "CCMP cartouches" t.yupekosi cart.body
Ligature2: "LIGA basics" y u p e k o s i
EndChar

StartChar: t.te.fw
Encoding: 282 -1 282
Width: 1000
Flags: W
HStem: 650 100<350 750>
VStem: 250 100<50 650>
LayerCount: 2
Fore
SplineSet
250 750 m 1
 750 750 l 1
 750 650 l 1
 350 650 l 1
 350 50 l 1
 250 50 l 1
 250 750 l 1
EndSplineSet
EndChar

StartChar: t.to.fw
Encoding: 283 -1 283
Width: 1000
Flags: W
HStem: 50 100<250 650>
VStem: 650 100<150 750>
LayerCount: 2
Fore
SplineSet
750 50 m 1
 250 50 l 1
 250 150 l 1
 650 150 l 1
 650 750 l 1
 750 750 l 1
 750 50 l 1
EndSplineSet
EndChar

StartChar: n.lipamanka
Encoding: 285 -1 284
Width: 1000
Flags: W
HStem: -50 100<190.696 250 350 425> 375 113<494.614 563.624> 412 113<649.423 700.624> 675 100<626.878 700> 750 100<359.912 495.887>
VStem: 50 100<89.5269 210.855> 150 100<479.485 640.088> 250 100<50 125 175 250> 482 112<405.376 456.624> 619 113<443.376 513.008> 700 100<625 675> 750 100<-50 112 188 325>
LayerCount: 2
Fore
SplineSet
450 850 m 1x8a80
 526 850 596 822 649 775 c 0
 650 775 649 775 650 775 c 2
 700 775 l 1
 800 775 l 1
 800 675 l 1
 800 625 l 1x92a0
 889 506 l 1
 950 425 l 1
 850 325 l 1
 850 -50 l 1
 750 -50 l 1
 750 112 l 1x9090
 700 87 l 1
 700 -50 l 1
 563 19 l 1
 425 -50 l 1
 250 -50 l 2
 140 -50 50 40 50 150 c 0x95a0
 50 253 127 338 227 349 c 1
 179 402 150 473 150 550 c 0
 150 716 284 850 450 850 c 1x8a80
562 212 m 1
 505 184 l 1
 505 116 l 1
 562 88 l 1
 620 116 l 1
 620 184 l 1
 562 212 l 1
425 350 m 1
 563 281 l 1
 700 350 l 1
 700 212 l 1xd1a0
 750 188 l 1
 750 323 l 1
 750 366 l 1xd090
 818 434 l 1
 700 592 l 1
 700 675 l 1
 650 675 l 2
 484 675 350 541 350 375 c 2
 350 175 l 1xd1a0
 425 212 l 1
 425 350 l 1
250 250 m 1
 195 250 150 205 150 150 c 0x8580
 150 95 195 50 250 50 c 1
 250 250 l 1
540 488 m 2xc080
 560 487 579 475 588 457 c 0
 592 449 594 440 594 431 c 0
 594 411 583 391 564 381 c 0
 556 377 547 375 538 375 c 0
 518 375 498 386 488 405 c 0
 484 413 482 422 482 431 c 0
 482 451 493 471 512 481 c 0
 521 487 530 488 540 488 c 2xc080
678 525 m 2xa0c0
 698 524 716 513 725 495 c 0
 729 487 732 478 732 469 c 0
 732 449 720 429 701 419 c 0
 693 415 684 412 675 412 c 0
 655 412 636 424 626 443 c 0
 622 451 619 460 619 469 c 0
 619 489 630 509 649 519 c 0
 658 525 668 525 678 525 c 2xa0c0
350 125 m 1x8180
 350 50 l 1
 425 50 l 1
 425 87 l 1
 350 125 l 1x8180
263 478 m 1
 295 599 383 698 497 745 c 1
 482 749 466 750 450 750 c 0
 340 750 250 660 250 550 c 0x8a80
 250 525 254 500 263 478 c 1
EndSplineSet
MultipleSubs2: "CCMP cartouches" n.lipamanka cart.body
Ligature2: "LIGA basics" l i p a m a n k a
EndChar

StartChar: n.ante
Encoding: 284 -1 285
Width: 1000
Flags: W
HStem: -13 21G<150.304 199.265 489.669 510.331 800.735 849.696>
LayerCount: 2
Fore
SplineSet
189 808 m 1
 344 507 l 1
 500 808 l 1
 656 507 l 1
 811 808 l 1
 900 762 l 1
 712 398 l 1
 900 33 l 1
 811 -13 l 1
 656 289 l 1
 500 -13 l 1
 344 289 l 1
 189 -13 l 1
 100 33 l 1
 288 398 l 1
 100 762 l 1
 189 808 l 1
401 398 m 1
 500 206 l 1
 599 398 l 1
 500 590 l 1
 401 398 l 1
EndSplineSet
MultipleSubs2: "CCMP cartouches" n.ante cart.body
Ligature2: "LIGA alternates" t.ante nine nine
EndChar

StartChar: colon.fw
Encoding: 286 -1 286
Width: 1000
Flags: W
HStem: 125 200<188.358 311.642> 475 200<188.358 311.642>
VStem: 150 200<163.358 286.642 513.358 636.642>
LayerCount: 2
Fore
SplineSet
150 575 m 0
 150 630 195 675 250 675 c 0
 305 675 350 630 350 575 c 0
 350 520 305 475 250 475 c 0
 195 475 150 520 150 575 c 0
150 225 m 0
 150 280 195 325 250 325 c 0
 305 325 350 280 350 225 c 0
 350 170 305 125 250 125 c 0
 195 125 150 170 150 225 c 0
EndSplineSet
Substitution2: "SS03 colon te spacing" morae.colon
Ligature2: "LIGA basics" colon
MultipleSubs2: "CCMP cartouches" morae.colon cart.hwbody
EndChar
